{"glyphs":{"0":{"ha":890,"x_min":83,"x_max":806,"o":"m 269 974 q 306 993 269 974 q 444 1013 342 1013 q 619 974 547 1013 q 731 865 692 936 q 788 708 771 794 q 806 508 806 621 q 788 309 806 396 q 731 151 771 222 q 619 41 692 79 q 444 3 547 3 q 269 41 342 3 q 158 151 197 79 q 101 309 118 222 q 83 508 83 396 q 101 708 83 621 q 158 865 118 794 q 269 974 197 936 m 444 868 q 335 840 378 868 q 272 756 292 811 q 239 508 239 660 q 272 260 239 356 q 444 147 311 147 q 617 260 578 147 q 650 508 650 356 q 617 756 650 660 q 444 868 578 868 z "},"1":{"ha":486,"x_min":63,"x_max":351,"o":"m 192 0 l 192 842 l 63 842 l 63 986 l 351 986 l 351 0 l 192 0 z "},"2":{"ha":801,"x_min":69,"x_max":746,"o":"m 71 14 l 71 129 q 172 217 106 160 q 274 305 239 274 q 363 385 310 336 q 444 470 415 435 q 504 550 474 506 q 561 711 561 631 q 397 883 561 883 q 270 831 315 883 q 222 692 225 779 l 69 692 q 165 934 74 850 q 401 1018 256 1018 q 633 936 547 1018 q 718 719 718 854 q 664 526 718 618 q 608 442 635 479 q 535 358 582 406 q 460 285 488 311 q 378 211 432 258 q 306 146 325 164 l 746 146 l 746 14 l 71 14 z "},"3":{"ha":825,"x_min":67,"x_max":742,"o":"m 81 763 q 180 964 89 892 q 415 1036 271 1036 q 641 962 558 1036 q 724 772 724 888 q 678 625 724 686 q 568 543 632 564 l 568 538 q 696 447 650 513 q 742 267 742 381 q 656 74 742 153 q 419 -6 571 -6 q 170 72 267 -6 q 67 293 74 149 l 219 293 q 276 173 225 219 q 414 126 328 126 q 546 173 500 126 q 592 293 592 219 q 530 431 592 390 q 340 472 468 472 l 304 472 l 304 603 l 342 603 q 572 754 572 606 q 529 860 572 821 q 408 900 486 900 q 286 860 329 900 q 235 763 243 821 l 81 763 z "},"4":{"ha":899,"x_min":64,"x_max":851,"o":"m 574 349 l 574 839 l 246 349 l 574 349 m 567 0 l 567 211 l 64 211 l 64 331 l 531 1000 l 722 1000 l 722 349 l 851 349 l 851 211 l 722 211 l 722 0 l 567 0 z "},"5":{"ha":888,"x_min":103,"x_max":806,"o":"m 125 1015 l 736 1015 l 736 876 l 271 876 l 271 600 q 358 665 300 639 q 492 692 415 692 q 635 661 569 692 q 736 579 701 631 q 806 354 806 479 q 715 98 806 196 q 465 0 625 0 q 213 75 304 0 q 103 274 121 150 l 257 274 q 325 170 272 208 q 467 132 378 132 q 605 192 556 132 q 654 351 654 251 q 604 503 654 450 q 457 557 554 557 q 342 523 389 557 q 275 431 296 489 l 125 431 l 125 1015 z "},"6":{"ha":892,"x_min":103,"x_max":806,"o":"m 654 333 q 654 379 654 333 q 605 481 654 425 q 465 538 556 538 q 316 487 375 538 q 257 340 257 436 q 312 188 257 244 q 460 132 367 132 q 603 186 553 132 q 654 333 654 240 m 460 906 q 296 822 350 906 q 239 543 242 738 q 344 638 275 604 q 494 671 414 671 q 719 582 633 671 q 806 341 806 493 q 718 94 806 189 q 474 0 631 0 q 178 144 258 0 q 119 309 136 217 q 103 529 103 401 q 461 1038 103 1038 q 680 963 600 1038 q 774 778 760 888 l 628 778 q 460 906 597 906 z "},"7":{"ha":778,"x_min":56,"x_max":725,"o":"m 56 1008 l 725 1008 l 725 890 l 339 0 l 165 0 l 569 876 l 56 876 l 56 1008 z "},"8":{"ha":886,"x_min":85,"x_max":803,"o":"m 647 294 q 647 337 647 294 q 592 426 647 379 q 444 474 536 474 q 294 428 351 474 q 236 295 236 382 q 292 158 236 208 q 442 107 347 107 q 592 158 538 107 q 647 294 647 210 m 625 756 q 625 792 625 756 q 576 871 625 829 q 444 913 528 913 q 311 871 360 913 q 263 755 263 829 q 313 637 263 681 q 443 593 364 593 q 574 638 522 593 q 625 756 625 682 m 110 771 q 197 966 110 888 q 443 1044 283 1044 q 690 966 603 1044 q 776 771 776 888 q 737 634 776 693 q 632 543 697 575 q 757 446 711 513 q 803 286 803 379 q 703 60 803 144 q 444 -25 603 -25 q 185 60 285 -25 q 85 286 85 144 q 131 447 85 381 q 254 543 176 514 q 110 771 110 615 z "},"9":{"ha":882,"x_min":107,"x_max":792,"o":"m 258 708 q 258 664 258 708 q 308 566 258 621 q 449 511 357 511 q 588 563 540 511 q 636 706 636 615 q 585 851 636 797 q 447 904 535 904 q 309 849 360 904 q 258 708 258 794 m 464 133 q 608 211 563 133 q 654 476 654 289 q 560 403 621 429 q 429 378 500 378 q 198 463 289 378 q 107 701 107 547 q 197 945 107 854 q 443 1036 286 1036 q 712 910 632 1036 q 792 519 792 785 q 718 128 792 254 q 454 1 644 1 q 225 79 306 1 q 135 275 144 157 l 281 275 q 464 133 308 133 z "},"\u0000":{"ha":0,"x_min":0,"x_max":0,"o":""},"\r":{"ha":417,"x_min":0,"x_max":0,"o":""}," ":{"ha":417,"x_min":0,"x_max":0,"o":""},"!":{"ha":575,"x_min":206,"x_max":396,"o":"m 396 95 q 396 75 396 95 q 368 28 396 56 q 301 0 340 0 q 233 28 261 0 q 206 95 206 56 q 233 163 206 135 q 300 190 260 190 q 368 163 340 190 q 396 95 396 135 m 231 306 l 213 1040 l 381 1040 l 361 306 l 231 306 z "},"\"":{"ha":449,"x_min":47,"x_max":400,"o":"m 275 822 l 257 1107 l 400 1107 l 383 822 l 275 822 m 65 822 l 47 1107 l 190 1107 l 174 822 l 65 822 z "},"#":{"ha":1211,"x_min":43,"x_max":1128,"o":"m 1128 636 l 914 636 l 863 396 l 1046 396 l 1046 257 l 833 257 l 778 0 l 626 0 l 682 257 l 410 257 l 354 0 l 203 0 l 258 257 l 43 257 l 43 396 l 288 396 l 339 636 l 125 636 l 125 775 l 368 775 l 422 1028 l 574 1028 l 519 775 l 792 775 l 846 1028 l 997 1028 l 943 775 l 1128 775 l 1128 636 m 711 396 l 763 636 l 490 636 l 439 396 l 711 396 z "},"$":{"ha":903,"x_min":83,"x_max":756,"o":"m 756 275 q 676 86 756 168 q 460 -8 597 4 l 460 -121 l 381 -121 l 381 -8 q 165 72 247 1 q 83 257 83 142 l 253 257 q 381 121 263 139 l 381 426 q 203 486 254 456 q 117 564 140 522 q 83 697 83 622 q 165 890 83 815 q 381 976 247 965 l 381 1089 l 460 1089 l 460 976 q 660 901 585 967 q 746 718 736 835 l 576 718 q 541 797 572 763 q 460 843 510 832 l 460 543 q 636 486 592 513 q 718 415 701 446 q 756 275 756 350 m 381 847 q 281 803 318 839 q 244 708 244 768 q 280 615 244 647 q 381 564 315 583 l 381 847 m 460 121 q 560 170 524 131 q 596 266 596 210 q 560 354 596 322 q 460 406 525 386 l 460 121 z "},"%":{"ha":1003,"x_min":57,"x_max":946,"o":"m 822 200 q 822 258 822 200 q 735 317 822 317 q 647 200 647 317 q 735 83 647 83 q 822 200 822 83 m 584 44 q 555 73 584 44 q 525 200 525 101 q 584 356 525 299 q 735 413 643 413 q 887 356 828 413 q 946 200 946 299 q 887 44 946 101 q 735 -14 828 -14 q 584 44 643 -14 m 146 0 l 700 967 l 856 967 l 301 0 l 146 0 m 356 767 q 356 826 356 767 q 268 885 356 885 q 181 767 181 885 q 268 650 181 650 q 356 767 356 650 m 116 612 q 86 641 116 612 q 57 768 57 669 q 116 924 57 867 q 268 981 175 981 q 420 924 361 981 q 479 768 479 867 q 420 612 479 669 q 268 554 361 554 q 116 612 175 554 z "},"&":{"ha":940,"x_min":50,"x_max":925,"o":"m 342 -11 q 135 72 219 -11 q 50 281 50 156 q 131 488 50 407 q 324 569 211 569 l 300 581 q 207 799 207 708 q 277 959 207 890 q 467 1028 347 1028 q 657 962 586 1028 q 728 807 728 896 q 715 736 728 767 l 560 736 q 571 799 571 761 q 542 865 571 836 q 467 894 513 894 q 394 865 422 894 q 365 787 365 836 q 418 669 365 738 l 925 0 l 736 0 l 610 171 q 507 40 581 92 q 342 -11 433 -11 m 235 167 q 257 143 235 167 q 343 119 279 119 q 452 167 407 119 q 497 283 497 215 q 452 399 497 351 q 342 446 407 446 q 234 399 278 446 q 190 283 190 351 q 235 167 190 214 z "},"'":{"ha":239,"x_min":47,"x_max":190,"o":"m 65 822 l 47 1107 l 190 1107 l 174 822 l 65 822 z "},"(":{"ha":747,"x_min":176,"x_max":710,"o":"m 546 -257 q 278 84 379 -133 q 176 559 176 301 q 278 1034 176 817 q 546 1374 379 1251 l 710 1374 l 710 1358 q 425 999 519 1207 q 331 559 331 792 q 425 119 331 326 q 710 -242 519 -89 l 710 -257 l 546 -257 z "},")":{"ha":749,"x_min":38,"x_max":572,"o":"m 201 1374 q 471 1034 369 1251 q 572 559 572 817 q 471 84 572 301 q 201 -257 369 -133 l 38 -257 l 38 -242 q 324 119 229 -89 q 418 559 418 326 q 324 999 418 792 q 38 1358 229 1207 l 38 1374 l 201 1374 z "},"*":{"ha":700,"x_min":88,"x_max":607,"o":"m 415 1022 l 385 819 l 544 943 l 607 832 l 417 761 l 607 690 l 543 576 l 385 701 l 414 500 l 286 500 l 313 701 l 154 574 l 88 692 l 276 763 l 88 831 l 151 944 l 314 819 l 286 1022 l 415 1022 z "},"+":{"ha":992,"x_min":142,"x_max":850,"o":"m 850 572 l 850 431 l 571 431 l 571 147 l 421 147 l 421 431 l 142 431 l 142 572 l 421 572 l 421 856 l 571 856 l 571 572 l 850 572 z "},",":{"ha":281,"x_min":50,"x_max":254,"o":"m 50 108 l 200 108 q 181 -172 254 -97 q 63 -215 140 -215 l 63 -146 q 113 -129 97 -146 q 129 -74 129 -112 l 129 -44 l 50 -44 l 50 108 z "},"-":{"ha":813,"x_min":121,"x_max":692,"o":"m 121 436 l 121 569 l 692 569 l 692 436 l 121 436 z "},".":{"ha":326,"x_min":68,"x_max":258,"o":"m 231 27 q 217 14 231 27 q 163 0 203 0 q 95 28 122 0 q 68 95 68 56 q 95 163 68 135 q 163 190 122 190 q 231 163 203 190 q 258 94 258 135 q 231 27 258 54 z "},"/":{"ha":714,"x_min":85,"x_max":618,"o":"m 85 -243 l 461 1311 l 618 1311 l 240 -243 l 85 -243 z "},":":{"ha":426,"x_min":111,"x_max":301,"o":"m 301 676 q 301 656 301 676 q 274 609 301 636 q 206 582 246 582 q 139 609 167 582 q 111 676 111 636 q 139 744 111 717 q 206 772 167 772 q 274 744 246 772 q 301 676 301 717 m 301 94 q 301 74 301 94 q 274 27 301 54 q 206 0 246 0 q 139 28 167 0 q 111 95 111 56 q 138 163 111 135 q 206 190 165 190 q 274 163 246 190 q 301 94 301 135 z "},";":{"ha":422,"x_min":132,"x_max":346,"o":"m 294 610 q 281 597 294 610 q 226 583 267 583 q 159 611 186 583 q 132 678 132 639 q 159 746 132 718 q 226 774 186 774 q 294 746 267 774 q 322 678 322 718 q 294 610 322 638 m 142 108 l 292 108 q 272 -172 346 -97 q 154 -215 232 -215 l 154 -146 q 205 -129 189 -146 q 221 -74 221 -112 l 221 -44 l 142 -44 l 142 108 z "},"<":{"ha":850,"x_min":136,"x_max":656,"o":"m 335 501 l 656 186 l 456 186 l 136 501 l 456 817 l 656 817 l 335 501 z "},"=":{"ha":1075,"x_min":168,"x_max":907,"o":"m 168 589 l 168 729 l 907 729 l 907 589 l 168 589 m 168 274 l 168 414 l 907 414 l 907 274 l 168 274 z "},">":{"ha":819,"x_min":156,"x_max":675,"o":"m 156 186 l 476 501 l 156 817 l 356 817 l 675 501 l 356 186 l 156 186 z "},"?":{"ha":879,"x_min":132,"x_max":754,"o":"m 290 19 q 276 33 290 19 q 263 88 263 47 q 290 156 263 128 q 358 183 318 183 q 425 156 397 183 q 453 88 453 128 q 425 19 453 47 q 358 -8 397 -8 q 290 19 318 -8 m 133 753 q 217 960 132 881 q 442 1039 301 1039 q 669 961 583 1039 q 754 741 754 883 q 672 533 754 599 q 429 467 590 468 l 429 297 l 279 297 l 279 575 l 346 575 q 540 609 476 574 q 603 749 603 644 q 560 864 603 822 q 443 906 518 906 q 325 865 368 906 q 282 753 282 825 l 133 753 z "},"@":{"ha":1656,"x_min":68,"x_max":1588,"o":"m 68 296 q 181 710 68 525 q 490 998 293 894 q 929 1101 688 1101 q 1406 938 1225 1101 q 1588 499 1588 774 q 1467 136 1588 285 q 1194 -12 1346 -12 q 1063 35 1107 -12 q 1017 158 1019 82 q 736 -12 914 -12 q 503 101 593 -12 q 439 388 414 215 q 589 668 464 560 q 874 776 714 776 q 1122 672 1033 776 q 1186 406 1210 567 l 1156 199 q 1207 124 1144 124 q 1353 231 1282 124 q 1424 500 1424 339 q 1286 844 1424 714 q 908 974 1149 974 q 423 778 615 974 q 231 296 231 582 q 383 -85 231 51 q 803 -228 536 -222 l 771 -356 q 262 -176 456 -350 q 68 296 68 -3 m 634 197 q 661 160 634 197 q 775 124 688 124 q 937 197 863 124 q 1028 383 1011 271 q 991 567 1044 494 q 850 640 938 640 q 688 567 763 640 q 597 382 614 494 q 634 197 581 269 z "},"A":{"ha":968,"x_min":47,"x_max":922,"o":"m 756 0 l 686 197 l 282 197 l 213 0 l 47 0 l 393 967 l 576 967 l 922 0 l 756 0 m 325 321 l 643 321 l 485 775 l 325 321 z "},"B":{"ha":875,"x_min":104,"x_max":807,"o":"m 104 965 l 472 965 q 703 893 621 965 q 785 710 785 821 q 597 496 785 547 q 749 412 692 481 q 807 254 807 343 q 721 72 807 143 q 490 0 635 0 l 104 0 l 104 965 m 263 842 l 263 556 l 458 556 q 580 593 536 556 q 624 698 624 631 q 580 803 624 765 q 458 842 536 842 l 263 842 m 263 124 l 476 124 q 603 164 557 124 q 649 276 649 204 q 600 390 649 347 q 471 432 551 432 l 263 432 l 263 124 z "},"C":{"ha":1074,"x_min":51,"x_max":993,"o":"m 544 -8 q 194 131 338 -8 q 51 484 51 269 q 194 838 51 699 q 544 978 338 978 q 819 902 699 978 q 993 688 939 826 l 803 688 q 544 833 725 833 q 306 738 399 833 q 214 484 214 642 q 306 231 214 326 q 544 135 399 135 q 803 281 725 135 l 993 281 q 819 67 939 142 q 544 -8 699 -8 z "},"D":{"ha":985,"x_min":104,"x_max":932,"o":"m 263 121 l 419 121 q 678 217 588 121 q 769 480 769 313 q 678 742 769 647 q 419 838 588 838 l 263 838 l 263 121 m 419 965 q 792 834 653 965 q 932 480 932 703 q 792 128 932 257 q 419 0 653 0 l 104 0 l 104 965 l 419 965 z "},"E":{"ha":728,"x_min":104,"x_max":638,"o":"m 638 967 l 638 843 l 263 843 l 263 550 l 596 550 l 596 428 l 263 428 l 263 124 l 638 124 l 638 0 l 104 0 l 104 967 l 638 967 z "},"F":{"ha":715,"x_min":104,"x_max":672,"o":"m 104 0 l 104 965 l 672 965 l 672 842 l 263 842 l 263 549 l 582 549 l 582 426 l 263 426 l 263 0 l 104 0 z "},"G":{"ha":1074,"x_min":51,"x_max":1022,"o":"m 535 -8 q 436 -8 535 -8 q 194 131 338 -8 q 51 484 51 269 q 194 838 51 699 q 544 978 338 978 q 819 902 699 978 q 993 688 939 826 l 803 688 q 544 833 725 833 q 306 738 399 833 q 214 484 214 642 q 306 231 214 326 q 536 135 399 135 q 755 208 674 135 q 853 406 836 281 l 490 406 l 490 529 l 1022 529 l 1022 406 q 867 112 1000 232 q 535 -8 733 -8 z "},"H":{"ha":979,"x_min":104,"x_max":875,"o":"m 717 965 l 875 965 l 875 0 l 717 0 l 717 426 l 263 426 l 263 0 l 104 0 l 104 965 l 263 965 l 263 549 l 717 549 l 717 965 z "},"I":{"ha":367,"x_min":104,"x_max":263,"o":"m 104 0 l 104 965 l 263 965 l 263 0 l 104 0 z "},"J":{"ha":783,"x_min":61,"x_max":631,"o":"m 471 269 l 471 965 l 631 965 l 631 269 q 552 65 631 140 q 346 -10 474 -10 q 140 65 218 -10 q 61 269 61 140 l 221 269 q 253 168 222 206 q 346 131 285 131 q 439 169 407 131 q 471 269 471 207 z "},"K":{"ha":879,"x_min":104,"x_max":844,"o":"m 263 0 l 104 0 l 104 965 l 263 965 l 263 525 l 638 965 l 844 965 l 408 481 l 844 0 l 636 0 l 263 432 l 263 0 z "},"L":{"ha":617,"x_min":104,"x_max":589,"o":"m 104 965 l 263 965 l 263 121 l 589 121 l 589 0 l 104 0 l 104 965 z "},"M":{"ha":1225,"x_min":104,"x_max":1121,"o":"m 1121 965 l 1121 0 l 963 0 l 963 661 l 668 0 l 558 0 l 263 661 l 263 0 l 104 0 l 104 965 l 275 965 l 614 208 l 951 965 l 1121 965 z "},"N":{"ha":1001,"x_min":104,"x_max":897,"o":"m 739 967 l 897 967 l 897 0 l 739 0 l 263 721 l 263 0 l 104 0 l 104 967 l 263 967 l 739 247 l 739 967 z "},"O":{"ha":1089,"x_min":51,"x_max":1038,"o":"m 544 133 q 617 133 544 133 q 783 230 690 133 q 875 484 875 326 q 783 738 875 642 q 544 833 690 833 q 306 738 399 833 q 214 484 214 642 q 306 230 214 326 q 544 133 399 133 m 545 -10 q 441 -10 545 -10 q 194 130 338 -10 q 51 484 51 269 q 194 838 51 699 q 545 978 338 978 q 895 838 753 978 q 1038 484 1038 699 q 895 130 1038 269 q 545 -10 753 -10 z "},"P":{"ha":826,"x_min":104,"x_max":779,"o":"m 438 965 q 690 884 601 965 q 779 681 779 803 q 695 476 779 560 q 438 392 611 392 l 263 392 l 263 0 l 104 0 l 104 965 l 438 965 m 263 515 l 438 515 q 572 558 528 515 q 617 678 617 601 q 572 799 617 756 q 438 842 528 842 l 263 842 l 263 515 z "},"Q":{"ha":1093,"x_min":51,"x_max":1053,"o":"m 544 -10 q 194 130 338 -10 q 51 484 51 269 q 194 838 51 699 q 545 978 338 978 q 895 838 753 978 q 1038 485 1038 699 q 980 244 1038 351 q 821 71 922 136 l 1053 -175 l 851 -175 l 682 8 q 544 -10 619 -10 m 544 833 q 472 833 544 833 q 306 738 399 833 q 214 484 214 642 q 306 230 214 326 q 544 133 399 133 q 783 230 690 133 q 875 484 875 326 q 783 738 875 642 q 544 833 690 833 z "},"R":{"ha":878,"x_min":104,"x_max":794,"o":"m 263 392 l 263 0 l 104 0 l 104 965 l 438 965 q 690 884 601 965 q 779 678 779 803 q 720 503 779 581 q 539 401 661 425 l 794 0 l 601 0 l 360 392 l 263 392 m 263 842 l 263 515 l 438 515 q 572 558 528 515 q 617 678 617 601 q 572 799 617 756 q 438 842 528 842 l 263 842 z "},"S":{"ha":839,"x_min":83,"x_max":756,"o":"m 404 849 q 369 849 404 849 q 289 813 333 849 q 244 708 244 776 q 297 603 244 639 q 425 550 350 567 q 575 512 500 533 q 703 432 650 490 q 756 267 756 374 q 665 75 756 160 q 424 -10 575 -10 q 178 61 272 -10 q 83 257 83 132 l 253 257 q 300 156 258 193 q 422 118 342 118 q 549 160 503 118 q 596 258 596 201 q 567 347 596 315 q 494 395 539 379 q 394 424 449 411 q 285 453 340 436 q 185 496 231 469 q 112 573 140 522 q 83 697 83 624 q 174 901 83 824 q 410 978 265 978 q 642 911 556 978 q 739 718 729 844 l 564 718 q 517 811 558 774 q 404 849 475 849 z "},"T":{"ha":783,"x_min":54,"x_max":728,"o":"m 54 842 l 54 965 l 728 965 l 728 842 l 471 842 l 471 0 l 313 0 l 313 842 l 54 842 z "},"U":{"ha":958,"x_min":103,"x_max":857,"o":"m 103 353 l 103 965 l 261 965 l 261 353 q 319 188 261 243 q 480 132 376 132 q 641 188 583 132 q 699 353 699 243 l 699 965 l 857 965 l 857 353 q 748 84 857 178 q 477 -10 639 -10 q 209 83 315 -10 q 103 353 103 176 z "},"V":{"ha":964,"x_min":26,"x_max":936,"o":"m 390 0 l 26 965 l 196 965 l 481 164 l 768 965 l 936 965 l 574 0 l 390 0 z "},"W":{"ha":1388,"x_min":26,"x_max":1361,"o":"m 1192 965 l 1361 965 l 1075 0 l 896 0 l 693 731 l 478 0 l 300 -1 l 26 965 l 194 965 l 394 179 l 611 965 l 789 965 l 990 183 l 1192 965 z "},"X":{"ha":917,"x_min":69,"x_max":849,"o":"m 849 965 l 547 482 l 847 0 l 669 0 l 451 350 l 247 0 l 69 0 l 369 482 l 69 965 l 247 965 l 465 614 l 671 965 l 849 965 z "},"Y":{"ha":840,"x_min":21,"x_max":819,"o":"m 500 0 l 342 0 l 342 350 l 21 965 l 197 965 l 419 494 l 642 965 l 819 965 l 500 350 l 500 0 z "},"Z":{"ha":775,"x_min":69,"x_max":706,"o":"m 706 965 l 706 842 l 251 124 l 706 124 l 706 0 l 69 0 l 69 124 l 522 842 l 69 842 l 69 965 l 706 965 z "},"[":{"ha":674,"x_min":206,"x_max":494,"o":"m 206 -244 l 206 1311 l 494 1311 l 494 1181 l 354 1181 l 354 -112 l 494 -112 l 494 -244 l 206 -244 z "},"\\":{"ha":996,"x_min":228,"x_max":800,"o":"m 383 1311 l 800 -243 l 644 -243 l 228 1311 l 383 1311 z "},"]":{"ha":672,"x_min":178,"x_max":467,"o":"m 467 1311 l 467 -244 l 178 -244 l 178 -112 l 319 -112 l 319 1181 l 178 1181 l 178 1311 l 467 1311 z "},"^":{"ha":908,"x_min":50,"x_max":860,"o":"m 694 233 l 456 775 l 214 233 l 50 233 l 379 967 l 529 967 l 860 233 l 694 233 z "},"_":{"ha":1108,"x_min":175,"x_max":950,"o":"m 175 -203 l 175 -56 l 950 -56 l 950 -203 l 175 -203 z "},"`":{"ha":353,"x_min":14,"x_max":321,"o":"m 14 971 l 14 1106 l 321 936 l 321 819 l 14 971 z "},"a":{"ha":942,"x_min":51,"x_max":838,"o":"m 609 195 q 643 230 609 195 q 678 383 678 265 q 609 571 678 501 q 446 640 540 640 q 283 572 351 640 q 214 386 214 504 q 283 197 214 268 q 446 125 351 125 q 609 195 540 125 m 413 -12 q 156 99 260 -12 q 51 385 51 211 q 155 669 51 560 q 413 778 258 778 q 572 737 503 778 q 678 629 640 696 l 678 765 l 838 765 l 838 0 l 678 0 l 678 143 q 571 30 639 72 q 413 -12 503 -12 z "},"b":{"ha":942,"x_min":104,"x_max":889,"o":"m 658 197 q 693 232 658 197 q 728 386 728 268 q 659 572 728 504 q 495 640 590 640 q 331 571 400 640 q 263 383 263 501 q 331 195 263 265 q 494 125 400 125 q 658 197 589 125 m 529 778 q 786 669 683 778 q 889 385 889 560 q 785 99 889 211 q 529 -12 682 -12 q 371 30 439 -12 q 263 143 303 72 l 263 0 l 104 0 l 104 1028 l 263 1028 l 263 629 q 370 737 301 696 q 529 778 439 778 z "},"c":{"ha":833,"x_min":51,"x_max":779,"o":"m 426 -12 q 156 96 260 -12 q 51 383 51 204 q 156 669 51 561 q 426 778 261 778 q 656 712 565 778 q 779 524 747 646 l 608 524 q 426 644 565 644 q 272 576 329 644 q 214 383 214 507 q 272 190 214 260 q 426 121 329 121 q 608 242 564 121 l 779 242 q 654 56 746 125 q 426 -12 563 -12 z "},"d":{"ha":942,"x_min":51,"x_max":838,"o":"m 609 195 q 643 230 609 195 q 678 383 678 265 q 609 571 678 501 q 446 640 540 640 q 283 572 351 640 q 214 386 214 504 q 283 197 214 268 q 446 125 351 125 q 609 195 540 125 m 413 -12 q 156 99 260 -12 q 51 385 51 211 q 155 669 51 560 q 413 778 258 778 q 572 737 503 778 q 678 629 640 696 l 678 1028 l 838 1028 l 838 0 l 678 0 l 678 143 q 571 30 639 72 q 413 -12 503 -12 z "},"e":{"ha":857,"x_min":51,"x_max":806,"o":"m 426 -12 q 156 96 260 -12 q 51 383 51 204 q 157 670 51 563 q 430 778 263 778 q 701 674 597 778 q 806 404 806 571 q 800 329 806 364 l 214 329 q 278 177 219 233 q 426 121 338 121 q 608 228 556 121 l 779 228 q 653 55 744 122 q 426 -12 561 -12 m 640 438 q 578 588 639 532 q 429 644 517 644 q 283 588 342 644 q 215 438 224 532 l 640 438 z "},"f":{"ha":461,"x_min":33,"x_max":425,"o":"m 425 765 l 425 636 l 283 636 l 283 0 l 124 0 l 124 636 l 33 636 l 33 765 l 124 765 l 124 819 q 194 1012 124 951 q 414 1072 264 1072 l 414 940 q 313 913 342 940 q 283 819 283 886 l 283 765 l 425 765 z "},"g":{"ha":942,"x_min":51,"x_max":838,"o":"m 413 -12 q 156 99 260 -12 q 51 385 51 211 q 155 669 51 560 q 413 778 258 778 q 572 737 503 778 q 678 629 640 696 l 678 765 l 838 765 l 838 -12 q 738 -276 838 -174 q 474 -378 639 -378 q 206 -305 308 -378 q 89 -107 103 -232 l 246 -107 q 323 -203 264 -167 q 471 -240 382 -240 q 619 -182 560 -240 q 678 -12 678 -124 l 678 143 q 571 30 639 72 q 413 -12 503 -12 m 609 195 q 643 230 609 195 q 678 383 678 265 q 609 571 678 501 q 446 640 540 640 q 283 572 351 640 q 214 386 214 504 q 283 197 214 268 q 446 125 351 125 q 609 195 540 125 z "},"h":{"ha":901,"x_min":104,"x_max":804,"o":"m 263 1028 l 263 644 q 507 778 339 778 q 720 692 636 778 q 804 451 804 606 l 804 0 l 647 0 l 647 428 q 596 585 647 531 q 456 640 544 640 q 315 585 367 640 q 263 428 263 531 l 263 0 l 104 0 l 104 1028 l 263 1028 z "},"i":{"ha":367,"x_min":83,"x_max":285,"o":"m 285 968 q 285 947 285 968 q 256 896 285 925 q 184 867 226 867 q 113 896 142 867 q 83 968 83 925 q 113 1040 83 1011 q 184 1069 142 1069 q 256 1040 226 1069 q 285 968 285 1011 m 104 0 l 104 765 l 263 765 l 263 0 l 104 0 z "},"j":{"ha":367,"x_min":-39,"x_max":285,"o":"m 104 765 l 263 765 l 263 -150 q 43 -364 263 -364 l -39 -364 l -39 -231 l 15 -231 q 84 -212 64 -231 q 104 -150 104 -193 l 104 765 m 285 968 q 285 947 285 968 q 256 896 285 925 q 184 867 226 867 q 113 896 142 867 q 83 968 83 925 q 113 1040 83 1011 q 184 1069 142 1069 q 256 1040 226 1069 q 285 968 285 1011 z "},"k":{"ha":769,"x_min":104,"x_max":760,"o":"m 263 0 l 104 0 l 104 1028 l 263 1028 l 263 431 l 540 765 l 760 765 l 407 382 l 760 0 l 546 0 l 263 329 l 263 0 z "},"l":{"ha":367,"x_min":104,"x_max":263,"o":"m 104 0 l 104 1028 l 263 1028 l 263 0 l 104 0 z "},"m":{"ha":1443,"x_min":104,"x_max":1346,"o":"m 263 765 l 263 644 q 507 778 339 778 q 665 736 596 778 q 771 615 735 694 q 883 735 811 692 q 1044 778 954 778 q 1261 692 1176 778 q 1346 451 1346 607 l 1346 0 l 1188 0 l 1188 428 q 1136 585 1188 531 q 996 640 1085 640 q 856 585 907 640 q 804 428 804 531 l 804 0 l 647 0 l 647 428 q 596 585 647 531 q 456 640 544 640 q 315 585 367 640 q 263 428 263 531 l 263 0 l 104 0 l 104 765 l 263 765 z "},"n":{"ha":901,"x_min":104,"x_max":804,"o":"m 263 765 l 263 644 q 507 778 339 778 q 720 692 636 778 q 804 451 804 606 l 804 0 l 647 0 l 647 428 q 596 585 647 531 q 456 640 544 640 q 315 585 367 640 q 263 428 263 531 l 263 0 l 104 0 l 104 765 l 263 765 z "},"o":{"ha":886,"x_min":53,"x_max":833,"o":"m 601 190 q 636 225 601 190 q 671 383 671 260 q 603 576 671 507 q 440 644 536 644 q 279 576 344 644 q 214 383 214 507 q 278 190 214 258 q 437 121 342 121 q 601 190 532 121 m 437 -12 q 353 -12 437 -12 q 161 97 269 -12 q 53 383 53 206 q 165 669 53 560 q 443 778 276 778 q 722 669 610 778 q 833 383 833 560 q 719 97 833 207 q 437 -12 604 -12 z "},"p":{"ha":942,"x_min":104,"x_max":889,"o":"m 658 197 q 693 232 658 197 q 728 386 728 268 q 659 572 728 504 q 495 640 590 640 q 331 571 400 640 q 263 383 263 501 q 331 195 263 265 q 494 125 400 125 q 658 197 589 125 m 529 778 q 786 669 683 778 q 889 385 889 560 q 785 99 889 211 q 529 -12 682 -12 q 371 30 439 -12 q 263 143 303 72 l 263 -364 l 104 -364 l 104 765 l 263 765 l 263 629 q 370 737 301 696 q 529 778 439 778 z "},"q":{"ha":942,"x_min":51,"x_max":838,"o":"m 609 195 q 643 230 609 195 q 678 383 678 265 q 609 571 678 501 q 446 640 540 640 q 283 572 351 640 q 214 386 214 504 q 283 197 214 268 q 446 125 351 125 q 609 195 540 125 m 413 -12 q 156 99 260 -12 q 51 385 51 211 q 155 669 51 560 q 413 778 258 778 q 572 737 503 778 q 678 629 640 696 l 678 765 l 838 765 l 838 -364 l 678 -364 l 678 143 q 571 30 639 72 q 413 -12 503 -12 z "},"r":{"ha":533,"x_min":104,"x_max":492,"o":"m 263 765 l 263 632 q 492 778 336 778 l 492 614 l 451 614 q 310 567 358 614 q 263 403 263 519 l 263 0 l 104 0 l 104 765 l 263 765 z "},"s":{"ha":742,"x_min":68,"x_max":672,"o":"m 69 546 q 151 710 69 643 q 367 778 233 778 q 578 712 500 778 q 663 532 657 646 l 500 532 q 460 621 496 589 q 361 653 425 653 q 261 624 297 653 q 225 549 225 596 q 271 476 225 503 q 383 438 317 450 q 515 407 449 425 q 626 341 581 389 q 672 213 672 293 q 588 50 672 113 q 372 -12 504 -12 q 158 51 240 -12 q 68 233 76 115 l 232 233 q 274 144 236 176 q 376 113 311 113 q 478 141 440 113 q 517 217 517 169 q 471 290 517 264 q 359 330 425 317 q 227 360 293 343 q 115 424 161 378 q 69 546 69 469 z "},"t":{"ha":517,"x_min":39,"x_max":475,"o":"m 475 636 l 289 636 l 289 213 q 309 151 289 169 q 378 132 329 132 l 475 132 l 475 0 l 350 0 q 129 213 129 0 l 129 636 l 39 636 l 39 765 l 129 765 l 129 956 l 289 956 l 289 765 l 475 765 l 475 636 z "},"u":{"ha":901,"x_min":97,"x_max":797,"o":"m 639 765 l 797 765 l 797 0 l 639 0 l 639 121 q 394 -11 564 -11 q 181 74 265 -11 q 97 314 97 160 l 97 765 l 254 765 l 254 338 q 306 180 254 235 q 446 125 357 125 q 587 180 535 125 q 639 338 639 235 l 639 765 z "},"v":{"ha":800,"x_min":14,"x_max":788,"o":"m 14 765 l 183 765 l 400 142 l 617 765 l 788 765 l 496 0 l 304 0 l 14 765 z "},"w":{"ha":1146,"x_min":14,"x_max":1132,"o":"m 976 765 l 1132 765 l 894 0 l 728 0 l 574 565 l 419 0 l 253 0 l 14 765 l 175 765 l 335 150 l 497 765 l 663 765 l 818 153 l 976 765 z "},"x":{"ha":693,"x_min":14,"x_max":679,"o":"m 679 765 l 432 388 l 679 0 l 500 0 l 335 260 l 179 0 l 14 0 l 261 376 l 14 765 l 193 765 l 358 506 l 514 765 l 679 765 z "},"y":{"ha":808,"x_min":14,"x_max":793,"o":"m 315 13 l 14 765 l 190 765 l 406 182 l 629 765 l 793 765 l 324 -360 l 160 -360 l 315 13 z "},"z":{"ha":654,"x_min":61,"x_max":592,"o":"m 592 765 l 592 636 l 244 129 l 592 129 l 592 0 l 61 0 l 61 129 l 410 636 l 61 636 l 61 765 l 592 765 z "},"{":{"ha":754,"x_min":175,"x_max":625,"o":"m 465 335 q 454 210 465 292 q 443 68 443 128 q 492 -159 443 -69 q 625 -279 542 -249 l 625 -301 l 465 -301 q 289 44 289 -222 q 301 181 289 94 q 313 315 313 268 q 175 485 313 461 l 175 549 q 313 718 313 569 q 301 852 313 765 q 289 989 289 939 q 465 1335 289 1256 l 625 1335 l 625 1313 q 492 1192 542 1282 q 443 965 443 1103 q 454 824 443 906 q 465 699 465 742 q 321 518 465 547 l 321 515 q 465 335 465 486 z "},"|":{"ha":450,"x_min":146,"x_max":304,"o":"m 146 1113 l 304 1113 l 304 -157 l 146 -157 l 146 1113 z "},"}":{"ha":744,"x_min":131,"x_max":581,"o":"m 289 699 q 300 824 289 742 q 311 965 311 906 q 263 1192 311 1103 q 131 1313 214 1282 l 131 1335 l 290 1335 q 465 989 465 1257 q 453 852 465 939 q 442 718 442 765 q 581 549 442 569 l 581 485 q 442 315 442 463 q 453 181 442 268 q 465 44 465 94 q 290 -301 465 -224 l 131 -301 l 131 -279 q 263 -159 214 -249 q 311 68 311 -69 q 300 210 311 128 q 289 335 289 292 q 435 515 289 486 l 435 518 q 289 699 289 549 z "},"~":{"ha":768,"x_min":50,"x_max":718,"o":"m 271 560 q 401 515 329 560 q 508 469 472 469 q 570 492 543 469 q 603 557 597 515 l 718 557 q 496 328 679 328 q 367 373 438 328 q 260 418 297 418 q 197 395 224 418 q 164 331 169 372 l 50 331 q 271 560 89 560 z "}," ":{"ha":417,"x_min":0,"x_max":0,"o":""},"¡":{"ha":599,"x_min":206,"x_max":396,"o":"m 213 -262 l 231 472 l 361 472 l 381 -262 l 213 -262 m 206 683 q 206 702 206 683 q 233 750 206 722 q 301 778 261 778 q 368 750 340 778 q 396 683 396 722 q 368 615 396 643 q 300 588 340 588 q 233 615 260 588 q 206 683 206 643 z "},"¢":{"ha":958,"x_min":92,"x_max":785,"o":"m 457 593 q 300 531 358 593 q 242 360 242 468 q 300 190 242 251 q 457 128 358 128 q 638 242 603 128 l 785 242 q 697 78 774 144 q 501 -1 621 11 l 501 -122 l 411 -122 l 411 -1 q 174 113 257 13 q 92 360 92 213 q 174 608 92 507 q 411 722 257 708 l 411 843 l 501 843 l 501 722 q 697 643 621 710 q 785 479 774 576 l 638 479 q 457 593 603 593 z "},"£":{"ha":897,"x_min":58,"x_max":775,"o":"m 775 126 l 775 -3 l 132 -3 l 104 83 q 190 208 163 146 q 218 361 218 269 q 211 419 218 389 l 58 419 l 58 529 l 176 529 q 147 699 147 617 q 235 920 147 839 q 467 1001 322 1001 q 688 918 611 1001 q 767 706 764 835 l 622 706 q 583 824 622 781 q 466 868 544 868 q 342 825 388 868 q 297 703 297 782 q 329 529 297 625 l 599 529 l 599 419 l 361 419 q 368 360 368 388 q 275 126 368 225 l 775 126 z "},"¤":{"ha":761,"x_min":83,"x_max":678,"o":"m 596 669 q 639 524 639 607 q 596 381 639 440 l 678 299 l 608 228 l 522 313 q 380 276 461 276 q 238 311 299 276 l 154 228 l 83 299 l 164 381 q 124 525 124 440 q 167 669 124 610 l 83 751 l 154 822 l 240 736 q 381 771 303 771 q 522 736 460 771 l 608 822 l 678 751 l 596 669 m 285 410 q 304 390 285 410 q 378 369 322 369 q 473 410 433 369 q 513 524 513 450 q 474 638 513 597 q 379 679 435 679 q 286 638 324 679 q 249 524 249 597 q 285 410 249 450 z "},"¥":{"ha":840,"x_min":21,"x_max":819,"o":"m 778 549 l 778 435 l 543 432 l 500 350 l 500 308 l 778 308 l 778 194 l 500 194 l 500 0 l 342 0 l 342 194 l 64 194 l 64 308 l 342 308 l 342 350 l 299 432 l 64 435 l 64 549 l 238 549 l 21 965 l 197 965 l 419 494 l 642 965 l 819 965 l 603 549 l 778 549 z "},"¦":{"ha":450,"x_min":146,"x_max":304,"o":"m 304 574 l 146 574 l 146 1113 l 304 1113 l 304 574 m 146 382 l 304 382 l 304 -157 l 146 -157 l 146 382 z "},"§":{"ha":803,"x_min":57,"x_max":746,"o":"m 692 743 l 533 743 q 400 863 524 863 q 261 756 261 863 q 304 678 261 708 q 481 599 347 647 q 681 492 615 551 q 746 339 746 432 q 576 117 746 188 q 700 -58 700 46 q 619 -228 700 -161 q 406 -294 538 -294 q 192 -234 274 -294 q 111 -65 111 -174 l 269 -65 q 403 -185 279 -185 q 542 -78 542 -185 q 499 0 542 -31 q 322 78 456 31 q 122 186 188 126 q 57 331 57 246 q 228 561 57 499 q 103 735 103 632 q 184 906 103 839 q 397 972 265 972 q 610 912 529 972 q 692 743 692 851 m 400 483 q 359 483 400 483 q 269 442 318 483 q 219 340 219 400 q 270 237 219 279 q 403 194 321 194 q 535 236 486 194 q 583 339 583 278 q 533 442 583 400 q 400 483 482 483 z "},"¨":{"ha":433,"x_min":14,"x_max":419,"o":"m 419 944 q 419 927 419 944 q 395 885 419 910 q 335 861 371 861 q 276 885 300 861 q 253 944 253 908 q 277 1003 253 979 q 336 1028 301 1028 q 395 1003 371 1028 q 419 944 419 979 m 181 944 q 181 927 181 944 q 156 885 181 910 q 97 861 132 861 q 38 885 61 861 q 14 944 14 908 q 38 1003 14 979 q 97 1028 63 1028 q 156 1003 132 1028 q 181 944 181 979 z "},"©":{"ha":1096,"x_min":64,"x_max":1032,"o":"m 897 840 q 965 770 897 840 q 1032 483 1032 701 q 897 126 1032 265 q 548 -12 763 -12 q 199 126 333 -12 q 64 483 64 265 q 199 840 64 701 q 548 978 333 978 q 897 840 763 978 m 548 915 q 452 915 548 915 q 245 798 357 915 q 133 484 133 681 q 246 169 133 288 q 548 50 358 50 q 850 169 738 50 q 963 484 963 288 q 851 798 963 681 q 548 915 739 915 m 544 165 q 328 253 415 165 q 242 485 242 342 q 328 715 242 628 q 533 803 414 803 q 728 749 653 803 q 829 599 803 696 l 685 599 q 544 690 656 690 q 426 638 471 690 q 382 485 382 585 q 426 331 382 385 q 544 278 471 278 q 685 369 649 278 l 829 369 q 726 222 803 278 q 544 165 650 165 z "},"ª":{"ha":633,"x_min":43,"x_max":575,"o":"m 410 619 q 431 640 410 619 q 451 733 451 661 q 410 847 451 806 q 311 889 369 889 q 212 847 253 889 q 171 734 171 806 q 213 620 171 663 q 312 578 254 578 q 410 619 369 578 m 276 482 q 110 554 178 482 q 43 735 43 626 q 110 915 43 844 q 276 985 178 985 q 451 892 401 985 l 451 976 l 575 976 l 575 490 l 451 490 l 451 575 q 276 482 400 482 z "},"«":{"ha":679,"x_min":63,"x_max":610,"o":"m 476 410 l 610 167 l 457 167 l 329 410 l 457 653 l 610 653 l 476 410 m 210 410 l 343 167 l 190 167 l 63 410 l 190 653 l 343 653 l 210 410 z "},"¬":{"ha":1039,"x_min":57,"x_max":964,"o":"m 57 481 l 57 604 l 964 604 l 964 289 l 806 289 l 806 481 l 57 481 z "},"­":{"ha":813,"x_min":121,"x_max":692,"o":"m 121 436 l 121 569 l 692 569 l 692 436 l 121 436 z "},"®":{"ha":1096,"x_min":64,"x_max":1051,"o":"m 201 840 q 270 909 201 840 q 558 978 339 978 q 915 840 778 978 q 1051 483 1051 701 q 915 126 1051 265 q 558 -12 778 -12 q 201 126 339 -12 q 64 483 64 265 q 201 840 64 701 m 133 484 q 133 386 133 484 q 248 169 133 288 q 558 50 363 50 q 867 169 753 50 q 982 484 982 288 q 868 798 982 681 q 558 915 754 915 q 248 798 363 915 q 133 484 133 681 m 357 811 l 575 811 q 741 758 683 811 q 799 631 799 704 q 760 506 799 557 q 640 440 721 456 l 808 178 l 683 178 l 525 435 l 460 435 l 460 178 l 357 178 l 357 811 m 460 731 l 460 514 l 575 514 q 665 543 635 514 q 694 622 694 572 q 575 731 694 731 l 460 731 z "},"¯":{"ha":536,"x_min":14,"x_max":522,"o":"m 14 882 l 14 1000 l 522 1000 l 522 882 l 14 882 z "},"°":{"ha":593,"x_min":39,"x_max":554,"o":"m 388 615 q 408 635 388 615 q 428 729 428 656 q 389 844 428 803 q 295 885 350 885 q 202 844 240 885 q 164 728 164 803 q 201 615 164 654 q 293 575 238 575 q 388 615 349 575 m 109 550 q 74 584 109 550 q 39 729 39 618 q 111 908 39 840 q 297 975 183 975 q 482 908 410 975 q 554 729 554 840 q 481 550 554 618 q 293 482 407 482 q 109 550 179 482 z "},"±":{"ha":996,"x_min":144,"x_max":851,"o":"m 851 513 l 574 513 l 574 313 l 851 313 l 851 172 l 144 172 l 144 313 l 422 313 l 422 513 l 144 513 l 144 654 l 422 654 l 422 863 l 574 863 l 574 654 l 851 654 l 851 513 z "},"²":{"ha":472,"x_min":38,"x_max":414,"o":"m 414 589 l 414 489 l 40 489 l 40 581 l 190 690 q 282 824 282 761 q 265 874 282 856 q 221 893 247 893 q 163 840 169 893 l 38 840 q 90 947 40 907 q 224 988 139 988 q 361 941 310 988 q 413 837 413 894 q 383 740 413 779 q 282 654 353 701 l 181 589 l 414 589 z "},"³":{"ha":475,"x_min":25,"x_max":429,"o":"m 31 846 q 90 948 36 908 q 228 988 144 988 q 368 945 311 988 q 425 842 425 903 q 340 735 425 760 l 340 732 q 429 619 429 700 q 372 522 429 561 q 225 482 314 482 q 82 523 136 482 q 25 635 28 564 l 147 635 q 224 574 158 574 q 276 590 256 574 q 296 635 296 607 q 275 680 296 664 q 221 696 254 696 l 169 696 l 169 776 l 217 776 q 292 835 292 776 q 273 878 292 863 q 221 894 254 894 q 149 846 163 894 l 31 846 z "},"´":{"ha":335,"x_min":14,"x_max":321,"o":"m 14 936 l 321 1106 l 321 971 l 14 819 l 14 936 z "},"µ":{"ha":908,"x_min":104,"x_max":804,"o":"m 646 765 l 804 765 l 804 0 l 646 0 l 646 121 q 401 -11 571 -11 q 261 32 318 -11 l 261 -364 l 104 -364 l 104 765 l 261 765 l 261 338 q 313 180 261 235 q 453 125 364 125 q 594 180 542 125 q 646 338 646 235 l 646 765 z "},"¶":{"ha":875,"x_min":49,"x_max":771,"o":"m 378 965 l 771 965 l 771 0 l 631 0 l 631 842 l 538 842 l 538 0 l 397 0 l 397 392 l 378 392 q 131 472 214 392 q 49 678 49 551 q 132 885 49 804 q 378 965 215 965 z "},"·":{"ha":339,"x_min":74,"x_max":264,"o":"m 236 401 q 222 387 236 401 q 168 374 208 374 q 101 401 128 374 q 74 468 74 428 q 101 536 74 508 q 168 564 128 564 q 236 536 208 564 q 264 468 264 508 q 236 401 264 428 z "},"¸":{"ha":388,"x_min":14,"x_max":374,"o":"m 193 10 l 193 -67 q 324 -105 274 -67 q 374 -212 374 -143 q 324 -323 374 -282 q 197 -364 274 -364 l 14 -364 l 14 -264 l 165 -264 q 224 -253 204 -264 q 243 -212 243 -242 q 224 -172 243 -183 q 165 -161 204 -161 l 89 -161 l 89 10 l 193 10 z "},"¹":{"ha":290,"x_min":28,"x_max":226,"o":"m 103 489 l 103 883 l 28 883 l 28 978 l 226 978 l 226 489 l 103 489 z "},"º":{"ha":617,"x_min":43,"x_max":574,"o":"m 306 575 q 334 575 306 575 q 404 617 363 575 q 446 733 446 658 q 405 851 446 808 q 307 893 364 893 q 210 851 250 893 q 171 733 171 810 q 210 616 171 657 q 306 575 249 575 m 305 482 q 248 482 305 482 q 117 551 190 482 q 43 734 43 621 q 118 916 43 847 q 308 985 193 985 q 499 916 424 985 q 574 735 574 847 q 497 552 574 622 q 305 482 419 482 z "},"»":{"ha":679,"x_min":69,"x_max":617,"o":"m 221 167 l 69 167 l 201 410 l 69 653 l 221 653 l 350 410 l 221 167 m 488 167 l 336 167 l 468 410 l 336 653 l 488 653 l 617 410 l 488 167 z "},"¼":{"ha":947,"x_min":47,"x_max":893,"o":"m 122 489 l 122 883 l 47 883 l 47 978 l 246 978 l 246 489 l 122 489 m 710 171 l 710 396 l 572 171 l 710 171 m 831 171 l 893 171 l 893 93 l 831 93 l 831 0 l 707 0 l 707 93 l 449 93 l 449 163 l 658 490 l 831 490 l 831 171 m 88 0 l 619 967 l 768 967 l 238 0 l 88 0 z "},"½":{"ha":974,"x_min":47,"x_max":913,"o":"m 913 99 l 913 -1 l 539 -1 l 539 90 l 689 200 q 781 333 781 271 q 763 384 781 365 q 719 403 746 403 q 661 350 668 403 l 536 350 q 588 457 539 417 q 723 497 638 497 q 860 451 808 497 q 911 347 911 404 q 881 250 911 289 q 781 164 851 211 l 679 99 l 913 99 m 603 967 l 753 967 l 238 0 l 88 0 l 603 967 m 122 489 l 122 883 l 47 883 l 47 978 l 246 978 l 246 489 l 122 489 z "},"¾":{"ha":1031,"x_min":46,"x_max":994,"o":"m 51 846 q 111 948 57 908 q 249 988 165 988 q 389 945 332 988 q 446 842 446 903 q 361 735 446 760 l 361 732 q 450 619 450 700 q 392 522 450 561 q 246 482 335 482 q 103 523 157 482 q 46 635 49 564 l 168 635 q 244 574 179 574 q 297 590 276 574 q 317 635 317 607 q 296 680 317 664 q 242 696 275 696 l 190 696 l 190 776 l 238 776 q 313 835 313 776 q 294 878 313 863 q 242 894 275 894 q 169 846 183 894 l 51 846 m 811 171 l 811 396 l 674 171 l 811 171 m 932 171 l 994 171 l 994 93 l 932 93 l 932 0 l 808 0 l 808 93 l 550 93 l 550 163 l 760 490 l 932 490 l 932 171 m 193 0 l 751 967 l 900 967 l 342 0 l 193 0 z "},"¿":{"ha":879,"x_min":125,"x_max":747,"o":"m 589 750 q 603 736 589 750 q 617 682 617 722 q 589 614 617 642 q 522 586 561 586 q 454 614 482 586 q 426 682 426 642 q 454 750 426 722 q 522 778 482 778 q 589 750 561 778 m 746 17 q 663 -190 747 -111 q 437 -269 578 -269 q 210 -192 296 -269 q 125 28 125 -114 q 207 236 125 171 q 450 303 289 301 l 450 472 l 600 472 l 600 194 l 533 194 q 340 160 403 196 q 276 21 276 125 q 319 -94 276 -53 q 436 -136 361 -136 q 554 -96 511 -136 q 597 17 597 -56 l 746 17 z "},"À":{"ha":968,"x_min":47,"x_max":922,"o":"m 756 0 l 686 197 l 282 197 l 213 0 l 47 0 l 393 967 l 576 967 l 922 0 l 756 0 m 325 321 l 643 321 l 485 775 l 325 321 m 628 1138 l 628 1021 l 321 1172 l 321 1307 l 628 1138 z "},"Á":{"ha":968,"x_min":47,"x_max":922,"o":"m 756 0 l 686 197 l 282 197 l 213 0 l 47 0 l 393 967 l 576 967 l 922 0 l 756 0 m 325 321 l 643 321 l 485 775 l 325 321 m 628 1307 l 628 1172 l 321 1021 l 321 1138 l 628 1307 z "},"Â":{"ha":968,"x_min":47,"x_max":922,"o":"m 756 0 l 686 197 l 282 197 l 213 0 l 47 0 l 393 967 l 576 967 l 922 0 l 756 0 m 325 321 l 643 321 l 485 775 l 325 321 m 683 1029 l 485 1149 l 286 1029 l 286 1153 l 485 1268 l 683 1153 l 683 1029 z "},"Ã":{"ha":968,"x_min":47,"x_max":922,"o":"m 756 0 l 686 197 l 282 197 l 213 0 l 47 0 l 393 967 l 576 967 l 922 0 l 756 0 m 325 321 l 643 321 l 485 775 l 325 321 m 725 1206 q 672 1084 714 1125 q 579 1043 631 1043 q 480 1074 528 1043 q 407 1106 432 1106 q 347 1046 356 1106 l 258 1046 q 311 1167 269 1126 q 404 1208 353 1208 q 503 1178 456 1208 q 576 1147 551 1147 q 636 1206 628 1147 l 725 1206 z "},"Ä":{"ha":968,"x_min":47,"x_max":922,"o":"m 756 0 l 686 197 l 282 197 l 213 0 l 47 0 l 393 967 l 576 967 l 922 0 l 756 0 m 325 321 l 643 321 l 485 775 l 325 321 m 424 1087 q 412 1075 424 1087 q 365 1063 400 1063 q 306 1087 331 1063 q 282 1146 282 1111 q 306 1205 282 1181 q 365 1229 331 1229 q 424 1205 400 1229 q 449 1146 449 1181 q 424 1087 449 1111 m 663 1087 q 651 1075 663 1087 q 604 1063 639 1063 q 545 1087 569 1063 q 521 1146 521 1111 q 545 1205 521 1181 q 604 1229 569 1229 q 663 1205 639 1229 q 688 1146 688 1181 q 663 1087 688 1111 z "},"Å":{"ha":968,"x_min":47,"x_max":922,"o":"m 756 0 l 686 197 l 282 197 l 213 0 l 47 0 l 393 967 l 576 967 l 922 0 l 756 0 m 325 321 l 643 321 l 485 775 l 325 321 m 636 1194 q 636 1159 636 1194 q 593 1083 636 1125 q 485 1042 550 1042 q 377 1083 421 1042 q 333 1194 333 1125 q 377 1304 333 1263 q 485 1346 421 1346 q 593 1304 550 1346 q 636 1194 636 1263 m 536 1246 q 526 1256 536 1246 q 485 1265 515 1265 q 434 1246 454 1265 q 414 1195 414 1226 q 435 1144 414 1164 q 485 1124 456 1124 q 536 1144 515 1124 q 557 1195 557 1164 q 536 1246 557 1226 z "},"Æ":{"ha":1279,"x_min":17,"x_max":1188,"o":"m 1188 843 l 814 843 l 814 550 l 1146 550 l 1146 428 l 814 428 l 814 124 l 1188 124 l 1188 0 l 656 0 l 656 197 l 296 197 l 189 0 l 17 0 l 549 967 l 1188 967 l 1188 843 m 656 321 l 656 857 l 364 321 l 656 321 z "},"Ç":{"ha":1074,"x_min":51,"x_max":993,"o":"m 544 833 q 306 738 399 833 q 214 484 214 642 q 306 231 214 326 q 544 135 399 135 q 803 281 725 135 l 993 281 q 838 79 943 153 q 594 -6 732 6 l 594 -67 q 725 -105 675 -67 q 775 -212 775 -143 q 725 -323 775 -282 q 599 -364 675 -364 l 415 -364 l 415 -264 l 567 -264 q 625 -253 606 -264 q 644 -212 644 -242 q 625 -172 644 -183 q 567 -161 606 -161 l 490 -161 l 490 -6 q 176 149 301 14 q 51 492 51 285 q 194 838 51 699 q 544 978 338 978 q 819 902 699 978 q 993 688 939 826 l 803 688 q 544 833 725 833 z "},"È":{"ha":728,"x_min":104,"x_max":638,"o":"m 200 1172 l 200 1307 l 507 1138 l 507 1021 l 200 1172 m 638 967 l 638 843 l 263 843 l 263 550 l 596 550 l 596 428 l 263 428 l 263 124 l 638 124 l 638 0 l 104 0 l 104 967 l 638 967 z "},"É":{"ha":728,"x_min":104,"x_max":638,"o":"m 638 967 l 638 843 l 263 843 l 263 550 l 596 550 l 596 428 l 263 428 l 263 124 l 638 124 l 638 0 l 104 0 l 104 967 l 638 967 m 200 1138 l 507 1307 l 507 1172 l 200 1021 l 200 1138 z "},"Ê":{"ha":728,"x_min":104,"x_max":638,"o":"m 638 967 l 638 843 l 263 843 l 263 550 l 596 550 l 596 428 l 263 428 l 263 124 l 638 124 l 638 0 l 104 0 l 104 967 l 638 967 m 563 1153 l 563 1029 l 364 1149 l 165 1029 l 165 1153 l 364 1268 l 563 1153 z "},"Ë":{"ha":728,"x_min":104,"x_max":638,"o":"m 638 967 l 638 843 l 263 843 l 263 550 l 596 550 l 596 428 l 263 428 l 263 124 l 638 124 l 638 0 l 104 0 l 104 967 l 638 967 m 567 1146 q 567 1128 567 1146 q 542 1087 567 1111 q 483 1063 518 1063 q 424 1087 447 1063 q 400 1146 400 1111 q 424 1205 400 1181 q 483 1229 449 1229 q 542 1205 518 1229 q 567 1146 567 1181 m 328 1146 q 328 1128 328 1146 q 303 1087 328 1111 q 244 1063 279 1063 q 185 1087 208 1063 q 161 1146 161 1111 q 185 1205 161 1181 q 244 1229 210 1229 q 303 1205 279 1229 q 328 1146 328 1181 z "},"Ì":{"ha":367,"x_min":19,"x_max":326,"o":"m 19 1172 l 19 1307 l 326 1138 l 326 1021 l 19 1172 m 104 0 l 104 965 l 263 965 l 263 0 l 104 0 z "},"Í":{"ha":367,"x_min":19,"x_max":326,"o":"m 19 1138 l 326 1307 l 326 1172 l 19 1021 l 19 1138 m 104 0 l 104 965 l 263 965 l 263 0 l 104 0 z "},"Î":{"ha":367,"x_min":-15,"x_max":382,"o":"m 382 1153 l 382 1029 l 183 1149 l -15 1029 l -15 1153 l 183 1268 l 382 1153 m 104 0 l 104 965 l 263 965 l 263 0 l 104 0 z "},"Ï":{"ha":367,"x_min":-19,"x_max":386,"o":"m 386 1146 q 386 1128 386 1146 q 362 1087 386 1111 q 302 1063 338 1063 q 243 1087 267 1063 q 219 1146 219 1111 q 244 1205 219 1181 q 303 1229 268 1229 q 362 1205 338 1229 q 386 1146 386 1181 m 147 1146 q 147 1128 147 1146 q 123 1087 147 1111 q 63 1063 99 1063 q 4 1087 28 1063 q -19 1146 -19 1111 q 5 1205 -19 1181 q 64 1229 29 1229 q 123 1205 99 1229 q 147 1146 147 1181 m 104 0 l 104 965 l 263 965 l 263 0 l 104 0 z "},"Ð":{"ha":1000,"x_min":13,"x_max":947,"o":"m 119 965 l 436 965 q 808 834 669 965 q 947 480 947 703 q 808 128 947 257 q 436 0 669 0 l 119 0 l 119 407 l 13 407 l 13 553 l 119 553 l 119 965 m 279 121 l 436 121 q 694 217 604 121 q 785 480 785 313 q 694 742 785 647 q 436 838 604 838 l 279 838 l 279 553 l 526 553 l 526 407 l 279 407 l 279 121 z "},"Ñ":{"ha":1001,"x_min":104,"x_max":897,"o":"m 275 1046 q 328 1167 286 1126 q 421 1208 369 1208 q 520 1178 472 1208 q 593 1147 568 1147 q 653 1206 644 1147 l 742 1206 q 689 1084 731 1125 q 596 1043 647 1043 q 497 1074 544 1043 q 424 1106 449 1106 q 364 1046 372 1106 l 275 1046 m 739 967 l 897 967 l 897 0 l 739 0 l 263 721 l 263 0 l 104 0 l 104 967 l 263 967 l 739 247 l 739 967 z "},"Ò":{"ha":1089,"x_min":51,"x_max":1038,"o":"m 381 1172 l 381 1307 l 688 1138 l 688 1021 l 381 1172 m 544 133 q 617 133 544 133 q 783 230 690 133 q 875 484 875 326 q 783 738 875 642 q 544 833 690 833 q 306 738 399 833 q 214 484 214 642 q 306 230 214 326 q 544 133 399 133 m 545 -10 q 441 -10 545 -10 q 194 130 338 -10 q 51 484 51 269 q 194 838 51 699 q 545 978 338 978 q 895 838 753 978 q 1038 484 1038 699 q 895 130 1038 269 q 545 -10 753 -10 z "},"Ó":{"ha":1089,"x_min":51,"x_max":1038,"o":"m 544 133 q 617 133 544 133 q 783 230 690 133 q 875 484 875 326 q 783 738 875 642 q 544 833 690 833 q 306 738 399 833 q 214 484 214 642 q 306 230 214 326 q 544 133 399 133 m 545 -10 q 441 -10 545 -10 q 194 130 338 -10 q 51 484 51 269 q 194 838 51 699 q 545 978 338 978 q 895 838 753 978 q 1038 484 1038 699 q 895 130 1038 269 q 545 -10 753 -10 m 381 1138 l 688 1307 l 688 1172 l 381 1021 l 381 1138 z "},"Ô":{"ha":1089,"x_min":51,"x_max":1038,"o":"m 544 133 q 617 133 544 133 q 783 230 690 133 q 875 484 875 326 q 783 738 875 642 q 544 833 690 833 q 306 738 399 833 q 214 484 214 642 q 306 230 214 326 q 544 133 399 133 m 545 -10 q 441 -10 545 -10 q 194 130 338 -10 q 51 484 51 269 q 194 838 51 699 q 545 978 338 978 q 895 838 753 978 q 1038 484 1038 699 q 895 130 1038 269 q 545 -10 753 -10 m 743 1153 l 743 1029 l 544 1149 l 346 1029 l 346 1153 l 544 1268 l 743 1153 z "},"Õ":{"ha":1089,"x_min":51,"x_max":1038,"o":"m 318 1046 q 371 1167 329 1126 q 464 1208 413 1208 q 563 1178 515 1208 q 636 1147 611 1147 q 696 1206 688 1147 l 785 1206 q 732 1084 774 1125 q 639 1043 690 1043 q 540 1074 588 1043 q 467 1106 492 1106 q 407 1046 415 1106 l 318 1046 m 544 133 q 617 133 544 133 q 783 230 690 133 q 875 484 875 326 q 783 738 875 642 q 544 833 690 833 q 306 738 399 833 q 214 484 214 642 q 306 230 214 326 q 544 133 399 133 m 545 -10 q 441 -10 545 -10 q 194 130 338 -10 q 51 484 51 269 q 194 838 51 699 q 545 978 338 978 q 895 838 753 978 q 1038 484 1038 699 q 895 130 1038 269 q 545 -10 753 -10 z "},"Ö":{"ha":1089,"x_min":51,"x_max":1038,"o":"m 544 133 q 617 133 544 133 q 783 230 690 133 q 875 484 875 326 q 783 738 875 642 q 544 833 690 833 q 306 738 399 833 q 214 484 214 642 q 306 230 214 326 q 544 133 399 133 m 545 -10 q 441 -10 545 -10 q 194 130 338 -10 q 51 484 51 269 q 194 838 51 699 q 545 978 338 978 q 895 838 753 978 q 1038 484 1038 699 q 895 130 1038 269 q 545 -10 753 -10 m 747 1146 q 747 1128 747 1146 q 723 1087 747 1111 q 663 1063 699 1063 q 604 1087 628 1063 q 581 1146 581 1111 q 605 1205 581 1181 q 664 1229 629 1229 q 723 1205 699 1229 q 747 1146 747 1181 m 508 1146 q 508 1128 508 1146 q 484 1087 508 1111 q 424 1063 460 1063 q 365 1087 389 1063 q 342 1146 342 1111 q 366 1205 342 1181 q 425 1229 390 1229 q 484 1205 460 1229 q 508 1146 508 1181 z "},"×":{"ha":971,"x_min":171,"x_max":799,"o":"m 799 293 l 697 192 l 486 403 l 275 192 l 171 296 l 383 507 l 176 714 l 278 815 l 485 608 l 692 815 l 796 711 l 589 504 l 799 293 z "},"Ø":{"ha":1089,"x_min":36,"x_max":1053,"o":"m 915 818 q 1038 475 1038 681 q 895 130 1038 269 q 544 -10 753 -10 q 243 88 372 -10 l 163 0 l 36 0 l 175 150 q 51 494 51 289 q 194 838 51 699 q 544 978 338 978 q 847 881 718 978 l 926 967 l 1053 967 l 915 818 m 544 833 q 306 738 399 833 q 214 485 214 642 q 279 264 214 356 l 746 771 q 544 833 661 833 m 544 133 q 783 230 690 133 q 875 485 875 326 q 811 704 875 611 l 344 197 q 544 133 428 133 z "},"Ù":{"ha":958,"x_min":103,"x_max":857,"o":"m 315 1172 l 315 1307 l 622 1138 l 622 1021 l 315 1172 m 103 353 l 103 965 l 261 965 l 261 353 q 319 188 261 243 q 480 132 376 132 q 641 188 583 132 q 699 353 699 243 l 699 965 l 857 965 l 857 353 q 748 84 857 178 q 477 -10 639 -10 q 209 83 315 -10 q 103 353 103 176 z "},"Ú":{"ha":958,"x_min":103,"x_max":857,"o":"m 103 353 l 103 965 l 261 965 l 261 353 q 319 188 261 243 q 480 132 376 132 q 641 188 583 132 q 699 353 699 243 l 699 965 l 857 965 l 857 353 q 748 84 857 178 q 477 -10 639 -10 q 209 83 315 -10 q 103 353 103 176 m 315 1138 l 622 1307 l 622 1172 l 315 1021 l 315 1138 z "},"Û":{"ha":958,"x_min":103,"x_max":857,"o":"m 103 353 l 103 965 l 261 965 l 261 353 q 319 188 261 243 q 480 132 376 132 q 641 188 583 132 q 699 353 699 243 l 699 965 l 857 965 l 857 353 q 748 84 857 178 q 477 -10 639 -10 q 209 83 315 -10 q 103 353 103 176 m 678 1153 l 678 1029 l 479 1149 l 281 1029 l 281 1153 l 479 1268 l 678 1153 z "},"Ü":{"ha":958,"x_min":103,"x_max":857,"o":"m 103 353 l 103 965 l 261 965 l 261 353 q 319 188 261 243 q 480 132 376 132 q 641 188 583 132 q 699 353 699 243 l 699 965 l 857 965 l 857 353 q 748 84 857 178 q 477 -10 639 -10 q 209 83 315 -10 q 103 353 103 176 m 658 1087 q 645 1075 658 1087 q 599 1063 633 1063 q 540 1087 564 1063 q 515 1146 515 1111 q 540 1205 515 1181 q 599 1229 564 1229 q 658 1205 633 1229 q 682 1146 682 1181 q 658 1087 682 1111 m 419 1087 q 407 1075 419 1087 q 360 1063 394 1063 q 301 1087 325 1063 q 276 1146 276 1111 q 301 1205 276 1181 q 360 1229 325 1229 q 419 1205 394 1229 q 443 1146 443 1181 q 419 1087 443 1111 z "},"Ý":{"ha":840,"x_min":21,"x_max":819,"o":"m 500 0 l 342 0 l 342 350 l 21 965 l 197 965 l 419 494 l 642 965 l 819 965 l 500 350 l 500 0 m 564 1307 l 564 1172 l 257 1021 l 257 1138 l 564 1307 z "},"Þ":{"ha":826,"x_min":104,"x_max":779,"o":"m 438 771 q 690 690 601 771 q 779 487 779 608 q 695 281 779 365 q 438 197 611 197 l 263 197 l 263 0 l 104 0 l 104 967 l 261 967 l 261 771 l 438 771 m 263 321 l 438 321 q 572 364 528 321 q 617 483 617 407 q 572 603 617 560 q 438 647 528 647 l 263 647 l 263 321 z "},"ß":{"ha":947,"x_min":104,"x_max":910,"o":"m 910 256 q 826 62 910 136 q 628 -12 742 -12 q 437 56 515 -12 q 358 239 358 124 l 492 239 q 531 156 497 186 q 622 126 564 126 q 713 165 679 126 q 747 251 747 203 q 722 335 747 300 q 640 404 697 369 l 424 538 l 424 613 l 464 635 q 543 767 543 678 q 504 865 543 825 q 405 904 465 904 q 303 863 344 904 q 263 754 263 822 l 263 0 l 104 0 l 104 751 q 189 963 104 885 q 413 1042 274 1042 q 629 970 553 1042 q 706 800 706 899 q 586 618 706 685 l 724 535 q 867 410 824 474 q 910 256 910 347 z "},"à":{"ha":942,"x_min":51,"x_max":838,"o":"m 307 971 l 307 1106 l 614 936 l 614 819 l 307 971 m 609 195 q 643 230 609 195 q 678 383 678 265 q 609 571 678 501 q 446 640 540 640 q 283 572 351 640 q 214 386 214 504 q 283 197 214 268 q 446 125 351 125 q 609 195 540 125 m 413 -12 q 156 99 260 -12 q 51 385 51 211 q 155 669 51 560 q 413 778 258 778 q 572 737 503 778 q 678 629 640 696 l 678 765 l 838 765 l 838 0 l 678 0 l 678 143 q 571 30 639 72 q 413 -12 503 -12 z "},"á":{"ha":942,"x_min":51,"x_max":838,"o":"m 307 936 l 614 1106 l 614 971 l 307 819 l 307 936 m 609 195 q 643 230 609 195 q 678 383 678 265 q 609 571 678 501 q 446 640 540 640 q 283 572 351 640 q 214 386 214 504 q 283 197 214 268 q 446 125 351 125 q 609 195 540 125 m 413 -12 q 156 99 260 -12 q 51 385 51 211 q 155 669 51 560 q 413 778 258 778 q 572 737 503 778 q 678 629 640 696 l 678 765 l 838 765 l 838 0 l 678 0 l 678 143 q 571 30 639 72 q 413 -12 503 -12 z "},"â":{"ha":942,"x_min":51,"x_max":838,"o":"m 669 951 l 669 828 l 471 947 l 272 828 l 272 951 l 471 1067 l 669 951 m 609 195 q 643 230 609 195 q 678 383 678 265 q 609 571 678 501 q 446 640 540 640 q 283 572 351 640 q 214 386 214 504 q 283 197 214 268 q 446 125 351 125 q 609 195 540 125 m 413 -12 q 156 99 260 -12 q 51 385 51 211 q 155 669 51 560 q 413 778 258 778 q 572 737 503 778 q 678 629 640 696 l 678 765 l 838 765 l 838 0 l 678 0 l 678 143 q 571 30 639 72 q 413 -12 503 -12 z "},"ã":{"ha":942,"x_min":51,"x_max":838,"o":"m 244 844 q 297 966 256 925 q 390 1007 339 1007 q 490 976 442 1007 q 563 946 538 946 q 622 1004 614 946 l 711 1004 q 658 883 700 924 q 565 842 617 842 q 466 873 514 842 q 393 904 418 904 q 333 844 342 904 l 244 844 m 609 195 q 643 230 609 195 q 678 383 678 265 q 609 571 678 501 q 446 640 540 640 q 283 572 351 640 q 214 386 214 504 q 283 197 214 268 q 446 125 351 125 q 609 195 540 125 m 413 -12 q 156 99 260 -12 q 51 385 51 211 q 155 669 51 560 q 413 778 258 778 q 572 737 503 778 q 678 629 640 696 l 678 765 l 838 765 l 838 0 l 678 0 l 678 143 q 571 30 639 72 q 413 -12 503 -12 z "},"ä":{"ha":942,"x_min":51,"x_max":838,"o":"m 649 885 q 637 873 649 885 q 590 861 625 861 q 531 885 556 861 q 507 944 507 908 q 531 1003 507 979 q 590 1028 556 1028 q 649 1003 625 1028 q 674 944 674 979 q 649 885 674 910 m 410 885 q 398 873 410 885 q 351 861 386 861 q 292 885 317 861 q 268 944 268 908 q 292 1003 268 979 q 351 1028 317 1028 q 410 1003 386 1028 q 435 944 435 979 q 410 885 435 910 m 609 195 q 643 230 609 195 q 678 383 678 265 q 609 571 678 501 q 446 640 540 640 q 283 572 351 640 q 214 386 214 504 q 283 197 214 268 q 446 125 351 125 q 609 195 540 125 m 413 -12 q 156 99 260 -12 q 51 385 51 211 q 155 669 51 560 q 413 778 258 778 q 572 737 503 778 q 678 629 640 696 l 678 765 l 838 765 l 838 0 l 678 0 l 678 143 q 571 30 639 72 q 413 -12 503 -12 z "},"å":{"ha":942,"x_min":51,"x_max":838,"o":"m 472 922 q 486 922 472 922 q 522 942 501 922 q 543 994 543 963 q 522 1044 543 1025 q 471 1064 501 1064 q 420 1044 440 1064 q 400 994 400 1025 q 421 942 400 963 q 472 922 442 922 m 472 840 q 439 840 472 840 q 363 882 407 840 q 319 992 319 924 q 363 1103 319 1061 q 472 1144 407 1144 q 579 1103 536 1144 q 622 992 622 1061 q 579 882 622 924 q 472 840 536 840 m 609 195 q 643 230 609 195 q 678 383 678 265 q 609 571 678 501 q 446 640 540 640 q 283 572 351 640 q 214 386 214 504 q 283 197 214 268 q 446 125 351 125 q 609 195 540 125 m 413 -12 q 156 99 260 -12 q 51 385 51 211 q 155 669 51 560 q 413 778 258 778 q 572 737 503 778 q 678 629 640 696 l 678 765 l 838 765 l 838 0 l 678 0 l 678 143 q 571 30 639 72 q 413 -12 503 -12 z "},"æ":{"ha":1511,"x_min":51,"x_max":1460,"o":"m 835 765 l 835 649 q 1094 778 931 778 q 1359 673 1258 778 q 1460 404 1460 568 q 1454 329 1460 364 l 856 329 q 933 176 868 231 q 1079 121 997 121 q 1263 228 1217 121 l 1435 228 q 1313 55 1400 122 q 1100 -12 1225 -12 q 945 25 1017 -12 q 835 125 874 63 l 835 0 l 676 0 l 676 125 q 422 -12 583 -12 q 156 99 260 -12 q 51 386 51 211 q 156 669 51 561 q 426 778 261 778 q 676 649 590 778 l 676 765 l 835 765 m 283 197 q 317 161 283 197 q 446 125 351 125 q 609 195 540 125 q 678 383 678 265 q 609 571 678 501 q 446 640 540 640 q 283 572 351 640 q 214 386 214 504 q 283 197 214 268 m 1296 438 q 1235 588 1294 532 q 1085 644 1175 644 q 931 587 996 644 q 856 438 867 529 l 1296 438 z "},"ç":{"ha":833,"x_min":51,"x_max":779,"o":"m 426 644 q 272 576 329 644 q 214 383 214 507 q 272 190 214 260 q 426 121 329 121 q 608 242 564 121 l 779 242 q 670 69 749 136 q 474 -10 592 1 l 474 -67 q 604 -105 554 -67 q 654 -212 654 -143 q 604 -323 654 -282 q 478 -364 554 -364 l 294 -364 l 294 -264 l 446 -264 q 504 -253 485 -264 q 524 -212 524 -242 q 504 -172 524 -183 q 446 -161 485 -161 l 369 -161 l 369 -8 q 139 115 226 10 q 51 391 51 221 q 156 669 51 561 q 426 778 261 778 q 656 712 565 778 q 779 524 747 646 l 608 524 q 426 644 565 644 z "},"è":{"ha":857,"x_min":51,"x_max":806,"o":"m 426 -12 q 156 96 260 -12 q 51 383 51 204 q 157 670 51 563 q 430 778 263 778 q 701 674 597 778 q 806 404 806 571 q 800 329 806 364 l 214 329 q 278 177 219 233 q 426 121 338 121 q 608 228 556 121 l 779 228 q 653 55 744 122 q 426 -12 561 -12 m 640 438 q 578 588 639 532 q 429 644 517 644 q 283 588 342 644 q 215 438 224 532 l 640 438 m 571 936 l 571 819 l 264 971 l 264 1106 l 571 936 z "},"é":{"ha":857,"x_min":51,"x_max":806,"o":"m 426 -12 q 156 96 260 -12 q 51 383 51 204 q 157 670 51 563 q 430 778 263 778 q 701 674 597 778 q 806 404 806 571 q 800 329 806 364 l 214 329 q 278 177 219 233 q 426 121 338 121 q 608 228 556 121 l 779 228 q 653 55 744 122 q 426 -12 561 -12 m 640 438 q 578 588 639 532 q 429 644 517 644 q 283 588 342 644 q 215 438 224 532 l 640 438 m 571 1106 l 571 971 l 264 819 l 264 936 l 571 1106 z "},"ê":{"ha":857,"x_min":51,"x_max":806,"o":"m 426 -12 q 156 96 260 -12 q 51 383 51 204 q 157 670 51 563 q 430 778 263 778 q 701 674 597 778 q 806 404 806 571 q 800 329 806 364 l 214 329 q 278 177 219 233 q 426 121 338 121 q 608 228 556 121 l 779 228 q 653 55 744 122 q 426 -12 561 -12 m 640 438 q 578 588 639 532 q 429 644 517 644 q 283 588 342 644 q 215 438 224 532 l 640 438 m 626 828 l 428 947 l 229 828 l 229 951 l 428 1067 l 626 951 l 626 828 z "},"ë":{"ha":857,"x_min":51,"x_max":806,"o":"m 426 -12 q 156 96 260 -12 q 51 383 51 204 q 157 670 51 563 q 430 778 263 778 q 701 674 597 778 q 806 404 806 571 q 800 329 806 364 l 214 329 q 278 177 219 233 q 426 121 338 121 q 608 228 556 121 l 779 228 q 653 55 744 122 q 426 -12 561 -12 m 640 438 q 578 588 639 532 q 429 644 517 644 q 283 588 342 644 q 215 438 224 532 l 640 438 m 369 885 q 357 873 369 885 q 310 861 344 861 q 251 885 275 861 q 226 944 226 908 q 251 1003 226 979 q 310 1028 275 1028 q 369 1003 344 1028 q 393 944 393 979 q 369 885 393 910 m 608 885 q 595 873 608 885 q 549 861 583 861 q 490 885 514 861 q 465 944 465 908 q 490 1003 465 979 q 549 1028 514 1028 q 608 1003 583 1028 q 632 944 632 979 q 608 885 632 910 z "},"ì":{"ha":367,"x_min":19,"x_max":326,"o":"m 19 971 l 19 1106 l 326 936 l 326 819 l 19 971 m 104 0 l 104 765 l 263 765 l 263 0 l 104 0 z "},"í":{"ha":367,"x_min":19,"x_max":326,"o":"m 104 0 l 104 765 l 263 765 l 263 0 l 104 0 m 19 936 l 326 1106 l 326 971 l 19 819 l 19 936 z "},"î":{"ha":367,"x_min":-15,"x_max":382,"o":"m 104 0 l 104 765 l 263 765 l 263 0 l 104 0 m 382 951 l 382 828 l 183 947 l -15 828 l -15 951 l 183 1067 l 382 951 z "},"ï":{"ha":367,"x_min":-19,"x_max":386,"o":"m 104 0 l 104 765 l 263 765 l 263 0 l 104 0 m 386 944 q 386 927 386 944 q 362 885 386 910 q 302 861 338 861 q 243 885 267 861 q 219 944 219 908 q 244 1003 219 979 q 303 1028 268 1028 q 362 1003 338 1028 q 386 944 386 979 m 147 944 q 147 927 147 944 q 123 885 147 910 q 63 861 99 861 q 4 885 28 861 q -19 944 -19 908 q 5 1003 -19 979 q 64 1028 29 1028 q 123 1003 99 1028 q 147 944 147 979 z "},"ð":{"ha":883,"x_min":51,"x_max":832,"o":"m 832 440 q 722 105 832 222 q 441 -12 613 -12 q 160 97 269 -12 q 51 383 51 206 q 160 669 51 560 q 435 778 269 778 q 647 699 551 778 q 538 872 608 789 l 367 817 l 367 901 l 476 938 q 374 1028 429 982 l 535 1028 q 592 975 564 1003 l 765 1032 l 765 947 l 653 910 q 832 440 832 699 m 214 383 q 214 320 214 383 q 278 190 214 258 q 437 121 342 121 q 601 190 532 121 q 669 383 669 260 q 602 576 669 507 q 440 644 535 644 q 279 576 344 644 q 214 383 214 507 z "},"ñ":{"ha":901,"x_min":104,"x_max":804,"o":"m 263 765 l 263 644 q 507 778 339 778 q 720 692 636 778 q 804 451 804 606 l 804 0 l 647 0 l 647 428 q 596 585 647 531 q 456 640 544 640 q 315 585 367 640 q 263 428 263 531 l 263 0 l 104 0 l 104 765 l 263 765 m 706 1004 q 653 883 694 924 q 560 842 611 842 q 460 873 508 842 q 388 904 413 904 q 328 844 336 904 l 239 844 q 292 966 250 925 q 385 1007 333 1007 q 484 976 436 1007 q 557 946 532 946 q 617 1004 608 946 l 706 1004 z "},"ò":{"ha":886,"x_min":53,"x_max":833,"o":"m 279 971 l 279 1106 l 586 936 l 586 819 l 279 971 m 601 190 q 636 225 601 190 q 671 383 671 260 q 603 576 671 507 q 440 644 536 644 q 279 576 344 644 q 214 383 214 507 q 278 190 214 258 q 437 121 342 121 q 601 190 532 121 m 437 -12 q 353 -12 437 -12 q 161 97 269 -12 q 53 383 53 206 q 165 669 53 560 q 443 778 276 778 q 722 669 610 778 q 833 383 833 560 q 719 97 833 207 q 437 -12 604 -12 z "},"ó":{"ha":886,"x_min":53,"x_max":833,"o":"m 601 190 q 636 225 601 190 q 671 383 671 260 q 603 576 671 507 q 440 644 536 644 q 279 576 344 644 q 214 383 214 507 q 278 190 214 258 q 437 121 342 121 q 601 190 532 121 m 437 -12 q 353 -12 437 -12 q 161 97 269 -12 q 53 383 53 206 q 165 669 53 560 q 443 778 276 778 q 722 669 610 778 q 833 383 833 560 q 719 97 833 207 q 437 -12 604 -12 m 279 936 l 586 1106 l 586 971 l 279 819 l 279 936 z "},"ô":{"ha":886,"x_min":53,"x_max":833,"o":"m 601 190 q 636 225 601 190 q 671 383 671 260 q 603 576 671 507 q 440 644 536 644 q 279 576 344 644 q 214 383 214 507 q 278 190 214 258 q 437 121 342 121 q 601 190 532 121 m 437 -12 q 353 -12 437 -12 q 161 97 269 -12 q 53 383 53 206 q 165 669 53 560 q 443 778 276 778 q 722 669 610 778 q 833 383 833 560 q 719 97 833 207 q 437 -12 604 -12 m 642 951 l 642 828 l 443 947 l 244 828 l 244 951 l 443 1067 l 642 951 z "},"õ":{"ha":886,"x_min":53,"x_max":833,"o":"m 217 844 q 269 966 228 925 q 363 1007 311 1007 q 462 976 414 1007 q 535 946 510 946 q 594 1004 586 946 l 683 1004 q 631 883 672 924 q 538 842 589 842 q 438 873 486 842 q 365 904 390 904 q 306 844 314 904 l 217 844 m 601 190 q 636 225 601 190 q 671 383 671 260 q 603 576 671 507 q 440 644 536 644 q 279 576 344 644 q 214 383 214 507 q 278 190 214 258 q 437 121 342 121 q 601 190 532 121 m 437 -12 q 353 -12 437 -12 q 161 97 269 -12 q 53 383 53 206 q 165 669 53 560 q 443 778 276 778 q 722 669 610 778 q 833 383 833 560 q 719 97 833 207 q 437 -12 604 -12 z "},"ö":{"ha":886,"x_min":53,"x_max":833,"o":"m 601 190 q 636 225 601 190 q 671 383 671 260 q 603 576 671 507 q 440 644 536 644 q 279 576 344 644 q 214 383 214 507 q 278 190 214 258 q 437 121 342 121 q 601 190 532 121 m 437 -12 q 353 -12 437 -12 q 161 97 269 -12 q 53 383 53 206 q 165 669 53 560 q 443 778 276 778 q 722 669 610 778 q 833 383 833 560 q 719 97 833 207 q 437 -12 604 -12 m 622 885 q 609 873 622 885 q 563 861 597 861 q 503 885 528 861 q 479 944 479 908 q 503 1003 479 979 q 563 1028 528 1028 q 622 1003 597 1028 q 646 944 646 979 q 622 885 646 910 m 383 885 q 370 873 383 885 q 324 861 358 861 q 265 885 289 861 q 240 944 240 908 q 265 1003 240 979 q 324 1028 289 1028 q 383 1003 358 1028 q 407 944 407 979 q 383 885 407 910 z "},"÷":{"ha":943,"x_min":125,"x_max":833,"o":"m 125 432 l 125 572 l 833 572 l 833 432 l 125 432 m 547 730 q 533 716 547 730 q 479 701 519 701 q 411 730 439 701 q 383 797 383 758 q 411 865 383 836 q 479 893 439 893 q 547 865 519 893 q 575 797 575 836 q 547 730 575 758 m 547 139 q 533 125 547 139 q 479 111 519 111 q 411 139 439 111 q 383 206 383 167 q 411 274 383 246 q 479 301 439 301 q 547 274 519 301 q 575 206 575 246 q 547 139 575 167 z "},"ø":{"ha":886,"x_min":39,"x_max":847,"o":"m 740 649 q 833 374 833 542 q 719 97 833 207 q 436 -12 604 -12 q 204 60 303 -12 l 149 0 l 39 0 l 144 115 q 53 391 53 222 q 165 669 53 560 q 443 778 276 778 q 681 704 579 778 l 738 765 l 847 765 l 740 649 m 582 594 q 433 644 521 644 q 279 576 344 644 q 214 383 214 507 q 249 231 214 293 l 582 594 m 301 167 q 445 121 358 121 q 601 190 532 121 q 671 383 671 260 q 635 532 671 469 l 301 167 z "},"ù":{"ha":901,"x_min":97,"x_max":797,"o":"m 639 765 l 797 765 l 797 0 l 639 0 l 639 121 q 394 -11 564 -11 q 181 74 265 -11 q 97 314 97 160 l 97 765 l 254 765 l 254 338 q 306 180 254 235 q 446 125 357 125 q 587 180 535 125 q 639 338 639 235 l 639 765 m 594 936 l 594 819 l 288 971 l 288 1106 l 594 936 z "},"ú":{"ha":901,"x_min":97,"x_max":797,"o":"m 639 765 l 797 765 l 797 0 l 639 0 l 639 121 q 394 -11 564 -11 q 181 74 265 -11 q 97 314 97 160 l 97 765 l 254 765 l 254 338 q 306 180 254 235 q 446 125 357 125 q 587 180 535 125 q 639 338 639 235 l 639 765 m 594 1106 l 594 971 l 288 819 l 288 936 l 594 1106 z "},"û":{"ha":901,"x_min":97,"x_max":797,"o":"m 639 765 l 797 765 l 797 0 l 639 0 l 639 121 q 394 -11 564 -11 q 181 74 265 -11 q 97 314 97 160 l 97 765 l 254 765 l 254 338 q 306 180 254 235 q 446 125 357 125 q 587 180 535 125 q 639 338 639 235 l 639 765 m 650 828 l 451 947 l 253 828 l 253 951 l 451 1067 l 650 951 l 650 828 z "},"ü":{"ha":901,"x_min":97,"x_max":797,"o":"m 639 765 l 797 765 l 797 0 l 639 0 l 639 121 q 394 -11 564 -11 q 181 74 265 -11 q 97 314 97 160 l 97 765 l 254 765 l 254 338 q 306 180 254 235 q 446 125 357 125 q 587 180 535 125 q 639 338 639 235 l 639 765 m 391 885 q 379 873 391 885 q 332 861 367 861 q 273 885 297 861 q 249 944 249 908 q 273 1003 249 979 q 332 1028 297 1028 q 391 1003 367 1028 q 415 944 415 979 q 391 885 415 910 m 630 885 q 618 873 630 885 q 571 861 606 861 q 512 885 536 861 q 488 944 488 908 q 512 1003 488 979 q 571 1028 536 1028 q 630 1003 606 1028 q 654 944 654 979 q 630 885 654 910 z "},"ý":{"ha":808,"x_min":14,"x_max":793,"o":"m 240 936 l 547 1106 l 547 971 l 240 819 l 240 936 m 315 13 l 14 765 l 190 765 l 406 182 l 629 765 l 793 765 l 324 -360 l 160 -360 l 315 13 z "},"þ":{"ha":942,"x_min":104,"x_max":889,"o":"m 658 197 q 693 232 658 197 q 728 386 728 268 q 659 572 728 504 q 495 640 590 640 q 331 571 400 640 q 263 383 263 501 q 331 195 263 265 q 494 125 400 125 q 658 197 589 125 m 529 778 q 786 669 683 778 q 889 385 889 560 q 785 99 889 211 q 529 -12 682 -12 q 371 30 439 -12 q 263 143 303 72 l 263 -364 l 104 -364 l 104 1028 l 263 1028 l 263 629 q 370 737 301 696 q 529 778 439 778 z "},"ÿ":{"ha":808,"x_min":14,"x_max":793,"o":"m 583 885 q 570 873 583 885 q 524 861 558 861 q 465 885 489 861 q 440 944 440 908 q 465 1003 440 979 q 524 1028 489 1028 q 583 1003 558 1028 q 607 944 607 979 q 583 885 607 910 m 344 885 q 332 873 344 885 q 285 861 319 861 q 226 885 250 861 q 201 944 201 908 q 226 1003 201 979 q 285 1028 250 1028 q 344 1003 319 1028 q 368 944 368 979 q 344 885 368 910 m 315 13 l 14 765 l 190 765 l 406 182 l 629 765 l 793 765 l 324 -360 l 160 -360 l 315 13 z "},"Ā":{"ha":968,"x_min":47,"x_max":922,"o":"m 756 0 l 686 197 l 282 197 l 213 0 l 47 0 l 393 967 l 576 967 l 922 0 l 756 0 m 325 321 l 643 321 l 485 775 l 325 321 m 739 1201 l 739 1083 l 231 1083 l 231 1201 l 739 1201 z "},"ā":{"ha":942,"x_min":51,"x_max":838,"o":"m 217 882 l 217 1000 l 725 1000 l 725 882 l 217 882 m 609 195 q 643 230 609 195 q 678 383 678 265 q 609 571 678 501 q 446 640 540 640 q 283 572 351 640 q 214 386 214 504 q 283 197 214 268 q 446 125 351 125 q 609 195 540 125 m 413 -12 q 156 99 260 -12 q 51 385 51 211 q 155 669 51 560 q 413 778 258 778 q 572 737 503 778 q 678 629 640 696 l 678 765 l 838 765 l 838 0 l 678 0 l 678 143 q 571 30 639 72 q 413 -12 503 -12 z "},"Ă":{"ha":968,"x_min":47,"x_max":922,"o":"m 756 0 l 686 197 l 282 197 l 213 0 l 47 0 l 393 967 l 576 967 l 922 0 l 756 0 m 325 321 l 643 321 l 485 775 l 325 321 m 694 1269 l 694 1239 q 638 1099 694 1151 q 485 1046 582 1046 q 332 1099 388 1046 q 276 1240 276 1153 l 276 1269 l 367 1269 q 393 1194 367 1219 q 485 1169 419 1169 q 576 1194 550 1169 q 603 1269 603 1219 l 694 1269 z "},"ă":{"ha":942,"x_min":51,"x_max":838,"o":"m 681 1038 q 624 897 681 950 q 471 844 568 844 q 318 898 374 844 q 263 1039 263 951 l 263 1068 l 353 1068 q 379 993 353 1018 q 471 968 406 968 q 563 993 536 968 q 589 1068 589 1018 l 681 1068 l 681 1038 m 609 195 q 643 230 609 195 q 678 383 678 265 q 609 571 678 501 q 446 640 540 640 q 283 572 351 640 q 214 386 214 504 q 283 197 214 268 q 446 125 351 125 q 609 195 540 125 m 413 -12 q 156 99 260 -12 q 51 385 51 211 q 155 669 51 560 q 413 778 258 778 q 572 737 503 778 q 678 629 640 696 l 678 765 l 838 765 l 838 0 l 678 0 l 678 143 q 571 30 639 72 q 413 -12 503 -12 z "},"Ą":{"ha":968,"x_min":47,"x_max":969,"o":"m 853 -185 l 969 -185 l 969 -285 l 822 -285 q 695 -244 746 -285 q 644 -142 644 -203 q 757 -1 644 -28 l 688 197 l 282 197 l 213 0 l 47 0 l 393 967 l 576 967 l 922 1 l 922 -83 l 853 -83 q 794 -94 813 -83 q 775 -133 775 -104 q 794 -174 775 -162 q 853 -185 814 -185 m 325 321 l 644 321 l 485 775 l 325 321 z "},"ą":{"ha":942,"x_min":51,"x_max":885,"o":"m 768 -185 l 885 -185 l 885 -285 l 738 -285 q 610 -244 661 -285 q 560 -141 560 -203 q 592 -43 560 -79 q 678 6 624 -7 l 678 143 q 571 30 639 72 q 413 -12 503 -12 q 156 99 260 -12 q 51 385 51 211 q 155 669 51 560 q 413 778 258 778 q 572 737 503 778 q 678 629 640 696 l 678 765 l 838 765 l 838 0 l 836 0 l 836 -83 l 768 -83 q 709 -94 728 -83 q 690 -133 690 -104 q 710 -174 690 -162 q 768 -185 729 -185 m 283 197 q 317 161 283 197 q 446 125 351 125 q 609 195 540 125 q 678 383 678 265 q 609 571 678 501 q 446 640 540 640 q 283 572 351 640 q 214 386 214 504 q 283 197 214 268 z "},"Ć":{"ha":1074,"x_min":51,"x_max":993,"o":"m 544 -8 q 194 131 338 -8 q 51 484 51 269 q 194 838 51 699 q 544 978 338 978 q 819 902 699 978 q 993 688 939 826 l 803 688 q 544 833 725 833 q 306 738 399 833 q 214 484 214 642 q 306 231 214 326 q 544 135 399 135 q 803 281 725 135 l 993 281 q 819 67 939 142 q 544 -8 699 -8 m 372 1138 l 679 1307 l 679 1172 l 372 1021 l 372 1138 z "},"ć":{"ha":833,"x_min":51,"x_max":779,"o":"m 426 -12 q 156 96 260 -12 q 51 383 51 204 q 156 669 51 561 q 426 778 261 778 q 656 712 565 778 q 779 524 747 646 l 608 524 q 426 644 565 644 q 272 576 329 644 q 214 383 214 507 q 272 190 214 260 q 426 121 329 121 q 608 242 564 121 l 779 242 q 654 56 746 125 q 426 -12 563 -12 m 253 936 l 560 1106 l 560 971 l 253 819 l 253 936 z "},"Č":{"ha":1074,"x_min":51,"x_max":993,"o":"m 544 -8 q 194 131 338 -8 q 51 484 51 269 q 194 838 51 699 q 544 978 338 978 q 819 902 699 978 q 993 688 939 826 l 803 688 q 544 833 725 833 q 306 738 399 833 q 214 484 214 642 q 306 231 214 326 q 544 135 399 135 q 803 281 725 135 l 993 281 q 819 67 939 142 q 544 -8 699 -8 m 536 1149 l 735 1268 l 735 1144 l 536 1029 l 338 1144 l 338 1268 l 536 1149 z "},"č":{"ha":833,"x_min":51,"x_max":779,"o":"m 426 -12 q 156 96 260 -12 q 51 383 51 204 q 156 669 51 561 q 426 778 261 778 q 656 712 565 778 q 779 524 747 646 l 608 524 q 426 644 565 644 q 272 576 329 644 q 214 383 214 507 q 272 190 214 260 q 426 121 329 121 q 608 242 564 121 l 779 242 q 654 56 746 125 q 426 -12 563 -12 m 417 947 l 615 1067 l 615 943 l 417 828 l 218 943 l 218 1067 l 417 947 z "},"Ď":{"ha":985,"x_min":104,"x_max":932,"o":"m 263 121 l 419 121 q 678 217 588 121 q 769 480 769 313 q 678 742 769 647 q 419 838 588 838 l 263 838 l 263 121 m 419 965 q 792 834 653 965 q 932 480 932 703 q 792 128 932 257 q 419 0 653 0 l 104 0 l 104 965 l 419 965 m 493 1149 l 692 1268 l 692 1144 l 493 1029 l 294 1144 l 294 1268 l 493 1149 z "},"ď":{"ha":1085,"x_min":51,"x_max":1069,"o":"m 609 195 q 643 230 609 195 q 678 383 678 265 q 609 571 678 501 q 446 640 540 640 q 283 572 351 640 q 214 386 214 504 q 283 197 214 268 q 446 125 351 125 q 609 195 540 125 m 413 -12 q 156 99 260 -12 q 51 385 51 211 q 155 669 51 560 q 413 778 258 778 q 572 737 503 778 q 678 629 640 696 l 678 1028 l 838 1028 l 838 0 l 678 0 l 678 143 q 571 30 639 72 q 413 -12 503 -12 m 908 1028 l 1051 1028 q 1069 890 1069 954 q 914 717 1069 717 l 914 786 q 981 865 981 786 l 981 894 l 908 894 l 908 1028 z "},"Đ":{"ha":1000,"x_min":13,"x_max":947,"o":"m 119 965 l 436 965 q 808 834 669 965 q 947 480 947 703 q 808 128 947 257 q 436 0 669 0 l 119 0 l 119 407 l 13 407 l 13 553 l 119 553 l 119 965 m 279 121 l 436 121 q 694 217 604 121 q 785 480 785 313 q 694 742 785 647 q 436 838 604 838 l 279 838 l 279 553 l 526 553 l 526 407 l 279 407 l 279 121 z "},"đ":{"ha":942,"x_min":51,"x_max":919,"o":"m 919 911 l 919 819 l 838 819 l 838 0 l 678 0 l 678 143 q 571 30 639 72 q 413 -12 503 -12 q 156 99 260 -12 q 51 385 51 211 q 155 669 51 560 q 413 778 258 778 q 572 737 503 778 q 678 629 640 696 l 678 819 l 564 819 l 564 911 l 678 911 l 678 1028 l 838 1028 l 838 911 l 919 911 m 283 197 q 317 161 283 197 q 446 125 351 125 q 609 195 540 125 q 678 383 678 265 q 609 571 678 501 q 446 640 540 640 q 283 572 351 640 q 214 386 214 504 q 283 197 214 268 z "},"Ē":{"ha":728,"x_min":104,"x_max":638,"o":"m 110 1083 l 110 1201 l 618 1201 l 618 1083 l 110 1083 m 638 967 l 638 843 l 263 843 l 263 550 l 596 550 l 596 428 l 263 428 l 263 124 l 638 124 l 638 0 l 104 0 l 104 967 l 638 967 z "},"ē":{"ha":857,"x_min":51,"x_max":806,"o":"m 426 -12 q 156 96 260 -12 q 51 383 51 204 q 157 670 51 563 q 430 778 263 778 q 701 674 597 778 q 806 404 806 571 q 800 329 806 364 l 214 329 q 278 177 219 233 q 426 121 338 121 q 608 228 556 121 l 779 228 q 653 55 744 122 q 426 -12 561 -12 m 640 438 q 578 588 639 532 q 429 644 517 644 q 283 588 342 644 q 215 438 224 532 l 640 438 m 683 1000 l 683 882 l 175 882 l 175 1000 l 683 1000 z "},"Ė":{"ha":728,"x_min":104,"x_max":638,"o":"m 447 1146 q 447 1128 447 1146 q 423 1087 447 1111 q 363 1063 399 1063 q 304 1087 328 1063 q 281 1146 281 1111 q 305 1205 281 1181 q 364 1229 329 1229 q 423 1205 399 1229 q 447 1146 447 1181 m 638 967 l 638 843 l 263 843 l 263 550 l 596 550 l 596 428 l 263 428 l 263 124 l 638 124 l 638 0 l 104 0 l 104 967 l 638 967 z "},"ė":{"ha":857,"x_min":51,"x_max":806,"o":"m 426 -12 q 156 96 260 -12 q 51 383 51 204 q 157 670 51 563 q 430 778 263 778 q 701 674 597 778 q 806 404 806 571 q 800 329 806 364 l 214 329 q 278 177 219 233 q 426 121 338 121 q 608 228 556 121 l 779 228 q 653 55 744 122 q 426 -12 561 -12 m 640 438 q 578 588 639 532 q 429 644 517 644 q 283 588 342 644 q 215 438 224 532 l 640 438 m 488 885 q 476 873 488 885 q 429 861 464 861 q 370 885 394 861 q 346 944 346 908 q 370 1003 346 979 q 429 1028 394 1028 q 488 1003 464 1028 q 513 944 513 979 q 488 885 513 910 z "},"Ę":{"ha":728,"x_min":104,"x_max":685,"o":"m 568 -185 l 685 -185 l 685 -285 l 538 -285 q 410 -244 461 -285 q 360 -133 360 -203 q 460 0 360 -35 l 104 0 l 104 967 l 638 967 l 638 843 l 263 843 l 263 550 l 596 550 l 596 428 l 263 428 l 263 124 l 638 124 l 638 0 l 636 0 l 636 -83 l 568 -83 q 509 -94 528 -83 q 490 -133 490 -104 q 510 -174 490 -162 q 568 -185 529 -185 z "},"ę":{"ha":857,"x_min":51,"x_max":806,"o":"m 711 -193 l 564 -193 q 437 -152 488 -193 q 386 -42 386 -111 q 390 -11 386 -24 q 145 108 239 1 q 51 389 51 215 q 157 670 51 563 q 430 778 263 778 q 701 674 597 778 q 806 404 806 571 q 800 329 806 364 l 214 329 q 278 177 219 233 q 426 121 338 121 q 608 228 556 121 l 779 228 q 700 96 754 151 q 575 14 646 40 q 531 -9 544 3 q 517 -46 517 -21 q 594 -93 517 -93 l 711 -93 l 711 -193 m 640 438 q 578 588 639 532 q 429 644 517 644 q 283 588 342 644 q 215 438 224 532 l 640 438 z "},"Ě":{"ha":728,"x_min":104,"x_max":638,"o":"m 638 967 l 638 843 l 263 843 l 263 550 l 596 550 l 596 428 l 263 428 l 263 124 l 638 124 l 638 0 l 104 0 l 104 967 l 638 967 m 364 1149 l 563 1268 l 563 1144 l 364 1029 l 165 1144 l 165 1268 l 364 1149 z "},"ě":{"ha":857,"x_min":51,"x_max":806,"o":"m 426 -12 q 156 96 260 -12 q 51 383 51 204 q 157 670 51 563 q 430 778 263 778 q 701 674 597 778 q 806 404 806 571 q 800 329 806 364 l 214 329 q 278 177 219 233 q 426 121 338 121 q 608 228 556 121 l 779 228 q 653 55 744 122 q 426 -12 561 -12 m 640 438 q 578 588 639 532 q 429 644 517 644 q 283 588 342 644 q 215 438 224 532 l 640 438 m 626 943 l 428 828 l 229 943 l 229 1067 l 428 947 l 626 1067 l 626 943 z "},"Ğ":{"ha":1074,"x_min":51,"x_max":1022,"o":"m 746 1239 q 690 1099 746 1151 q 536 1046 633 1046 q 383 1099 439 1046 q 328 1240 328 1153 l 328 1269 l 418 1269 q 444 1194 418 1219 q 536 1169 471 1169 q 628 1194 601 1169 q 654 1269 654 1219 l 746 1269 l 746 1239 m 535 -8 q 436 -8 535 -8 q 194 131 338 -8 q 51 484 51 269 q 194 838 51 699 q 544 978 338 978 q 819 902 699 978 q 993 688 939 826 l 803 688 q 544 833 725 833 q 306 738 399 833 q 214 484 214 642 q 306 231 214 326 q 536 135 399 135 q 755 208 674 135 q 853 406 836 281 l 490 406 l 490 529 l 1022 529 l 1022 406 q 867 112 1000 232 q 535 -8 733 -8 z "},"ğ":{"ha":942,"x_min":51,"x_max":838,"o":"m 681 1038 q 624 897 681 950 q 471 844 568 844 q 318 898 374 844 q 263 1039 263 951 l 263 1068 l 353 1068 q 379 993 353 1018 q 471 968 406 968 q 563 993 536 968 q 589 1068 589 1018 l 681 1068 l 681 1038 m 413 -12 q 156 99 260 -12 q 51 385 51 211 q 155 669 51 560 q 413 778 258 778 q 572 737 503 778 q 678 629 640 696 l 678 765 l 838 765 l 838 -12 q 738 -276 838 -174 q 474 -378 639 -378 q 206 -305 308 -378 q 89 -107 103 -232 l 246 -107 q 323 -203 264 -167 q 471 -240 382 -240 q 619 -182 560 -240 q 678 -12 678 -124 l 678 143 q 571 30 639 72 q 413 -12 503 -12 m 609 195 q 643 230 609 195 q 678 383 678 265 q 609 571 678 501 q 446 640 540 640 q 283 572 351 640 q 214 386 214 504 q 283 197 214 268 q 446 125 351 125 q 609 195 540 125 z "},"Ģ":{"ha":1074,"x_min":51,"x_max":1022,"o":"m 535 -8 q 436 -8 535 -8 q 194 131 338 -8 q 51 484 51 269 q 194 838 51 699 q 544 978 338 978 q 819 902 699 978 q 993 688 939 826 l 803 688 q 544 833 725 833 q 306 738 399 833 q 214 484 214 642 q 306 231 214 326 q 536 135 399 135 q 755 208 674 135 q 853 406 836 281 l 490 406 l 490 529 l 1022 529 l 1022 406 q 867 112 1000 232 q 535 -8 733 -8 m 461 -64 l 604 -64 q 622 -201 622 -137 q 467 -375 622 -375 l 467 -306 q 533 -226 533 -306 l 533 -197 l 461 -197 l 461 -64 z "},"ģ":{"ha":942,"x_min":51,"x_max":838,"o":"m 413 -12 q 156 99 260 -12 q 51 385 51 211 q 155 669 51 560 q 413 778 258 778 q 572 737 503 778 q 678 629 640 696 l 678 765 l 838 765 l 838 -12 q 738 -276 838 -174 q 474 -378 639 -378 q 206 -305 308 -378 q 89 -107 103 -232 l 246 -107 q 323 -203 264 -167 q 471 -240 382 -240 q 619 -182 560 -240 q 678 -12 678 -124 l 678 143 q 571 30 639 72 q 413 -12 503 -12 m 609 195 q 643 230 609 195 q 678 383 678 265 q 609 571 678 501 q 446 640 540 640 q 283 572 351 640 q 214 386 214 504 q 283 197 214 268 q 446 125 351 125 q 609 195 540 125 m 546 829 l 403 829 q 385 967 385 903 q 540 1140 385 1140 l 540 1071 q 474 992 474 1071 l 474 963 l 546 963 l 546 829 z "},"Ī":{"ha":367,"x_min":-71,"x_max":438,"o":"m -71 1083 l -71 1201 l 438 1201 l 438 1083 l -71 1083 m 104 0 l 104 965 l 263 965 l 263 0 l 104 0 z "},"ī":{"ha":367,"x_min":-71,"x_max":438,"o":"m -71 882 l -71 1000 l 438 1000 l 438 882 l -71 882 m 104 0 l 104 765 l 263 765 l 263 0 l 104 0 z "},"Į":{"ha":367,"x_min":-14,"x_max":311,"o":"m 194 -183 l 311 -183 l 311 -283 l 164 -283 q 37 -242 88 -283 q -14 -140 -14 -201 q 18 -42 -14 -78 q 104 7 50 -6 l 104 965 l 263 965 l 263 -82 l 194 -82 q 135 -92 154 -82 q 117 -132 117 -103 q 136 -172 117 -161 q 194 -183 156 -183 z "},"į":{"ha":367,"x_min":-14,"x_max":311,"o":"m 194 -183 l 311 -183 l 311 -283 l 164 -283 q 37 -242 88 -283 q -14 -140 -14 -201 q 18 -42 -14 -78 q 104 7 50 -6 l 104 765 l 263 765 l 263 -82 l 194 -82 q 135 -92 154 -82 q 117 -132 117 -103 q 136 -172 117 -161 q 194 -183 156 -183 m 285 968 q 285 947 285 968 q 256 896 285 925 q 184 867 226 867 q 113 896 142 867 q 83 968 83 925 q 113 1040 83 1011 q 184 1069 142 1069 q 256 1040 226 1069 q 285 968 285 1011 z "},"İ":{"ha":367,"x_min":100,"x_max":267,"o":"m 267 1146 q 267 1128 267 1146 q 242 1087 267 1111 q 183 1063 218 1063 q 124 1087 147 1063 q 100 1146 100 1111 q 124 1205 100 1181 q 183 1229 149 1229 q 242 1205 218 1229 q 267 1146 267 1181 m 104 0 l 104 965 l 263 965 l 263 0 l 104 0 z "},"ı":{"ha":367,"x_min":104,"x_max":263,"o":"m 104 0 l 104 765 l 263 765 l 263 0 l 104 0 z "},"Ķ":{"ha":879,"x_min":104,"x_max":844,"o":"m 263 0 l 104 0 l 104 965 l 263 965 l 263 525 l 638 965 l 844 965 l 408 481 l 844 0 l 636 0 l 263 432 l 263 0 m 365 -64 l 508 -64 q 526 -201 526 -137 q 371 -375 526 -375 l 371 -306 q 438 -226 438 -306 l 438 -197 l 365 -197 l 365 -64 z "},"ķ":{"ha":769,"x_min":104,"x_max":760,"o":"m 263 0 l 104 0 l 104 1028 l 263 1028 l 263 431 l 540 765 l 760 765 l 407 382 l 760 0 l 546 0 l 263 329 l 263 0 m 310 -64 l 453 -64 q 471 -201 471 -137 q 315 -375 471 -375 l 315 -306 q 382 -226 382 -306 l 382 -197 l 310 -197 l 310 -64 z "},"Ĺ":{"ha":617,"x_min":104,"x_max":589,"o":"m 104 965 l 263 965 l 263 121 l 589 121 l 589 0 l 104 0 l 104 965 m 144 1138 l 451 1307 l 451 1172 l 144 1021 l 144 1138 z "},"ĺ":{"ha":367,"x_min":19,"x_max":326,"o":"m 104 0 l 104 1028 l 263 1028 l 263 0 l 104 0 m 19 1199 l 326 1368 l 326 1233 l 19 1082 l 19 1199 z "},"Ļ":{"ha":617,"x_min":104,"x_max":589,"o":"m 104 965 l 263 965 l 263 121 l 589 121 l 589 0 l 104 0 l 104 965 m 268 -64 l 411 -64 q 429 -201 429 -137 q 274 -375 429 -375 l 274 -306 q 340 -226 340 -306 l 340 -197 l 268 -197 l 268 -64 z "},"ļ":{"ha":367,"x_min":104,"x_max":269,"o":"m 104 0 l 104 1028 l 263 1028 l 263 0 l 104 0 m 108 -64 l 251 -64 q 269 -201 269 -137 q 114 -375 269 -375 l 114 -306 q 181 -226 181 -306 l 181 -197 l 108 -197 l 108 -64 z "},"Ľ":{"ha":643,"x_min":104,"x_max":589,"o":"m 104 965 l 263 965 l 263 121 l 589 121 l 589 0 l 104 0 l 104 965 m 414 965 l 557 965 q 575 828 575 892 q 419 654 575 654 l 419 724 q 486 803 486 724 l 486 832 l 414 832 l 414 965 z "},"ľ":{"ha":593,"x_min":104,"x_max":533,"o":"m 104 0 l 104 1028 l 263 1028 l 263 0 l 104 0 m 372 1028 l 515 1028 q 533 890 533 954 q 378 717 533 717 l 378 786 q 444 865 444 786 l 444 894 l 372 894 l 372 1028 z "},"Ł":{"ha":617,"x_min":13,"x_max":604,"o":"m 279 121 l 604 121 l 604 0 l 119 0 l 119 400 l 13 365 l 13 511 l 119 546 l 119 965 l 279 965 l 279 599 l 407 640 l 407 493 l 279 451 l 279 121 z "},"ł":{"ha":367,"x_min":13,"x_max":356,"o":"m 263 0 l 104 0 l 104 392 l 13 360 l 13 507 l 104 538 l 104 1028 l 263 1028 l 263 592 l 356 624 l 356 478 l 263 446 l 263 0 z "},"Ń":{"ha":1001,"x_min":104,"x_max":897,"o":"m 739 967 l 897 967 l 897 0 l 739 0 l 263 721 l 263 0 l 104 0 l 104 967 l 263 967 l 739 247 l 739 967 m 338 1138 l 644 1307 l 644 1172 l 338 1021 l 338 1138 z "},"ń":{"ha":901,"x_min":104,"x_max":804,"o":"m 263 765 l 263 644 q 507 778 339 778 q 720 692 636 778 q 804 451 804 606 l 804 0 l 647 0 l 647 428 q 596 585 647 531 q 456 640 544 640 q 315 585 367 640 q 263 428 263 531 l 263 0 l 104 0 l 104 765 l 263 765 m 608 1106 l 608 971 l 301 819 l 301 936 l 608 1106 z "},"Ņ":{"ha":1001,"x_min":104,"x_max":897,"o":"m 739 967 l 897 967 l 897 0 l 739 0 l 263 721 l 263 0 l 104 0 l 104 967 l 263 967 l 739 247 l 739 967 m 426 -64 l 569 -64 q 588 -201 588 -137 q 432 -375 588 -375 l 432 -306 q 499 -226 499 -306 l 499 -197 l 426 -197 l 426 -64 z "},"ņ":{"ha":901,"x_min":104,"x_max":804,"o":"m 263 765 l 263 644 q 507 778 339 778 q 720 692 636 778 q 804 451 804 606 l 804 0 l 647 0 l 647 428 q 596 585 647 531 q 456 640 544 640 q 315 585 367 640 q 263 428 263 531 l 263 0 l 104 0 l 104 765 l 263 765 m 376 -64 l 519 -64 q 538 -201 538 -137 q 382 -375 538 -375 l 382 -306 q 449 -226 449 -306 l 449 -197 l 376 -197 l 376 -64 z "},"Ň":{"ha":1001,"x_min":104,"x_max":897,"o":"m 739 967 l 897 967 l 897 0 l 739 0 l 263 721 l 263 0 l 104 0 l 104 967 l 263 967 l 739 247 l 739 967 m 501 1149 l 700 1268 l 700 1144 l 501 1029 l 303 1144 l 303 1268 l 501 1149 z "},"ň":{"ha":901,"x_min":104,"x_max":804,"o":"m 263 765 l 263 644 q 507 778 339 778 q 720 692 636 778 q 804 451 804 606 l 804 0 l 647 0 l 647 428 q 596 585 647 531 q 456 640 544 640 q 315 585 367 640 q 263 428 263 531 l 263 0 l 104 0 l 104 765 l 263 765 m 664 943 l 465 828 l 267 943 l 267 1067 l 465 947 l 664 1067 l 664 943 z "},"Ō":{"ha":1089,"x_min":51,"x_max":1038,"o":"m 544 133 q 617 133 544 133 q 783 230 690 133 q 875 484 875 326 q 783 738 875 642 q 544 833 690 833 q 306 738 399 833 q 214 484 214 642 q 306 230 214 326 q 544 133 399 133 m 545 -10 q 441 -10 545 -10 q 194 130 338 -10 q 51 484 51 269 q 194 838 51 699 q 545 978 338 978 q 895 838 753 978 q 1038 484 1038 699 q 895 130 1038 269 q 545 -10 753 -10 m 290 1083 l 290 1201 l 799 1201 l 799 1083 l 290 1083 z "},"ō":{"ha":886,"x_min":53,"x_max":833,"o":"m 601 190 q 636 225 601 190 q 671 383 671 260 q 603 576 671 507 q 440 644 536 644 q 279 576 344 644 q 214 383 214 507 q 278 190 214 258 q 437 121 342 121 q 601 190 532 121 m 437 -12 q 353 -12 437 -12 q 161 97 269 -12 q 53 383 53 206 q 165 669 53 560 q 443 778 276 778 q 722 669 610 778 q 833 383 833 560 q 719 97 833 207 q 437 -12 604 -12 m 189 882 l 189 1000 l 697 1000 l 697 882 l 189 882 z "},"Ő":{"ha":1089,"x_min":51,"x_max":1038,"o":"m 544 133 q 617 133 544 133 q 783 230 690 133 q 875 484 875 326 q 783 738 875 642 q 544 833 690 833 q 306 738 399 833 q 214 484 214 642 q 306 230 214 326 q 544 133 399 133 m 545 -10 q 441 -10 545 -10 q 194 130 338 -10 q 51 484 51 269 q 194 838 51 699 q 545 978 338 978 q 895 838 753 978 q 1038 484 1038 699 q 895 130 1038 269 q 545 -10 753 -10 m 463 1272 l 600 1272 l 469 1036 l 367 1036 l 463 1272 m 710 1272 l 846 1272 l 696 1036 l 593 1036 l 710 1272 z "},"ő":{"ha":886,"x_min":53,"x_max":833,"o":"m 601 190 q 636 225 601 190 q 671 383 671 260 q 603 576 671 507 q 440 644 536 644 q 279 576 344 644 q 214 383 214 507 q 278 190 214 258 q 437 121 342 121 q 601 190 532 121 m 437 -12 q 353 -12 437 -12 q 161 97 269 -12 q 53 383 53 206 q 165 669 53 560 q 443 778 276 778 q 722 669 610 778 q 833 383 833 560 q 719 97 833 207 q 437 -12 604 -12 m 361 1071 l 499 1071 l 368 835 l 265 835 l 361 1071 m 608 1071 l 744 1071 l 594 835 l 492 835 l 608 1071 z "},"Œ":{"ha":1499,"x_min":51,"x_max":1408,"o":"m 1408 842 l 1033 842 l 1033 549 l 1367 549 l 1367 426 l 1033 426 l 1033 124 l 1408 124 l 1408 0 l 875 0 l 875 154 q 546 -10 754 -10 q 194 130 338 -10 q 51 485 51 269 q 194 839 51 700 q 547 978 338 978 q 875 813 756 978 l 875 965 l 1408 965 l 1408 842 m 544 833 q 472 833 544 833 q 306 738 399 833 q 214 484 214 642 q 306 230 214 326 q 544 133 399 133 q 783 230 690 133 q 875 484 875 326 q 783 738 875 642 q 544 833 690 833 z "},"œ":{"ha":1475,"x_min":51,"x_max":1424,"o":"m 1044 -12 q 747 149 847 -12 q 614 30 696 72 q 436 -12 532 -12 q 160 97 269 -12 q 51 383 51 206 q 164 669 51 560 q 443 778 276 778 q 617 736 538 778 q 749 619 697 694 q 1051 778 850 778 q 1319 674 1215 778 q 1424 404 1424 571 q 1418 329 1424 364 l 833 329 q 897 177 839 233 q 1044 121 956 121 q 1226 228 1174 121 l 1397 228 q 1271 55 1363 122 q 1044 -12 1179 -12 m 214 383 q 214 320 214 383 q 278 190 214 258 q 437 121 342 121 q 601 190 532 121 q 669 383 669 260 q 602 576 669 507 q 440 644 535 644 q 279 576 344 644 q 214 383 214 507 m 1258 438 q 1196 588 1257 532 q 1047 644 1135 644 q 901 589 960 644 q 835 438 843 533 l 1258 438 z "},"Ŕ":{"ha":878,"x_min":104,"x_max":794,"o":"m 263 392 l 263 0 l 104 0 l 104 965 l 438 965 q 690 884 601 965 q 779 678 779 803 q 720 503 779 581 q 539 401 661 425 l 794 0 l 601 0 l 360 392 l 263 392 m 263 842 l 263 515 l 438 515 q 572 558 528 515 q 617 678 617 601 q 572 799 617 756 q 438 842 528 842 l 263 842 m 582 1307 l 582 1172 l 275 1021 l 275 1138 l 582 1307 z "},"ŕ":{"ha":533,"x_min":104,"x_max":492,"o":"m 263 765 l 263 632 q 492 778 336 778 l 492 614 l 451 614 q 310 567 358 614 q 263 403 263 519 l 263 0 l 104 0 l 104 765 l 263 765 m 478 1106 l 478 971 l 171 819 l 171 936 l 478 1106 z "},"Ŗ":{"ha":878,"x_min":104,"x_max":794,"o":"m 263 392 l 263 0 l 104 0 l 104 965 l 438 965 q 690 884 601 965 q 779 678 779 803 q 720 503 779 581 q 539 401 661 425 l 794 0 l 601 0 l 360 392 l 263 392 m 263 842 l 263 515 l 438 515 q 572 558 528 515 q 617 678 617 601 q 572 799 617 756 q 438 842 528 842 l 263 842 m 364 -64 l 507 -64 q 525 -201 525 -137 q 369 -375 525 -375 l 369 -306 q 436 -226 436 -306 l 436 -197 l 364 -197 l 364 -64 z "},"ŗ":{"ha":533,"x_min":104,"x_max":492,"o":"m 263 765 l 263 632 q 492 778 336 778 l 492 614 l 451 614 q 310 567 358 614 q 263 403 263 519 l 263 0 l 104 0 l 104 765 l 263 765 m 108 -64 l 251 -64 q 269 -201 269 -137 q 114 -375 269 -375 l 114 -306 q 181 -226 181 -306 l 181 -197 l 108 -197 l 108 -64 z "},"Ř":{"ha":878,"x_min":104,"x_max":794,"o":"m 263 392 l 263 0 l 104 0 l 104 965 l 438 965 q 690 884 601 965 q 779 678 779 803 q 720 503 779 581 q 539 401 661 425 l 794 0 l 601 0 l 360 392 l 263 392 m 263 842 l 263 515 l 438 515 q 572 558 528 515 q 617 678 617 601 q 572 799 617 756 q 438 842 528 842 l 263 842 m 638 1144 l 439 1029 l 240 1144 l 240 1268 l 439 1149 l 638 1268 l 638 1144 z "},"ř":{"ha":533,"x_min":104,"x_max":533,"o":"m 335 947 l 533 1067 l 533 943 l 335 828 l 136 943 l 136 1067 l 335 947 m 263 765 l 263 632 q 492 778 336 778 l 492 614 l 451 614 q 310 567 358 614 q 263 403 263 519 l 263 0 l 104 0 l 104 765 l 263 765 z "},"Ś":{"ha":839,"x_min":83,"x_max":756,"o":"m 404 849 q 369 849 404 849 q 289 813 333 849 q 244 708 244 776 q 297 603 244 639 q 425 550 350 567 q 575 512 500 533 q 703 432 650 490 q 756 267 756 374 q 665 75 756 160 q 424 -10 575 -10 q 178 61 272 -10 q 83 257 83 132 l 253 257 q 300 156 258 193 q 422 118 342 118 q 549 160 503 118 q 596 258 596 201 q 567 347 596 315 q 494 395 539 379 q 394 424 449 411 q 285 453 340 436 q 185 496 231 469 q 112 573 140 522 q 83 697 83 624 q 174 901 83 824 q 410 978 265 978 q 642 911 556 978 q 739 718 729 844 l 564 718 q 517 811 558 774 q 404 849 475 849 m 256 1138 l 563 1307 l 563 1172 l 256 1021 l 256 1138 z "},"ś":{"ha":742,"x_min":68,"x_max":672,"o":"m 69 546 q 151 710 69 643 q 367 778 233 778 q 578 712 500 778 q 663 532 657 646 l 500 532 q 460 621 496 589 q 361 653 425 653 q 261 624 297 653 q 225 549 225 596 q 271 476 225 503 q 383 438 317 450 q 515 407 449 425 q 626 341 581 389 q 672 213 672 293 q 588 50 672 113 q 372 -12 504 -12 q 158 51 240 -12 q 68 233 76 115 l 232 233 q 274 144 236 176 q 376 113 311 113 q 478 141 440 113 q 517 217 517 169 q 471 290 517 264 q 359 330 425 317 q 227 360 293 343 q 115 424 161 378 q 69 546 69 469 m 207 936 l 514 1106 l 514 971 l 207 819 l 207 936 z "},"Ş":{"ha":839,"x_min":83,"x_max":756,"o":"m 564 718 q 517 811 558 774 q 404 849 475 849 q 289 813 333 849 q 244 708 244 776 q 297 603 244 639 q 425 550 350 567 q 575 512 500 533 q 703 432 650 490 q 756 273 756 374 q 681 91 756 172 q 478 -7 607 10 l 478 -67 q 608 -105 558 -67 q 658 -212 658 -143 q 608 -323 658 -282 q 482 -364 558 -364 l 299 -364 l 299 -264 l 450 -264 q 508 -253 489 -264 q 528 -212 528 -242 q 508 -172 528 -183 q 450 -161 489 -161 l 374 -161 l 374 -8 q 163 73 243 4 q 83 257 83 142 l 253 257 q 300 156 258 193 q 422 118 342 118 q 549 160 503 118 q 596 258 596 201 q 567 347 596 315 q 494 395 539 379 q 394 424 449 411 q 285 453 340 436 q 185 496 231 469 q 112 573 140 522 q 83 697 83 624 q 174 901 83 824 q 410 978 265 978 q 642 911 556 978 q 739 718 729 844 l 564 718 z "},"ş":{"ha":742,"x_min":68,"x_max":672,"o":"m 460 621 q 443 637 460 621 q 361 653 425 653 q 261 624 297 653 q 225 549 225 596 q 271 476 225 503 q 383 438 317 450 q 515 407 449 425 q 626 341 581 389 q 672 209 672 293 q 606 65 672 125 q 429 -10 539 4 l 429 -67 q 560 -105 510 -67 q 610 -212 610 -143 q 560 -323 610 -282 q 433 -364 510 -364 l 250 -364 l 250 -264 l 401 -264 q 460 -253 440 -264 q 479 -212 479 -242 q 460 -172 479 -183 q 401 -161 440 -161 l 325 -161 l 325 -10 q 143 64 211 1 q 68 233 75 126 l 232 233 q 274 144 236 176 q 376 113 311 113 q 478 141 440 113 q 517 217 517 169 q 471 290 517 264 q 359 330 425 317 q 227 360 293 343 q 115 424 161 378 q 69 546 69 469 q 151 710 69 643 q 367 778 233 778 q 578 712 500 778 q 663 532 657 646 l 500 532 q 460 621 496 589 z "},"Š":{"ha":839,"x_min":83,"x_max":756,"o":"m 404 849 q 369 849 404 849 q 289 813 333 849 q 244 708 244 776 q 297 603 244 639 q 425 550 350 567 q 575 512 500 533 q 703 432 650 490 q 756 267 756 374 q 665 75 756 160 q 424 -10 575 -10 q 178 61 272 -10 q 83 257 83 132 l 253 257 q 300 156 258 193 q 422 118 342 118 q 549 160 503 118 q 596 258 596 201 q 567 347 596 315 q 494 395 539 379 q 394 424 449 411 q 285 453 340 436 q 185 496 231 469 q 112 573 140 522 q 83 697 83 624 q 174 901 83 824 q 410 978 265 978 q 642 911 556 978 q 739 718 729 844 l 564 718 q 517 811 558 774 q 404 849 475 849 m 419 1149 l 618 1268 l 618 1144 l 419 1029 l 221 1144 l 221 1268 l 419 1149 z "},"š":{"ha":742,"x_min":68,"x_max":672,"o":"m 69 546 q 151 710 69 643 q 367 778 233 778 q 578 712 500 778 q 663 532 657 646 l 500 532 q 460 621 496 589 q 361 653 425 653 q 261 624 297 653 q 225 549 225 596 q 271 476 225 503 q 383 438 317 450 q 515 407 449 425 q 626 341 581 389 q 672 213 672 293 q 588 50 672 113 q 372 -12 504 -12 q 158 51 240 -12 q 68 233 76 115 l 232 233 q 274 144 236 176 q 376 113 311 113 q 478 141 440 113 q 517 217 517 169 q 471 290 517 264 q 359 330 425 317 q 227 360 293 343 q 115 424 161 378 q 69 546 69 469 m 371 947 l 569 1067 l 569 943 l 371 828 l 172 943 l 172 1067 l 371 947 z "},"Ţ":{"ha":783,"x_min":54,"x_max":728,"o":"m 728 842 l 471 842 l 471 -1 q 589 -44 546 -6 q 632 -150 632 -82 q 583 -260 632 -218 q 456 -301 535 -301 l 231 -301 l 231 -201 l 431 -201 q 501 -148 501 -201 q 431 -94 501 -94 l 313 -94 l 313 842 l 54 842 l 54 965 l 728 965 l 728 842 z "},"ţ":{"ha":517,"x_min":39,"x_max":497,"o":"m 317 -67 q 447 -105 397 -67 q 497 -212 497 -143 q 447 -323 497 -282 q 321 -364 397 -364 l 138 -364 l 138 -264 l 289 -264 q 347 -253 328 -264 q 367 -212 367 -242 q 347 -172 367 -183 q 289 -161 328 -161 l 213 -161 l 213 31 q 129 213 129 81 l 129 636 l 39 636 l 39 765 l 129 765 l 129 956 l 289 956 l 289 765 l 475 765 l 475 636 l 289 636 l 289 213 q 309 151 289 169 q 378 132 329 132 l 475 132 l 475 0 l 350 0 q 317 1 328 0 l 317 -67 z "},"Ť":{"ha":783,"x_min":54,"x_max":728,"o":"m 54 842 l 54 965 l 728 965 l 728 842 l 471 842 l 471 0 l 313 0 l 313 842 l 54 842 m 392 1149 l 590 1268 l 590 1144 l 392 1029 l 193 1144 l 193 1268 l 392 1149 z "},"ť":{"ha":517,"x_min":39,"x_max":475,"o":"m 475 636 l 289 636 l 289 213 q 309 151 289 169 q 378 132 329 132 l 475 132 l 475 0 l 350 0 q 129 213 129 0 l 129 636 l 39 636 l 39 765 l 129 765 l 129 956 l 289 956 l 289 765 l 475 765 l 475 636 m 185 -64 l 328 -64 q 346 -201 346 -137 q 190 -375 346 -375 l 190 -306 q 257 -226 257 -306 l 257 -197 l 185 -197 l 185 -64 z "},"Ū":{"ha":958,"x_min":103,"x_max":857,"o":"m 225 1083 l 225 1201 l 733 1201 l 733 1083 l 225 1083 m 103 353 l 103 965 l 261 965 l 261 353 q 319 188 261 243 q 480 132 376 132 q 641 188 583 132 q 699 353 699 243 l 699 965 l 857 965 l 857 353 q 748 84 857 178 q 477 -10 639 -10 q 209 83 315 -10 q 103 353 103 176 z "},"ū":{"ha":901,"x_min":97,"x_max":797,"o":"m 639 765 l 797 765 l 797 0 l 639 0 l 639 121 q 394 -11 564 -11 q 181 74 265 -11 q 97 314 97 160 l 97 765 l 254 765 l 254 338 q 306 180 254 235 q 446 125 357 125 q 587 180 535 125 q 639 338 639 235 l 639 765 m 706 1000 l 706 882 l 197 882 l 197 1000 l 706 1000 z "},"Ů":{"ha":958,"x_min":103,"x_max":857,"o":"m 103 353 l 103 965 l 261 965 l 261 353 q 319 188 261 243 q 480 132 376 132 q 641 188 583 132 q 699 353 699 243 l 699 965 l 857 965 l 857 353 q 748 84 857 178 q 477 -10 639 -10 q 209 83 315 -10 q 103 353 103 176 m 480 1124 q 495 1124 480 1124 q 531 1144 510 1124 q 551 1195 551 1164 q 531 1246 551 1226 q 479 1265 510 1265 q 428 1246 449 1265 q 408 1195 408 1226 q 429 1144 408 1164 q 480 1124 450 1124 m 480 1042 q 448 1042 480 1042 q 372 1083 415 1042 q 328 1194 328 1125 q 372 1304 328 1263 q 480 1346 415 1346 q 588 1304 544 1346 q 631 1194 631 1263 q 588 1083 631 1125 q 480 1042 544 1042 z "},"ů":{"ha":901,"x_min":97,"x_max":797,"o":"m 639 765 l 797 765 l 797 0 l 639 0 l 639 121 q 394 -11 564 -11 q 181 74 265 -11 q 97 314 97 160 l 97 765 l 254 765 l 254 338 q 306 180 254 235 q 446 125 357 125 q 587 180 535 125 q 639 338 639 235 l 639 765 m 603 992 q 603 958 603 992 q 560 882 603 924 q 452 840 517 840 q 344 882 388 840 q 300 992 300 924 q 344 1103 300 1061 q 452 1144 388 1144 q 560 1103 517 1144 q 603 992 603 1061 m 503 1044 q 492 1054 503 1044 q 451 1064 482 1064 q 401 1044 421 1064 q 381 994 381 1025 q 401 942 381 963 q 452 922 422 922 q 503 942 482 922 q 524 994 524 963 q 503 1044 524 1025 z "},"Ű":{"ha":958,"x_min":103,"x_max":857,"o":"m 397 1272 l 535 1272 l 404 1036 l 301 1036 l 397 1272 m 644 1272 l 781 1272 l 631 1036 l 528 1036 l 644 1272 m 103 353 l 103 965 l 261 965 l 261 353 q 319 188 261 243 q 480 132 376 132 q 641 188 583 132 q 699 353 699 243 l 699 965 l 857 965 l 857 353 q 748 84 857 178 q 477 -10 639 -10 q 209 83 315 -10 q 103 353 103 176 z "},"ű":{"ha":901,"x_min":97,"x_max":797,"o":"m 639 765 l 797 765 l 797 0 l 639 0 l 639 121 q 394 -11 564 -11 q 181 74 265 -11 q 97 314 97 160 l 97 765 l 254 765 l 254 338 q 306 180 254 235 q 446 125 357 125 q 587 180 535 125 q 639 338 639 235 l 639 765 m 506 1071 l 375 835 l 272 835 l 368 1071 l 506 1071 m 601 835 l 499 835 l 615 1071 l 751 1071 l 601 835 z "},"Ų":{"ha":958,"x_min":103,"x_max":857,"o":"m 103 353 l 103 965 l 261 965 l 261 353 q 319 188 261 243 q 480 132 376 132 q 641 188 583 132 q 699 353 699 243 l 699 965 l 857 965 l 857 353 q 785 122 857 207 q 611 8 713 38 q 546 -17 564 -4 q 528 -51 528 -29 q 594 -103 528 -103 l 722 -103 l 722 -201 l 575 -201 q 448 -160 499 -201 q 397 -50 397 -119 q 406 -4 397 -25 q 187 107 271 15 q 103 353 103 199 z "},"ų":{"ha":901,"x_min":97,"x_max":846,"o":"m 729 -186 l 846 -186 l 846 -286 l 699 -286 q 572 -245 622 -286 q 521 -142 521 -204 q 553 -44 521 -81 q 639 4 585 -8 l 639 121 q 394 -11 564 -11 q 181 74 265 -11 q 97 314 97 160 l 97 765 l 254 765 l 254 338 q 306 180 254 235 q 446 125 357 125 q 587 180 535 125 q 639 338 639 235 l 639 765 l 797 765 l 797 -85 l 729 -85 q 670 -95 689 -85 q 651 -135 651 -106 q 671 -175 651 -164 q 729 -186 690 -186 z "},"Ÿ":{"ha":840,"x_min":21,"x_max":819,"o":"m 500 0 l 342 0 l 342 350 l 21 965 l 197 965 l 419 494 l 642 965 l 819 965 l 500 350 l 500 0 m 360 1087 q 348 1075 360 1087 q 301 1063 336 1063 q 242 1087 267 1063 q 218 1146 218 1111 q 242 1205 218 1181 q 301 1229 267 1229 q 360 1205 336 1229 q 385 1146 385 1181 q 360 1087 385 1111 m 599 1087 q 587 1075 599 1087 q 540 1063 575 1063 q 481 1087 506 1063 q 457 1146 457 1111 q 481 1205 457 1181 q 540 1229 506 1229 q 599 1205 575 1229 q 624 1146 624 1181 q 599 1087 624 1111 z "},"Ź":{"ha":775,"x_min":69,"x_max":706,"o":"m 706 965 l 706 842 l 251 124 l 706 124 l 706 0 l 69 0 l 69 124 l 522 842 l 69 842 l 69 965 l 706 965 m 224 1138 l 531 1307 l 531 1172 l 224 1021 l 224 1138 z "},"ź":{"ha":654,"x_min":61,"x_max":592,"o":"m 592 765 l 592 636 l 244 129 l 592 129 l 592 0 l 61 0 l 61 129 l 410 636 l 61 636 l 61 765 l 592 765 m 164 936 l 471 1106 l 471 971 l 164 819 l 164 936 z "},"Ż":{"ha":775,"x_min":69,"x_max":706,"o":"m 447 1087 q 434 1075 447 1087 q 388 1063 422 1063 q 328 1087 353 1063 q 304 1146 304 1111 q 328 1205 304 1181 q 388 1229 353 1229 q 447 1205 422 1229 q 471 1146 471 1181 q 447 1087 471 1111 m 706 965 l 706 842 l 251 124 l 706 124 l 706 0 l 69 0 l 69 124 l 522 842 l 69 842 l 69 965 l 706 965 z "},"ż":{"ha":654,"x_min":61,"x_max":592,"o":"m 411 944 q 411 927 411 944 q 387 885 411 910 q 327 861 363 861 q 268 885 292 861 q 244 944 244 908 q 269 1003 244 979 q 328 1028 293 1028 q 387 1003 363 1028 q 411 944 411 979 m 592 765 l 592 636 l 244 129 l 592 129 l 592 0 l 61 0 l 61 129 l 410 636 l 61 636 l 61 765 l 592 765 z "},"Ž":{"ha":775,"x_min":69,"x_max":706,"o":"m 706 965 l 706 842 l 251 124 l 706 124 l 706 0 l 69 0 l 69 124 l 522 842 l 69 842 l 69 965 l 706 965 m 388 1149 l 586 1268 l 586 1144 l 388 1029 l 189 1144 l 189 1268 l 388 1149 z "},"ž":{"ha":654,"x_min":61,"x_max":592,"o":"m 592 765 l 592 636 l 244 129 l 592 129 l 592 0 l 61 0 l 61 129 l 410 636 l 61 636 l 61 765 l 592 765 m 328 947 l 526 1067 l 526 943 l 328 828 l 129 943 l 129 1067 l 328 947 z "},"ƒ":{"ha":461,"x_min":-78,"x_max":443,"o":"m -47 -301 l -78 -301 l -64 -171 l -42 -171 q 9 -151 -8 -171 q 31 -89 26 -132 l 107 636 l 17 636 l 29 765 l 121 765 l 126 819 q 217 1012 140 951 q 443 1072 293 1072 l 429 940 q 325 913 357 940 q 286 819 293 886 l 281 765 l 421 765 l 408 636 l 267 636 l 189 -89 q 119 -252 178 -203 q -47 -301 60 -301 z "},"Ș":{"ha":839,"x_min":83,"x_max":756,"o":"m 404 849 q 369 849 404 849 q 289 813 333 849 q 244 708 244 776 q 297 603 244 639 q 425 550 350 567 q 575 512 500 533 q 703 432 650 490 q 756 267 756 374 q 665 75 756 160 q 424 -10 575 -10 q 178 61 272 -10 q 83 257 83 132 l 253 257 q 300 156 258 193 q 422 118 342 118 q 549 160 503 118 q 596 258 596 201 q 567 347 596 315 q 494 395 539 379 q 394 424 449 411 q 285 453 340 436 q 185 496 231 469 q 112 573 140 522 q 83 697 83 624 q 174 901 83 824 q 410 978 265 978 q 642 911 556 978 q 739 718 729 844 l 564 718 q 517 811 558 774 q 404 849 475 849 m 346 -64 l 489 -64 q 507 -201 507 -137 q 351 -375 507 -375 l 351 -306 q 418 -226 418 -306 l 418 -197 l 346 -197 l 346 -64 z "},"ș":{"ha":742,"x_min":68,"x_max":672,"o":"m 69 546 q 151 710 69 643 q 367 778 233 778 q 578 712 500 778 q 663 532 657 646 l 500 532 q 460 621 496 589 q 361 653 425 653 q 261 624 297 653 q 225 549 225 596 q 271 476 225 503 q 383 438 317 450 q 515 407 449 425 q 626 341 581 389 q 672 213 672 293 q 588 50 672 113 q 372 -12 504 -12 q 158 51 240 -12 q 68 233 76 115 l 232 233 q 274 144 236 176 q 376 113 311 113 q 478 141 440 113 q 517 217 517 169 q 471 290 517 264 q 359 330 425 317 q 227 360 293 343 q 115 424 161 378 q 69 546 69 469 m 296 -64 l 439 -64 q 457 -201 457 -137 q 301 -375 457 -375 l 301 -306 q 368 -226 368 -306 l 368 -197 l 296 -197 l 296 -64 z "},"Ț":{"ha":783,"x_min":54,"x_max":728,"o":"m 54 842 l 54 965 l 728 965 l 728 842 l 471 842 l 471 0 l 313 0 l 313 842 l 54 842 m 317 -64 l 460 -64 q 478 -201 478 -137 q 322 -375 478 -375 l 322 -306 q 389 -226 389 -306 l 389 -197 l 317 -197 l 317 -64 z "},"ț":{"ha":517,"x_min":39,"x_max":475,"o":"m 475 636 l 289 636 l 289 213 q 309 151 289 169 q 378 132 329 132 l 475 132 l 475 0 l 350 0 q 129 213 129 0 l 129 636 l 39 636 l 39 765 l 129 765 l 129 956 l 289 956 l 289 765 l 475 765 l 475 636 m 185 -64 l 328 -64 q 346 -201 346 -137 q 190 -375 346 -375 l 190 -306 q 257 -226 257 -306 l 257 -197 l 185 -197 l 185 -64 z "},"ʼ":{"ha":243,"x_min":42,"x_max":203,"o":"m 42 1110 l 185 1110 q 203 972 203 1036 q 47 799 203 799 l 47 868 q 114 947 114 868 l 114 976 l 42 976 l 42 1110 z "},"ˆ":{"ha":425,"x_min":14,"x_max":411,"o":"m 411 951 l 411 828 l 213 947 l 14 828 l 14 951 l 213 1067 l 411 951 z "},"ˇ":{"ha":425,"x_min":14,"x_max":411,"o":"m 213 947 l 411 1067 l 411 943 l 213 828 l 14 943 l 14 1067 l 213 947 z "},"ˉ":{"ha":536,"x_min":14,"x_max":522,"o":"m 14 882 l 14 1000 l 522 1000 l 522 882 l 14 882 z "},"˘":{"ha":446,"x_min":14,"x_max":432,"o":"m 432 1038 q 376 897 432 950 q 222 844 319 844 q 69 898 125 844 q 14 1039 14 951 l 14 1068 l 104 1068 q 131 993 104 1018 q 222 968 157 968 q 314 993 288 968 q 340 1068 340 1018 l 432 1068 l 432 1038 z "},"˙":{"ha":194,"x_min":14,"x_max":181,"o":"m 181 944 q 181 927 181 944 q 156 885 181 910 q 97 861 132 861 q 38 885 61 861 q 14 944 14 908 q 38 1003 14 979 q 97 1028 63 1028 q 156 1003 132 1028 q 181 944 181 979 z "},"˚":{"ha":331,"x_min":14,"x_max":317,"o":"m 166 922 q 181 922 166 922 q 217 942 196 922 q 238 994 238 963 q 217 1044 238 1025 q 165 1064 196 1064 q 115 1044 135 1064 q 94 994 94 1025 q 115 942 94 963 q 166 922 136 922 m 166 840 q 134 840 166 840 q 58 882 101 840 q 14 992 14 924 q 58 1103 14 1061 q 166 1144 101 1144 q 274 1103 231 1144 q 317 992 317 1061 q 274 882 317 924 q 166 840 231 840 z "},"˛":{"ha":368,"x_min":14,"x_max":339,"o":"m 65 -244 q 39 -223 65 -244 q 14 -133 14 -203 q 65 -26 14 -64 q 194 13 115 13 l 290 13 l 290 -83 l 222 -83 q 163 -94 182 -83 q 144 -133 144 -104 q 164 -174 144 -162 q 222 -185 183 -185 l 339 -185 l 339 -285 l 192 -285 q 65 -244 115 -285 z "},"˜":{"ha":494,"x_min":14,"x_max":481,"o":"m 14 844 q 67 966 25 925 q 160 1007 108 1007 q 259 976 211 1007 q 332 946 307 946 q 392 1004 383 946 l 481 1004 q 428 883 469 924 q 335 842 386 842 q 235 873 283 842 q 163 904 188 904 q 103 844 111 904 l 14 844 z "},"˝":{"ha":507,"x_min":14,"x_max":493,"o":"m 110 1071 l 247 1071 l 117 835 l 14 835 l 110 1071 m 357 1071 l 493 1071 l 343 835 l 240 835 l 357 1071 z "},"π":{"ha":981,"x_min":43,"x_max":931,"o":"m 43 642 l 43 765 l 931 765 l 931 642 l 824 642 l 824 0 l 667 0 l 667 642 l 307 642 l 307 0 l 149 0 l 149 642 l 43 642 z "},"ँ":{"ha":0,"x_min":-487,"x_max":82,"o":"m -125 1431 q -125 1415 -125 1431 q -148 1376 -125 1399 q -203 1353 -171 1353 q -259 1376 -236 1353 q -282 1431 -282 1399 q -259 1488 -282 1464 q -203 1511 -236 1511 q -148 1488 -171 1511 q -125 1431 -125 1464 m 82 1393 q 10 1204 82 1276 q -203 1132 -61 1132 q -416 1204 -344 1132 q -487 1393 -487 1276 l -361 1393 q -321 1290 -361 1332 q -203 1247 -281 1247 q -86 1290 -126 1247 q -46 1393 -46 1332 l 82 1393 z "},"ं":{"ha":0,"x_min":-294,"x_max":-103,"o":"m -131 1194 q -144 1181 -131 1194 q -199 1167 -158 1167 q -267 1194 -239 1167 q -294 1262 -294 1222 q -267 1330 -294 1301 q -199 1358 -239 1358 q -131 1330 -158 1358 q -103 1262 -103 1301 q -131 1194 -103 1222 z "},"ः":{"ha":257,"x_min":44,"x_max":214,"o":"m 214 274 q 214 256 214 274 q 189 213 214 238 q 128 189 164 189 q 69 214 93 189 q 44 274 44 239 q 69 333 44 308 q 128 358 93 358 q 189 334 164 358 q 214 274 214 310 m 214 684 q 214 666 214 684 q 189 624 214 649 q 128 599 164 599 q 69 624 93 599 q 44 683 44 649 q 69 743 44 718 q 128 768 93 768 q 189 744 164 768 q 214 684 214 719 z "},"अ":{"ha":1168,"x_min":119,"x_max":1211,"o":"m 893 1028 l 1211 1028 l 1211 896 l 1044 896 l 1044 0 l 893 0 l 893 425 l 710 425 q 718 363 718 396 q 636 153 718 229 q 420 78 554 78 q 203 154 286 78 q 119 363 119 231 l 263 363 q 306 250 263 293 q 422 207 350 207 q 535 249 493 207 q 576 363 576 292 q 399 508 576 508 l 351 508 l 351 643 l 396 643 q 514 677 468 643 q 560 774 560 711 q 522 874 560 836 q 418 911 483 911 q 313 874 353 911 q 272 775 274 836 l 131 775 q 213 968 131 894 q 420 1042 294 1042 q 624 972 546 1042 q 703 785 703 901 q 667 658 703 711 q 565 583 631 606 l 565 576 q 617 553 593 568 l 893 553 l 893 1028 z "},"आ":{"ha":1565,"x_min":119,"x_max":1610,"o":"m 1610 1028 l 1610 896 l 1443 896 l 1443 0 l 1292 0 l 1292 896 l 1044 896 l 1044 0 l 893 0 l 893 425 l 710 425 q 718 363 718 396 q 636 153 718 229 q 420 78 554 78 q 203 154 286 78 q 119 363 119 231 l 263 363 q 306 250 263 293 q 422 207 350 207 q 535 249 493 207 q 576 363 576 292 q 399 508 576 508 l 351 508 l 351 643 l 396 643 q 514 677 468 643 q 560 774 560 711 q 522 874 560 836 q 418 911 483 911 q 313 874 353 911 q 272 775 274 836 l 131 775 q 213 968 131 894 q 420 1042 294 1042 q 624 972 546 1042 q 703 785 703 901 q 667 658 703 711 q 565 583 631 606 l 565 576 q 617 553 593 568 l 893 553 l 893 1028 l 1610 1028 z "},"इ":{"ha":822,"x_min":-43,"x_max":865,"o":"m 674 640 l 451 640 q 329 621 372 640 q 286 545 286 601 q 327 470 286 489 q 433 451 368 451 q 540 447 499 451 q 623 427 581 442 q 694 389 665 413 q 758 224 758 333 q 685 48 758 115 q 481 -19 613 -19 q 285 61 350 -19 l 285 -110 l 140 -110 l 140 267 l 285 267 q 458 104 294 104 q 569 134 529 104 q 610 224 610 164 q 557 313 610 293 q 442 329 511 329 q 324 338 374 329 q 231 369 275 347 q 135 554 135 418 q 314 756 135 715 q 421 767 363 767 l 522 767 l 522 896 l -43 896 l -43 1028 l 865 1028 l 865 896 l 674 896 l 674 640 z "},"ई":{"ha":822,"x_min":-43,"x_max":1007,"o":"m 1007 1197 l 878 1197 q 774 1324 875 1324 q 689 1281 714 1324 q 664 1150 664 1238 l 664 1028 l 865 1028 l 865 896 l 674 896 l 674 640 l 451 640 q 329 621 372 640 q 286 545 286 601 q 327 470 286 489 q 433 451 368 451 q 540 447 499 451 q 623 427 581 442 q 694 389 665 413 q 758 224 758 333 q 685 48 758 115 q 481 -19 613 -19 q 285 61 350 -19 l 285 -110 l 140 -110 l 140 267 l 285 267 q 458 104 294 104 q 569 134 529 104 q 610 224 610 164 q 557 313 610 293 q 442 329 511 329 q 324 338 374 329 q 231 369 275 347 q 135 554 135 418 q 314 756 135 715 q 421 767 363 767 l 522 767 l 522 896 l -43 896 l -43 1028 l 531 1028 l 531 1149 q 775 1449 531 1449 q 947 1381 888 1449 q 1007 1197 1007 1314 z "},"उ":{"ha":801,"x_min":-47,"x_max":844,"o":"m 676 896 l 676 858 q 651 665 676 736 q 549 558 625 594 l 549 553 q 671 463 625 526 q 717 311 717 400 q 634 92 717 172 q 407 11 551 11 q 173 99 263 11 q 83 333 83 188 l 224 333 q 277 197 224 251 q 408 143 331 143 q 531 190 486 143 q 576 317 576 236 q 520 441 576 397 q 375 485 464 485 l 321 485 l 321 619 l 368 619 q 499 679 463 619 q 535 854 535 739 l 535 896 l -47 896 l -47 1028 l 844 1028 l 844 896 l 676 896 z "},"ऊ":{"ha":1185,"x_min":-43,"x_max":1228,"o":"m 676 896 l 676 858 q 650 665 676 736 q 547 557 624 594 l 547 549 l 804 549 q 1125 288 1125 549 q 1030 77 1125 138 q 769 33 935 17 l 769 153 q 926 172 874 144 q 978 281 978 200 q 933 392 978 363 q 804 422 889 422 l 692 422 q 717 311 717 374 q 634 92 717 172 q 407 11 551 11 q 173 99 263 11 q 83 333 83 188 l 224 333 q 276 197 224 251 q 408 143 329 143 q 531 189 486 143 q 576 316 576 235 q 519 441 576 397 q 374 485 463 485 l 319 485 l 319 619 l 368 619 q 499 679 463 619 q 535 854 535 739 l 535 896 l -43 896 l -43 1028 l 1228 1028 l 1228 896 l 676 896 z "},"ऋ":{"ha":1386,"x_min":-43,"x_max":1431,"o":"m 1431 896 l 817 896 l 817 653 l 1051 653 q 1115 671 1100 653 q 1129 738 1129 689 l 1129 786 l 1267 786 l 1267 294 l 1232 294 q 1085 165 1085 290 q 1128 69 1085 100 q 1228 38 1171 38 q 1325 49 1286 38 l 1325 -72 q 1226 -85 1279 -85 q 1022 -22 1101 -85 q 942 163 942 42 q 992 313 942 253 q 1129 392 1042 372 l 1129 532 q 1051 526 1100 526 l 817 526 l 817 0 l 667 0 l 667 336 l 343 0 l 147 0 l 147 8 l 656 492 q 583 599 635 560 q 442 638 531 638 q 297 574 354 638 q 239 403 239 510 l 89 403 q 181 667 89 567 q 428 768 272 768 q 667 658 585 768 l 667 896 l -43 896 l -43 1028 l 1431 1028 l 1431 896 z "},"ऌ":{"ha":1261,"x_min":-43,"x_max":1304,"o":"m 1131 -99 q 927 -36 1006 -99 q 849 147 849 26 q 897 296 849 236 q 1028 372 944 356 q 997 518 1032 458 q 874 578 961 578 q 713 306 697 578 l 571 306 q 413 578 586 578 q 257 376 257 578 q 319 207 257 264 q 499 158 382 150 l 499 24 q 212 105 318 8 q 106 368 106 201 q 182 624 106 535 q 399 713 258 713 q 552 671 489 713 q 643 553 615 629 q 800 694 679 668 l 800 896 l -43 896 l -43 1028 l 1304 1028 l 1304 896 l 946 896 l 946 707 q 1115 607 1053 689 q 1176 388 1176 525 q 1165 281 1176 339 l 1139 281 q 990 151 990 281 q 1033 56 990 88 q 1130 24 1076 24 q 1231 35 1183 24 l 1231 -86 q 1131 -99 1185 -99 z "},"ऍ":{"ha":896,"x_min":-72,"x_max":942,"o":"m 942 1028 l 942 896 l 788 896 l 788 733 q 715 500 788 569 q 482 433 643 431 l 482 572 q 603 605 572 574 q 635 733 635 636 l 635 896 l 272 896 l 272 363 q 458 158 272 158 q 639 335 639 158 l 788 335 q 700 108 788 189 q 451 26 613 26 q 205 120 289 26 q 121 374 121 214 l 119 896 l -72 896 l -72 1028 l 942 1028 m 356 1404 l 544 1404 q 471 1211 544 1235 q 451 1178 463 1178 q 431 1211 439 1178 q 356 1404 356 1232 z "},"ए":{"ha":928,"x_min":-43,"x_max":971,"o":"m 971 1028 l 971 896 l 817 896 l 817 733 q 744 500 817 569 q 511 433 672 431 l 511 572 q 633 605 601 574 q 664 733 664 636 l 664 896 l 301 896 l 301 363 q 488 158 301 158 q 668 335 668 158 l 817 335 q 729 108 817 189 q 480 26 642 26 q 234 120 318 26 q 150 374 150 214 l 149 896 l -43 896 l -43 1028 l 971 1028 z "},"ऐ":{"ha":928,"x_min":-43,"x_max":971,"o":"m 971 1028 l 971 896 l 817 896 l 817 733 q 744 500 817 569 q 511 433 672 431 l 511 572 q 633 605 601 574 q 664 733 664 636 l 664 896 l 301 896 l 301 363 q 488 158 301 158 q 668 335 668 158 l 817 335 q 729 108 817 189 q 480 26 642 26 q 234 120 318 26 q 150 374 150 214 l 149 896 l -43 896 l -43 1028 l 624 1028 q 474 1209 524 1176 q 293 1242 424 1242 l 236 1242 l 236 1365 l 286 1365 q 402 1360 360 1365 q 493 1337 444 1354 q 581 1283 542 1319 q 769 1028 663 1203 l 971 1028 z "},"ऑ":{"ha":1581,"x_min":133,"x_max":1624,"o":"m 1624 1028 l 1624 896 l 1457 896 l 1457 0 l 1306 0 l 1306 896 l 1058 896 l 1058 0 l 907 0 l 907 425 l 724 425 q 732 363 732 396 q 650 153 732 229 q 434 78 568 78 q 217 154 300 78 q 133 363 133 231 l 276 363 q 320 250 276 293 q 435 207 364 207 q 549 249 507 207 q 590 363 590 292 q 413 508 590 508 l 365 508 l 365 643 l 410 643 q 528 677 482 643 q 574 774 574 711 q 535 874 574 836 q 432 911 497 911 q 327 874 367 911 q 286 775 288 836 l 144 775 q 226 968 144 894 q 434 1042 308 1042 q 638 972 560 1042 q 717 785 717 901 q 681 658 717 711 q 579 583 644 606 l 579 576 q 631 553 607 568 l 907 553 l 907 1028 l 1624 1028 m 1351 1393 l 1482 1393 q 1415 1203 1482 1274 q 1204 1132 1349 1132 q 994 1203 1060 1132 q 928 1393 928 1274 l 1058 1393 q 1093 1290 1058 1331 q 1204 1249 1128 1249 q 1316 1290 1281 1249 q 1351 1393 1351 1331 z "},"ओ":{"ha":1581,"x_min":133,"x_max":1624,"o":"m 1624 1028 l 1624 896 l 1457 896 l 1457 0 l 1306 0 l 1306 896 l 1058 896 l 1058 0 l 907 0 l 907 425 l 724 425 q 732 363 732 396 q 650 153 732 229 q 434 78 568 78 q 217 154 300 78 q 133 363 133 231 l 276 363 q 320 250 276 293 q 435 207 364 207 q 549 249 507 207 q 590 363 590 292 q 413 508 590 508 l 365 508 l 365 643 l 410 643 q 528 677 482 643 q 574 774 574 711 q 535 874 574 836 q 432 911 497 911 q 327 874 367 911 q 286 775 288 836 l 144 775 q 226 968 144 894 q 434 1042 308 1042 q 638 972 560 1042 q 717 785 717 901 q 681 658 717 711 q 579 583 644 606 l 579 576 q 631 553 607 568 l 907 553 l 907 1028 l 1317 1028 q 1167 1209 1217 1176 q 986 1242 1117 1242 l 929 1242 l 929 1365 l 979 1365 q 1095 1360 1053 1365 q 1186 1337 1138 1354 q 1272 1283 1235 1319 q 1463 1028 1356 1203 l 1624 1028 z "},"औ":{"ha":1628,"x_min":181,"x_max":1671,"o":"m 1671 1028 l 1671 896 l 1504 896 l 1504 0 l 1353 0 l 1353 896 l 1106 896 l 1106 0 l 954 0 l 954 425 l 771 425 q 779 363 779 396 q 697 153 779 229 q 481 78 615 78 q 264 154 347 78 q 181 363 181 231 l 324 363 q 367 250 324 293 q 483 207 411 207 q 596 249 554 207 q 638 363 638 292 q 460 508 638 508 l 413 508 l 413 643 l 457 643 q 575 677 529 643 q 621 774 621 711 q 583 874 621 836 q 479 911 544 911 q 374 874 414 911 q 333 775 335 836 l 192 775 q 274 968 192 894 q 481 1042 356 1042 q 685 972 607 1042 q 764 785 764 901 q 728 658 764 711 q 626 583 692 606 l 626 576 q 678 553 654 568 l 954 553 l 954 1028 l 1356 1028 q 1231 1106 1286 1092 q 1042 1119 1175 1119 l 985 1119 l 985 1226 l 1035 1226 q 1212 1213 1156 1226 q 1340 1136 1268 1199 q 1212 1272 1272 1242 q 1036 1301 1151 1301 l 979 1301 l 979 1410 l 1029 1410 q 1144 1403 1101 1410 q 1232 1376 1186 1396 q 1317 1314 1278 1357 q 1500 1028 1392 1228 l 1671 1028 z "},"क":{"ha":1394,"x_min":-43,"x_max":1439,"o":"m 1439 896 l 790 896 l 790 672 q 1000 775 858 775 q 1222 684 1142 775 q 1303 442 1303 593 q 1191 206 1303 290 q 913 146 1079 121 l 911 271 q 1087 306 1022 258 q 1151 447 1151 353 q 1103 592 1151 540 q 967 643 1056 643 q 835 587 879 643 q 790 431 790 531 l 790 0 l 643 0 l 643 235 q 426 131 571 131 q 198 222 282 131 q 114 452 114 313 q 197 683 114 592 q 425 775 281 775 q 643 669 569 775 l 643 896 l -43 896 l -43 1028 l 1439 1028 l 1439 896 m 265 452 q 265 407 265 452 q 315 313 265 363 q 455 263 365 263 q 594 313 544 263 q 643 452 643 364 q 593 591 643 540 q 453 642 543 642 q 315 592 364 642 q 265 452 265 542 z "},"ख":{"ha":1289,"x_min":-43,"x_max":1333,"o":"m -43 1028 l 1333 1028 l 1333 896 l 1165 896 l 1165 0 l 1019 0 l 1019 267 q 825 183 957 183 q 793 185 803 183 q 671 47 758 96 q 465 -3 583 -3 q 206 89 301 -3 q 110 346 110 181 l 110 565 l 153 565 q 303 589 254 565 q 356 703 346 613 q 361 814 361 744 l 361 896 l -43 896 l -43 1028 m 261 336 q 464 129 261 129 q 658 239 618 129 q 554 469 554 318 q 630 673 554 593 q 831 753 706 753 q 1019 672 957 753 l 1019 896 l 511 896 l 511 814 q 461 539 511 613 q 261 456 411 465 l 261 336 m 694 469 q 694 432 694 469 q 740 351 694 394 q 858 308 785 308 q 975 351 932 308 q 1018 469 1018 394 q 976 586 1018 543 q 859 629 933 629 q 740 586 785 629 q 694 469 694 543 z "},"ग":{"ha":1032,"x_min":-43,"x_max":1076,"o":"m -43 1028 l 1076 1028 l 1076 896 l 908 896 l 908 0 l 758 0 l 758 896 l 506 896 l 506 578 q 453 358 506 432 q 275 285 400 285 q 39 569 31 285 l 189 569 q 229 429 189 454 q 276 418 247 418 q 324 430 306 418 q 350 467 342 442 q 361 575 361 506 l 361 896 l -43 896 l -43 1028 z "},"घ":{"ha":967,"x_min":-43,"x_max":1010,"o":"m 1010 1028 l 1010 896 l 843 896 l 843 0 l 692 0 l 692 264 q 411 146 601 146 q 193 211 285 146 q 101 397 101 276 q 140 524 101 471 q 239 601 178 576 l 239 610 q 147 699 172 640 q 122 867 122 758 l 122 896 l -43 896 l -43 1028 l 1010 1028 m 692 494 l 692 896 l 275 896 l 275 867 q 307 713 275 758 q 435 668 339 668 l 489 668 l 489 542 l 432 542 q 301 507 350 542 q 253 406 253 472 q 306 306 253 339 q 453 274 360 274 q 619 334 547 274 q 692 494 692 394 z "},"ङ":{"ha":939,"x_min":-43,"x_max":982,"o":"m -43 1028 l 982 1028 l 982 896 l 656 896 l 656 640 l 433 640 q 311 621 354 640 q 268 545 268 601 q 308 470 268 489 q 415 451 349 451 q 522 447 481 451 q 605 427 563 442 q 675 388 647 413 q 740 222 740 331 q 659 47 740 114 q 433 -19 578 -19 q 194 56 288 -19 q 97 267 100 131 l 246 267 q 436 104 257 104 q 590 224 590 104 q 547 308 590 288 q 429 329 503 329 q 306 338 356 329 q 211 369 257 347 q 115 554 115 418 q 294 756 115 715 q 401 767 343 767 l 504 767 l 504 896 l -43 896 l -43 1028 m 744 581 q 758 594 744 581 q 808 607 771 607 q 872 581 846 607 q 899 517 899 554 q 872 452 899 479 q 808 425 846 425 q 744 452 771 425 q 718 517 718 479 q 744 581 718 554 z "},"च":{"ha":1021,"x_min":-43,"x_max":1064,"o":"m -43 1028 l 1064 1028 l 1064 896 l 897 896 l 897 0 l 746 0 l 746 246 q 507 131 674 131 q 283 207 374 131 q 193 408 193 283 q 282 603 193 532 l 68 603 l 68 725 l 576 725 l 576 603 l 532 603 q 392 557 444 603 q 339 430 339 511 q 393 305 339 349 q 538 261 447 261 q 687 328 628 261 q 746 494 746 394 l 746 896 l -43 896 l -43 1028 z "},"छ":{"ha":1143,"x_min":-43,"x_max":1186,"o":"m 1186 896 l 904 896 l 904 764 q 1028 662 986 738 q 1071 472 1071 586 q 940 158 1071 274 q 571 43 810 43 q 176 169 300 43 q 108 329 108 239 q 260 564 108 501 l 260 572 q 158 666 185 600 q 131 854 131 732 l 131 896 l -43 896 l -43 1028 l 1186 1028 l 1186 896 m 282 896 l 282 849 q 315 678 282 726 q 450 631 347 631 l 468 631 l 468 503 l 446 503 q 312 464 363 503 q 261 356 261 425 q 307 247 261 288 q 566 174 389 174 q 842 249 743 174 q 940 479 940 325 q 906 613 940 567 q 810 658 872 658 q 715 603 747 658 q 685 401 682 549 l 554 401 q 599 671 547 583 q 758 774 650 758 l 760 896 l 282 896 z "},"ज":{"ha":1161,"x_min":-43,"x_max":1204,"o":"m -43 1028 l 1204 1028 l 1204 896 l 1038 896 l 1038 0 l 886 0 l 886 582 l 665 582 l 665 494 q 601 233 665 325 q 381 142 538 142 q 144 247 210 142 q 86 494 86 342 l 86 707 l 238 707 l 238 528 q 272 319 238 365 q 379 274 306 274 q 486 319 450 274 q 515 443 511 351 q 517 528 517 474 l 517 707 l 886 707 l 886 896 l -43 896 l -43 1028 z "},"झ":{"ha":1174,"x_min":-43,"x_max":1217,"o":"m 1217 1028 l 1217 896 l 1050 896 l 1050 0 l 899 0 l 899 364 l 676 364 q 725 263 725 335 q 659 99 725 164 q 471 33 593 33 q 356 56 410 33 q 275 115 303 78 l 275 -60 l 131 -60 l 131 304 l 275 304 q 323 195 278 235 q 439 156 368 156 q 583 269 583 156 q 536 353 583 338 q 436 365 499 365 q 336 369 374 365 q 256 385 299 372 q 188 419 214 397 q 125 578 125 472 q 411 781 125 781 l 513 781 l 513 896 l -43 896 l -43 1028 l 1217 1028 m 899 485 l 899 896 l 664 896 l 664 654 l 442 654 q 308 635 339 654 q 276 567 276 615 q 312 501 276 518 q 418 485 347 485 l 899 485 z "},"ञ":{"ha":1157,"x_min":-43,"x_max":1200,"o":"m -43 1028 l 1200 1028 l 1200 896 l 1033 896 l 1033 0 l 882 0 l 882 394 l 725 394 q 626 197 708 271 q 405 124 543 124 q 185 192 267 124 q 86 365 103 261 l 235 365 q 291 287 247 318 q 415 256 335 256 q 539 309 494 256 q 583 456 583 363 q 539 604 583 550 q 415 658 494 658 q 291 627 335 658 q 235 549 247 596 l 86 549 q 185 720 103 651 q 404 789 268 789 q 623 717 540 789 q 724 525 706 644 l 882 525 l 882 896 l -43 896 l -43 1028 z "},"ट":{"ha":913,"x_min":-43,"x_max":956,"o":"m 626 640 l 526 640 q 319 583 396 640 q 242 415 242 525 q 306 242 242 304 q 476 181 371 181 q 642 242 582 181 q 703 411 703 304 l 849 411 q 747 146 849 243 q 476 49 646 49 q 200 147 307 49 q 93 410 93 246 q 198 669 93 575 q 475 771 303 764 l 475 896 l -43 896 l -43 1028 l 956 1028 l 956 896 l 626 896 l 626 640 z "},"ठ":{"ha":931,"x_min":-43,"x_max":974,"o":"m 704 415 q 704 466 704 415 q 641 579 704 517 q 474 642 578 642 q 308 579 371 642 q 244 415 244 517 q 308 251 244 314 q 474 189 371 189 q 641 251 578 189 q 704 415 704 314 m 549 764 q 769 650 685 744 q 853 405 853 556 q 746 156 853 254 q 474 58 639 58 q 202 157 308 58 q 96 406 96 256 q 179 649 96 556 q 399 764 263 743 l 399 896 l -43 896 l -43 1028 l 974 1028 l 974 896 l 549 896 l 549 764 z "},"ड":{"ha":803,"x_min":-43,"x_max":846,"o":"m 656 640 l 433 640 q 311 621 354 640 q 268 545 268 601 q 308 470 268 489 q 415 451 349 451 q 522 447 481 451 q 605 427 563 442 q 675 388 647 413 q 740 222 740 331 q 659 47 740 114 q 433 -19 578 -19 q 194 56 288 -19 q 97 267 100 131 l 246 267 q 436 104 257 104 q 590 224 590 104 q 547 308 590 288 q 429 329 503 329 q 306 338 356 329 q 211 369 257 347 q 115 554 115 418 q 294 756 115 715 q 401 767 343 767 l 504 767 l 504 896 l -43 896 l -43 1028 l 846 1028 l 846 896 l 656 896 l 656 640 z "},"ढ":{"ha":886,"x_min":-43,"x_max":929,"o":"m 668 653 l 553 653 q 324 585 408 653 q 239 391 239 517 q 315 200 239 265 q 519 135 390 135 q 655 173 607 135 q 703 269 703 211 q 596 390 703 390 q 493 269 493 390 l 360 269 q 418 447 358 381 q 591 513 478 513 q 774 449 704 513 q 844 281 844 386 q 752 76 844 150 q 515 3 660 3 q 210 105 329 3 q 90 391 90 207 q 208 675 90 575 q 517 782 326 775 l 517 896 l -43 896 l -43 1028 l 929 1028 l 929 896 l 668 896 l 668 653 z "},"ण":{"ha":1208,"x_min":-43,"x_max":1253,"o":"m -43 1028 l 1253 1028 l 1253 896 l 1085 896 l 1085 0 l 935 0 l 935 896 l 711 896 l 711 550 q 421 221 711 221 q 131 550 131 221 l 131 896 l -43 896 l -43 1028 m 561 544 l 561 896 l 279 896 l 279 544 q 310 401 279 450 q 421 353 340 353 q 531 401 501 353 q 561 544 561 450 z "},"त":{"ha":946,"x_min":-43,"x_max":990,"o":"m 479 122 l 479 -1 l 453 -1 q 180 88 274 -1 q 86 349 86 176 q 194 604 86 521 q 482 688 301 688 l 672 688 l 672 896 l -43 896 l -43 1028 l 990 1028 l 990 896 l 822 896 l 822 0 l 672 0 l 672 556 l 485 556 q 304 503 371 556 q 238 342 238 451 q 294 178 238 233 q 479 122 351 122 z "},"थ":{"ha":1067,"x_min":90,"x_max":1110,"o":"m 119 632 l 260 631 q 455 663 390 631 q 519 783 519 696 q 488 874 519 842 q 397 907 456 907 q 307 867 338 907 q 279 758 276 826 l 138 758 q 206 963 132 886 q 399 1040 281 1040 q 591 971 517 1040 q 665 779 665 901 q 274 515 665 510 q 330 328 267 399 q 515 257 393 257 q 713 333 636 257 q 792 533 789 408 l 792 1028 l 1110 1028 l 1110 896 l 943 896 l 943 0 l 792 0 l 792 265 q 684 166 758 207 q 501 125 610 125 q 192 266 294 125 q 119 632 90 407 z "},"द":{"ha":835,"x_min":-43,"x_max":878,"o":"m 736 -11 l 586 -11 l 586 179 q 401 114 535 114 q 176 199 268 114 q 85 444 85 283 q 194 686 85 604 q 488 768 303 768 l 536 768 l 536 896 l -43 896 l -43 1028 l 878 1028 l 878 896 l 688 896 l 688 632 l 503 632 q 236 431 236 632 q 290 292 236 339 q 426 244 343 244 q 600 396 600 244 l 736 396 l 736 -11 z "},"ध":{"ha":1007,"x_min":124,"x_max":1049,"o":"m 1049 1028 l 1049 896 l 883 896 l 883 0 l 732 0 l 732 250 q 444 133 640 133 q 222 200 315 133 q 129 383 129 267 q 276 586 129 532 l 276 594 q 166 676 208 619 q 124 824 124 733 q 190 978 124 915 q 369 1042 257 1042 q 544 969 481 1042 q 600 783 608 897 l 474 783 q 449 876 476 842 q 372 910 422 910 q 292 881 321 910 q 263 803 263 851 q 319 690 263 726 q 467 653 376 653 l 542 653 l 542 526 l 481 526 q 336 496 392 526 q 281 397 281 465 q 338 296 281 329 q 475 263 394 263 q 658 328 585 263 q 732 501 732 393 l 732 1028 l 1049 1028 z "},"न":{"ha":1097,"x_min":-43,"x_max":1142,"o":"m 506 400 q 506 434 506 400 q 467 507 506 468 q 362 546 428 546 q 253 508 296 546 q 210 400 210 469 q 254 292 210 331 q 362 254 299 254 q 465 293 425 254 q 506 400 506 332 m 824 0 l 824 549 l 563 549 q 639 379 639 496 q 565 192 639 263 q 363 122 490 122 q 153 199 236 122 q 69 404 69 275 q 155 606 69 533 q 393 678 240 678 l 824 678 l 824 896 l -43 896 l -43 1028 l 1142 1028 l 1142 896 l 974 896 l 974 0 l 824 0 z "},"प":{"ha":924,"x_min":-43,"x_max":967,"o":"m -43 1028 l 967 1028 l 967 896 l 800 896 l 800 0 l 649 0 l 649 371 q 430 264 581 264 q 200 362 279 264 q 121 615 121 460 l 121 896 l -43 896 l -43 1028 m 272 896 l 272 615 q 463 396 272 396 q 597 453 546 396 q 649 604 649 511 l 649 896 l 272 896 z "},"फ":{"ha":1368,"x_min":-43,"x_max":1411,"o":"m 1411 896 l 776 896 l 776 643 q 990 747 849 747 q 1213 660 1132 747 q 1293 429 1293 574 q 1193 201 1293 285 q 929 132 1093 118 l 928 260 q 1088 298 1028 251 q 1147 432 1147 344 q 1100 567 1147 519 q 965 614 1053 614 q 827 555 878 614 q 776 404 776 496 l 776 0 l 625 0 l 625 406 q 416 306 558 306 q 199 403 274 306 q 125 656 125 500 l 125 896 l -43 896 l -43 1028 l 1411 1028 l 1411 896 m 276 896 l 276 654 q 316 492 276 547 q 446 436 356 436 q 581 498 536 436 q 625 657 625 560 l 625 896 l 276 896 z "},"ब":{"ha":931,"x_min":-43,"x_max":975,"o":"m -43 1028 l 975 1028 l 975 896 l 807 896 l 807 0 l 661 0 l 661 221 q 423 106 581 106 q 167 202 265 106 q 69 449 69 299 q 167 696 69 600 q 423 792 265 792 q 661 675 581 792 l 661 896 l -43 896 l -43 1028 m 667 449 q 604 608 667 546 q 449 671 542 671 q 293 628 356 671 l 650 360 q 667 449 667 399 m 207 449 q 272 286 207 346 q 435 226 338 226 q 593 279 532 226 l 229 553 q 207 449 207 504 z "},"भ":{"ha":1142,"x_min":117,"x_max":1185,"o":"m 1185 1028 l 1185 896 l 1018 896 l 1018 0 l 867 0 l 867 506 l 658 506 l 658 432 q 393 121 658 121 q 196 193 275 121 q 117 381 117 265 q 446 633 117 633 l 515 633 l 515 733 q 493 859 515 814 q 410 904 471 904 q 327 859 349 904 q 306 729 306 814 l 157 729 q 408 1038 154 1038 q 658 732 658 1038 l 658 633 l 867 633 l 867 1028 l 1185 1028 m 515 428 l 515 506 l 440 506 q 308 476 354 506 q 261 384 261 447 q 297 286 261 321 q 397 251 333 251 q 488 296 460 251 q 515 428 515 340 z "},"म":{"ha":1119,"x_min":-43,"x_max":1163,"o":"m 1163 1028 l 1163 896 l 996 896 l 996 0 l 844 0 l 844 508 l 614 508 l 614 435 q 349 124 614 124 q 151 196 231 124 q 72 383 72 268 q 400 636 72 636 l 471 636 l 471 896 l -43 896 l -43 1028 l 1163 1028 m 471 431 l 471 508 l 396 508 q 263 479 310 508 q 215 386 215 450 q 252 288 215 322 q 352 254 289 254 q 443 299 415 254 q 471 431 471 343 m 844 636 l 844 896 l 614 896 l 614 636 l 844 636 z "},"य":{"ha":1022,"x_min":-43,"x_max":1065,"o":"m -43 1028 l 1065 1028 l 1065 896 l 899 896 l 899 0 l 747 0 l 747 272 q 472 136 665 136 q 181 267 279 136 q 93 618 82 397 q 267 644 218 618 q 310 675 294 660 q 333 722 325 690 q 343 858 343 768 l 343 896 l -43 896 l -43 1028 m 493 896 l 493 854 q 446 608 493 683 q 250 522 399 533 q 315 338 249 408 q 498 268 381 268 q 681 344 615 268 q 747 544 747 421 l 747 896 l 493 896 z "},"र":{"ha":728,"x_min":-43,"x_max":772,"o":"m 631 896 l 631 833 q 558 528 631 604 q 258 450 485 451 l 258 296 q 387 129 258 129 q 515 293 515 129 l 665 293 q 594 75 665 153 q 387 -3 522 -3 q 178 76 251 -3 q 106 294 106 154 l 106 574 q 374 586 321 574 q 464 665 443 603 q 479 836 479 715 l 479 896 l -43 896 l -43 1028 l 772 1028 l 772 896 l 631 896 z "},"ऱ":{"ha":728,"x_min":-46,"x_max":772,"o":"m 631 896 l 631 833 q 558 528 631 604 q 258 450 485 451 l 258 296 q 387 129 258 129 q 515 293 515 129 l 665 293 q 594 75 665 153 q 387 -3 522 -3 q 178 76 251 -3 q 106 294 106 154 l 106 574 q 374 586 321 574 q 464 665 443 603 q 479 836 479 715 l 479 896 l -43 896 l -43 1028 l 772 1028 l 772 896 l 631 896 m -17 8 q -3 22 -17 8 q 50 36 11 36 q 117 8 89 36 q 146 -60 146 -19 q 117 -128 146 -100 q 50 -156 89 -156 q -17 -128 11 -156 q -46 -60 -46 -100 q -17 8 -46 -19 z "},"ल":{"ha":1261,"x_min":-43,"x_max":1304,"o":"m 413 578 q 257 376 257 578 q 319 207 257 264 q 499 158 382 150 l 499 24 q 212 105 318 8 q 106 368 106 201 q 182 624 106 535 q 399 713 258 713 q 552 671 489 713 q 643 553 615 629 q 800 694 679 668 l 800 896 l -43 896 l -43 1028 l 1304 1028 l 1304 896 l 946 896 l 946 707 q 1118 601 1058 688 q 1178 375 1178 515 q 1072 105 1178 201 q 785 24 965 8 l 785 158 q 964 207 901 150 q 1026 376 1026 264 q 871 578 1026 578 q 713 306 697 578 l 571 306 q 413 578 586 578 z "},"ळ":{"ha":1299,"x_min":-43,"x_max":1343,"o":"m 1343 896 l 982 896 l 982 707 q 1182 606 1104 692 q 1260 384 1260 519 q 1169 160 1260 249 q 936 71 1078 71 q 774 113 847 71 q 664 233 700 156 q 555 113 629 154 q 393 71 481 71 q 160 160 251 71 q 69 390 69 249 q 161 621 69 532 q 393 710 253 710 q 553 669 481 710 q 664 547 626 628 q 835 696 714 658 l 835 896 l -43 896 l -43 1028 l 1343 1028 l 1343 896 m 217 390 q 217 348 217 390 q 269 254 217 306 q 405 203 321 203 q 540 255 489 203 q 590 390 590 307 q 539 526 589 474 q 405 578 489 578 q 269 526 321 578 q 217 390 217 475 m 1060 254 q 1086 280 1060 254 q 1113 390 1113 306 q 1060 526 1113 475 q 925 578 1008 578 q 790 525 842 578 q 739 390 739 472 q 790 255 739 307 q 925 203 842 203 q 1060 254 1008 203 z "},"व":{"ha":899,"x_min":-43,"x_max":942,"o":"m -43 1028 l 942 1028 l 942 896 l 775 896 l 775 0 l 629 0 l 629 229 q 388 117 549 117 q 159 212 250 117 q 68 449 68 307 q 159 686 68 590 q 388 782 250 782 q 629 668 550 782 l 629 896 l -43 896 l -43 1028 m 629 449 l 629 450 q 573 597 629 542 q 423 651 517 651 q 273 597 329 651 q 217 449 217 542 q 273 301 217 356 q 423 246 329 246 q 573 301 517 246 q 629 449 629 356 z "},"श":{"ha":1144,"x_min":133,"x_max":1188,"o":"m 1188 896 l 1021 896 l 1021 0 l 869 0 l 869 1028 l 1188 1028 l 1188 896 m 288 442 l 288 283 q 324 169 288 208 q 434 129 361 129 q 540 176 507 129 q 572 311 572 222 l 721 311 q 432 -3 718 -3 q 215 74 296 -3 q 135 289 135 150 l 135 568 q 260 567 164 567 q 403 573 357 567 q 494 597 450 579 q 586 754 586 633 q 549 867 586 826 q 436 907 511 907 q 324 853 361 907 q 290 715 288 800 l 140 715 q 211 947 133 853 q 432 1040 289 1040 q 656 962 575 1040 q 738 756 738 883 q 641 520 738 593 q 367 442 544 447 l 288 442 z "},"ष":{"ha":929,"x_min":-43,"x_max":972,"o":"m -43 1028 l 972 1028 l 972 896 l 806 896 l 806 0 l 654 0 l 654 361 q 422 251 588 251 q 199 346 279 251 q 119 593 119 440 l 119 896 l -43 896 l -43 1028 m 654 896 l 271 896 l 271 892 l 654 600 l 654 896 m 271 604 q 318 442 271 500 q 465 383 365 383 q 632 490 583 383 l 271 764 l 271 604 z "},"स":{"ha":1119,"x_min":-43,"x_max":1163,"o":"m 1163 1028 l 1163 896 l 996 896 l 996 0 l 844 0 l 844 464 l 260 464 l 260 289 q 389 129 260 129 q 490 176 461 129 q 517 313 518 224 l 667 313 q 390 -3 667 -3 q 181 78 254 -3 q 107 294 107 158 l 107 575 l 188 575 q 310 586 267 575 l 311 589 l 324 589 q 419 667 396 610 q 442 850 442 724 l 442 896 l -43 896 l -43 1028 l 1163 1028 m 844 589 l 844 896 l 592 896 l 592 846 q 543 589 592 668 l 844 589 z "},"ह":{"ha":850,"x_min":-43,"x_max":894,"o":"m 674 646 l 436 646 q 292 551 292 646 q 360 463 292 492 q 444 471 400 471 q 665 403 578 471 q 757 232 751 336 l 610 232 q 558 312 600 282 q 440 342 515 342 q 317 296 365 342 q 268 173 268 250 q 316 49 268 96 q 440 1 364 1 q 558 31 515 1 q 610 111 600 61 l 757 111 q 665 -60 751 7 q 437 -128 578 -128 q 207 -45 296 -128 q 118 182 118 38 q 228 407 118 326 q 142 564 142 464 q 214 718 142 664 q 415 772 286 772 l 522 772 l 522 896 l -43 896 l -43 1028 l 894 1028 l 894 896 l 674 896 l 674 646 z "},"़":{"ha":0,"x_min":-558,"x_max":-367,"o":"m -394 -233 q -408 -247 -394 -233 q -462 -261 -422 -261 q -531 -233 -503 -261 q -558 -165 -558 -206 q -531 -97 -558 -125 q -462 -69 -503 -69 q -394 -97 -422 -69 q -367 -165 -367 -125 q -394 -233 -367 -206 z "},"ऽ":{"ha":836,"x_min":74,"x_max":760,"o":"m 558 801 q 449 785 486 801 q 413 730 413 769 q 454 630 413 690 q 546 510 496 569 q 638 374 596 451 q 679 224 679 296 q 619 115 679 151 q 425 78 558 78 l 74 78 l 74 210 l 401 210 q 492 219 465 210 q 519 258 519 228 q 492 331 519 288 q 425 424 464 375 q 347 528 386 474 q 251 751 251 656 q 318 890 251 846 q 493 933 385 933 l 760 933 l 760 801 l 558 801 z "},"ा":{"ha":399,"x_min":-43,"x_max":442,"o":"m 442 896 l 275 896 l 275 0 l 124 0 l 124 896 l -43 896 l -43 1028 l 442 1028 l 442 896 z "},"ि":{"ha":399,"x_min":-43,"x_max":1225,"o":"m 126 1028 l 126 1044 q 170 1216 126 1144 q 293 1326 214 1288 q 466 1383 372 1365 q 675 1400 560 1400 q 884 1383 790 1400 q 1058 1326 978 1365 q 1181 1216 1138 1288 q 1225 1044 1225 1144 l 1225 972 l 1075 972 l 1075 1029 q 947 1231 1075 1181 q 675 1271 843 1271 q 403 1231 506 1271 q 276 1029 276 1179 l 276 1028 l 442 1028 l 442 896 l 275 896 l 275 0 l 124 0 l 124 896 l -43 896 l -43 1028 l 126 1028 z "},"ी":{"ha":399,"x_min":-274,"x_max":442,"o":"m 271 1028 l 442 1028 l 442 896 l 275 896 l 275 0 l 124 0 l 124 896 l -43 896 l -43 1028 l 126 1028 l 126 1067 q 100 1223 126 1174 q -1 1272 74 1272 q -103 1223 -76 1272 q -129 1067 -129 1174 l -129 972 l -274 972 l -274 1076 q -212 1315 -274 1231 q -1 1400 -151 1400 q 210 1315 149 1400 q 271 1076 271 1231 l 271 1028 z "},"ु":{"ha":0,"x_min":-597,"x_max":21,"o":"m -269 79 q -52 22 -125 85 q 21 -157 21 -42 q -53 -337 21 -272 q -273 -403 -126 -403 q -507 -324 -419 -403 q -597 -101 -594 -244 l -458 -101 q -262 -279 -454 -279 q -115 -160 -115 -279 q -153 -72 -115 -99 q -269 -43 -190 -44 l -269 79 z "},"ू":{"ha":0,"x_min":-469,"x_max":158,"o":"m -192 -399 q -392 -351 -315 -411 q -469 -172 -469 -292 q -390 9 -469 -53 q -196 71 -311 71 q 111 -119 31 71 q 156 -383 158 -231 l 22 -383 q -26 -135 25 -221 q -196 -50 -76 -50 q -300 -81 -260 -50 q -340 -173 -340 -112 q -299 -261 -340 -233 q -192 -279 -258 -289 l -192 -399 z "},"ृ":{"ha":0,"x_min":-431,"x_max":-74,"o":"m -129 0 l -153 0 q -287 -125 -287 0 q -254 -215 -287 -182 q -164 -249 -221 -249 q -74 -233 -107 -249 l -74 -356 q -169 -372 -114 -372 q -359 -306 -287 -372 q -431 -128 -431 -239 q -360 49 -431 -17 q -160 114 -289 114 q -129 113 -135 114 l -129 0 z "},"ॄ":{"ha":0,"x_min":-446,"x_max":-111,"o":"m -111 -608 l -165 -608 q -366 -560 -287 -608 q -444 -404 -444 -511 q -333 -251 -444 -297 q -415 -190 -385 -231 q -446 -86 -446 -149 q -403 22 -446 -24 q -176 100 -328 100 l -135 100 l -135 0 l -164 0 q -304 -93 -304 0 q -264 -167 -304 -147 q -154 -186 -224 -186 l -111 -186 l -111 -304 l -162 -304 q -266 -326 -229 -306 q -303 -400 -303 -346 q -162 -490 -303 -490 l -111 -490 l -111 -608 z "},"ॅ":{"ha":0,"x_min":-487,"x_max":82,"o":"m 82 1393 q 12 1203 82 1275 q -203 1132 -58 1132 q -417 1203 -347 1132 q -487 1393 -487 1275 l -357 1393 q -319 1290 -357 1332 q -203 1249 -281 1249 q -87 1290 -126 1249 q -49 1393 -49 1332 l 82 1393 z "},"े":{"ha":0,"x_min":-668,"x_max":-129,"o":"m -611 1242 l -668 1242 l -668 1365 l -618 1365 q -501 1360 -543 1365 q -410 1337 -458 1354 q -322 1281 -361 1319 q -129 1018 -235 1196 l -274 1018 q -360 1141 -332 1104 q -427 1205 -387 1178 q -503 1237 -467 1232 q -611 1242 -539 1242 z "},"ै":{"ha":0,"x_min":-654,"x_max":-126,"o":"m -654 1410 l -604 1410 q -463 1400 -512 1410 q -358 1349 -414 1390 q -251 1231 -301 1307 q -126 1015 -201 1156 l -264 1015 q -397 1104 -340 1089 q -592 1119 -454 1119 l -649 1119 l -649 1226 l -599 1226 q -422 1213 -478 1226 q -293 1136 -365 1199 q -422 1272 -361 1242 q -597 1301 -482 1301 l -654 1301 l -654 1410 z "},"ॉ":{"ha":392,"x_min":-89,"x_max":481,"o":"m 481 1393 q 410 1203 481 1275 q 196 1132 340 1132 q -19 1203 51 1132 q -89 1393 -89 1275 l 42 1393 q 80 1290 42 1332 q 195 1249 118 1249 q 311 1290 272 1249 q 350 1393 350 1332 l 481 1393 m 442 896 l 275 896 l 275 0 l 124 0 l 124 896 l -43 896 l -43 1028 l 442 1028 l 442 896 z "},"ो":{"ha":399,"x_min":-274,"x_max":442,"o":"m 442 1028 l 442 896 l 275 896 l 275 0 l 124 0 l 124 896 l -43 896 l -43 1028 l 114 1028 q -36 1209 14 1176 q -217 1242 -86 1242 l -274 1242 l -274 1365 l -224 1365 q -108 1360 -150 1365 q -17 1337 -65 1354 q 69 1283 32 1319 q 260 1028 153 1203 l 442 1028 z "},"ौ":{"ha":376,"x_min":-251,"x_max":442,"o":"m 442 1028 l 442 896 l 275 896 l 275 0 l 124 0 l 124 896 l -43 896 l -43 1028 l 125 1028 q 0 1106 56 1092 q -189 1119 -56 1119 l -246 1119 l -246 1226 l -196 1226 q -19 1213 -75 1226 q 110 1136 38 1199 q -19 1272 42 1242 q -194 1301 -79 1301 l -251 1301 l -251 1410 l -201 1410 q -87 1403 -129 1410 q 1 1376 -44 1396 q 86 1314 47 1357 q 269 1028 161 1228 l 442 1028 z "},"्":{"ha":0,"x_min":-264,"x_max":47,"o":"m 47 -332 l -110 -332 l -264 -81 l -119 -81 l 47 -332 z "},"ॐ":{"ha":486,"x_min":117,"x_max":1379,"o":"m 678 521 q 794 543 761 521 q 826 632 826 565 q 889 876 826 794 q 1100 958 951 958 q 1314 874 1249 958 q 1379 617 1379 789 l 1379 461 q 1259 115 1379 214 q 847 60 1139 17 l 847 190 q 1147 223 1063 163 q 1232 471 1232 283 l 1232 628 q 1204 784 1232 738 q 1102 831 1176 831 q 999 783 1028 831 q 971 617 971 736 q 905 449 971 499 q 706 396 839 399 q 721 308 721 353 q 639 94 721 172 q 422 15 557 15 q 202 97 288 15 q 117 311 117 178 l 260 311 q 305 190 260 236 q 424 144 350 144 q 539 188 499 144 q 579 308 579 232 q 531 426 579 383 q 399 468 482 468 l 351 468 l 351 603 l 396 603 q 515 642 467 603 q 563 747 563 681 q 524 853 563 814 q 417 893 486 893 q 310 853 349 893 q 269 746 271 814 l 126 746 q 208 947 126 871 q 419 1022 290 1022 q 627 949 547 1022 q 707 756 707 875 q 669 624 707 682 q 565 543 631 565 l 565 536 q 601 521 582 531 l 678 521 m 940 1288 l 1067 1288 q 996 1097 1067 1169 q 783 1025 925 1025 q 569 1097 640 1025 q 497 1288 497 1169 l 624 1288 q 665 1183 624 1225 q 783 1140 706 1140 q 900 1183 860 1140 q 940 1288 940 1225 m 861 1325 q 861 1309 861 1325 q 838 1270 861 1293 q 783 1247 815 1247 q 726 1270 750 1247 q 703 1325 703 1293 q 726 1381 703 1357 q 783 1404 750 1404 q 838 1381 815 1404 q 861 1325 861 1357 z "},"क़":{"ha":1394,"x_min":-43,"x_max":1439,"o":"m 1439 896 l 790 896 l 790 672 q 1000 775 858 775 q 1222 684 1142 775 q 1303 442 1303 593 q 1191 206 1303 290 q 913 146 1079 121 l 911 271 q 1087 306 1022 258 q 1151 447 1151 353 q 1103 592 1151 540 q 967 643 1056 643 q 835 587 879 643 q 790 431 790 531 l 790 0 l 643 0 l 643 235 q 426 131 571 131 q 198 222 282 131 q 114 452 114 313 q 197 683 114 592 q 425 775 281 775 q 643 669 569 775 l 643 896 l -43 896 l -43 1028 l 1439 1028 l 1439 896 m 265 452 q 265 407 265 452 q 315 313 265 363 q 455 263 365 263 q 594 313 544 263 q 643 452 643 364 q 593 591 643 540 q 453 642 543 642 q 315 592 364 642 q 265 452 265 542 m 361 20 q 375 34 361 20 q 429 49 389 49 q 497 20 469 49 q 525 -47 525 -8 q 497 -115 525 -86 q 429 -143 469 -143 q 361 -115 389 -143 q 333 -47 333 -86 q 361 20 333 -8 z "},"ख़":{"ha":1289,"x_min":-43,"x_max":1333,"o":"m -43 1028 l 1333 1028 l 1333 896 l 1165 896 l 1165 0 l 1019 0 l 1019 267 q 825 183 957 183 q 793 185 803 183 q 671 47 758 96 q 465 -3 583 -3 q 206 89 301 -3 q 110 346 110 181 l 110 565 l 153 565 q 303 589 254 565 q 356 703 346 613 q 361 814 361 744 l 361 896 l -43 896 l -43 1028 m 261 336 q 464 129 261 129 q 658 239 618 129 q 554 469 554 318 q 630 673 554 593 q 831 753 706 753 q 1019 672 957 753 l 1019 896 l 511 896 l 511 814 q 461 539 511 613 q 261 456 411 465 l 261 336 m 694 469 q 694 432 694 469 q 740 351 694 394 q 858 308 785 308 q 975 351 932 308 q 1018 469 1018 394 q 976 586 1018 543 q 859 629 933 629 q 740 586 785 629 q 694 469 694 543 m 400 -130 q 414 -116 400 -130 q 468 -101 428 -101 q 536 -130 508 -101 q 564 -197 564 -158 q 536 -265 564 -236 q 468 -293 508 -293 q 400 -265 428 -293 q 372 -197 372 -236 q 400 -130 372 -158 z "},"ग़":{"ha":1032,"x_min":-43,"x_max":1076,"o":"m -43 1028 l 1076 1028 l 1076 896 l 908 896 l 908 0 l 758 0 l 758 896 l 506 896 l 506 578 q 453 358 506 432 q 275 285 400 285 q 39 569 31 285 l 189 569 q 229 429 189 454 q 276 418 247 418 q 324 430 306 418 q 350 467 342 442 q 361 575 361 506 l 361 896 l -43 896 l -43 1028 m 219 86 q 233 100 219 86 q 288 114 247 114 q 356 86 328 114 q 383 18 383 58 q 356 -50 383 -22 q 288 -78 328 -78 q 219 -50 247 -78 q 192 18 192 -22 q 219 86 192 58 z "},"ज़":{"ha":1161,"x_min":-43,"x_max":1204,"o":"m -43 1028 l 1204 1028 l 1204 896 l 1038 896 l 1038 0 l 886 0 l 886 582 l 665 582 l 665 494 q 601 233 665 325 q 381 142 538 142 q 144 247 210 142 q 86 494 86 342 l 86 707 l 238 707 l 238 528 q 272 319 238 365 q 379 274 306 274 q 486 319 450 274 q 515 443 511 351 q 517 528 517 474 l 517 707 l 886 707 l 886 896 l -43 896 l -43 1028 m 300 -16 q 314 -2 300 -16 q 368 13 328 13 q 436 -16 408 13 q 464 -83 464 -44 q 436 -151 464 -122 q 368 -179 408 -179 q 300 -151 328 -179 q 272 -83 272 -122 q 300 -16 272 -44 z "},"ड़":{"ha":803,"x_min":-43,"x_max":846,"o":"m 656 640 l 433 640 q 311 621 354 640 q 268 545 268 601 q 308 470 268 489 q 415 451 349 451 q 522 447 481 451 q 605 427 563 442 q 675 388 647 413 q 740 222 740 331 q 659 47 740 114 q 433 -19 578 -19 q 194 56 288 -19 q 97 267 100 131 l 246 267 q 436 104 257 104 q 590 224 590 104 q 547 308 590 288 q 429 329 503 329 q 306 338 356 329 q 211 369 257 347 q 115 554 115 418 q 294 756 115 715 q 401 767 343 767 l 504 767 l 504 896 l -43 896 l -43 1028 l 846 1028 l 846 896 l 656 896 l 656 640 m 377 -124 q 391 -110 377 -124 q 444 -96 406 -96 q 512 -124 483 -96 q 540 -192 540 -153 q 512 -259 540 -231 q 444 -287 483 -287 q 377 -259 406 -287 q 349 -192 349 -231 q 377 -124 349 -153 z "},"ढ़":{"ha":886,"x_min":-43,"x_max":929,"o":"m 668 653 l 553 653 q 324 585 408 653 q 239 391 239 517 q 315 200 239 265 q 519 135 390 135 q 655 173 607 135 q 703 269 703 211 q 596 390 703 390 q 493 269 493 390 l 360 269 q 418 447 358 381 q 591 513 478 513 q 774 449 704 513 q 844 281 844 386 q 752 76 844 150 q 515 3 660 3 q 210 105 329 3 q 90 391 90 207 q 208 675 90 575 q 517 782 326 775 l 517 896 l -43 896 l -43 1028 l 929 1028 l 929 896 l 668 896 l 668 653 m 458 -111 q 472 -97 458 -111 q 526 -83 486 -83 q 594 -111 567 -83 q 622 -179 622 -139 q 594 -247 622 -219 q 526 -275 567 -275 q 458 -247 486 -275 q 431 -179 431 -219 q 458 -111 431 -139 z "},"फ़":{"ha":1368,"x_min":-43,"x_max":1411,"o":"m 1411 896 l 776 896 l 776 643 q 990 747 849 747 q 1213 660 1132 747 q 1293 429 1293 574 q 1193 201 1293 285 q 929 132 1093 118 l 928 260 q 1088 298 1028 251 q 1147 432 1147 344 q 1100 567 1147 519 q 965 614 1053 614 q 827 555 878 614 q 776 404 776 496 l 776 0 l 625 0 l 625 406 q 416 306 558 306 q 199 403 274 306 q 125 656 125 500 l 125 896 l -43 896 l -43 1028 l 1411 1028 l 1411 896 m 276 896 l 276 654 q 316 492 276 547 q 446 436 356 436 q 581 498 536 436 q 625 657 625 560 l 625 896 l 276 896 m 297 115 q 311 129 297 115 q 364 143 325 143 q 431 115 403 143 q 460 47 460 86 q 431 -20 460 8 q 364 -49 403 -49 q 297 -20 325 -49 q 268 47 268 8 q 297 115 268 86 z "},"ॠ":{"ha":1388,"x_min":-43,"x_max":1429,"o":"m 1429 896 l 817 896 l 817 653 l 1051 653 q 1115 671 1100 653 q 1129 738 1129 689 l 1129 786 l 1267 786 l 1267 281 l 1232 281 q 1100 239 1126 281 q 1088 193 1088 221 q 1101 147 1088 165 q 1139 119 1114 128 q 1239 108 1178 108 l 1281 108 l 1281 -10 l 1236 -10 q 1089 -112 1089 -10 q 1126 -185 1089 -161 q 1215 -208 1163 -208 q 1322 -196 1267 -208 l 1322 -312 q 1213 -325 1271 -325 q 1021 -272 1094 -325 q 947 -124 947 -219 q 978 -22 947 -67 q 1058 44 1008 22 q 978 101 1010 61 q 946 196 946 142 q 998 318 946 275 q 1129 374 1050 361 l 1129 532 q 1051 526 1100 526 l 817 526 l 817 0 l 667 0 l 667 336 l 343 0 l 147 0 l 147 7 q 386 236 167 26 q 656 492 606 446 q 583 599 635 560 q 442 638 531 638 q 297 574 354 638 q 239 403 239 510 l 89 403 q 181 667 89 567 q 428 768 272 768 q 667 658 585 768 l 667 896 l -43 896 l -43 1028 l 1429 1028 l 1429 896 z "},"ॡ":{"ha":1263,"x_min":-43,"x_max":1304,"o":"m 946 896 l 946 707 q 1116 606 1054 689 q 1178 383 1178 522 q 1168 286 1178 335 l 1146 286 q 1041 269 1081 286 q 1001 199 1001 251 q 1043 131 1001 147 q 1154 115 1085 115 l 1196 115 l 1196 -3 l 1150 -3 q 1004 -107 1004 -3 q 1140 -203 1004 -203 q 1236 -189 1192 -203 l 1236 -306 q 1126 -318 1192 -318 q 935 -266 1008 -318 q 861 -118 861 -214 q 892 -15 861 -60 q 974 50 924 29 q 892 108 924 68 q 860 213 860 149 q 908 319 860 278 q 1028 371 956 361 q 874 578 1031 578 q 713 306 697 578 l 571 306 q 413 578 586 578 q 257 376 257 578 q 319 207 257 264 q 499 158 382 150 l 499 24 q 212 105 318 8 q 106 368 106 201 q 182 624 106 535 q 399 713 258 713 q 552 671 489 713 q 643 553 615 629 q 800 694 679 668 l 800 896 l -43 896 l -43 1028 l 1304 1028 l 1304 896 l 946 896 z "},"ॢ":{"ha":0,"x_min":199,"x_max":954,"o":"m 725 36 q 868 -26 818 36 q 918 -187 918 -89 q 911 -256 918 -224 l 900 -256 q 804 -331 804 -256 q 901 -401 804 -401 q 954 -396 928 -401 l 954 -496 q 890 -503 922 -503 q 742 -461 799 -503 q 686 -339 686 -419 q 718 -243 686 -282 q 801 -193 750 -204 q 715 -75 811 -75 q 622 -239 610 -75 l 500 -239 q 488 -119 506 -162 q 413 -75 469 -75 q 321 -194 321 -75 q 471 -324 321 -332 l 471 -432 q 274 -376 349 -442 q 199 -199 199 -310 q 251 -26 199 -87 q 401 35 304 35 q 503 6 461 35 q 563 -72 546 -24 q 618 6 576 -25 q 725 36 660 36 z "},"ॣ":{"ha":0,"x_min":199,"x_max":951,"o":"m 900 -254 q 828 -262 850 -254 q 807 -297 807 -269 q 829 -333 807 -325 q 900 -342 851 -340 l 921 -342 l 921 -424 l 903 -424 q 830 -433 853 -424 q 807 -471 807 -442 q 883 -515 807 -515 q 951 -504 915 -515 l 951 -590 q 868 -601 911 -601 q 700 -481 700 -601 q 771 -382 700 -407 q 700 -290 700 -358 q 731 -220 700 -244 q 804 -192 761 -196 q 789 -108 808 -143 q 715 -72 769 -72 q 622 -239 610 -72 l 500 -239 q 488 -119 506 -162 q 413 -75 469 -75 q 321 -194 321 -75 q 471 -324 321 -332 l 471 -432 q 274 -376 349 -442 q 199 -199 199 -310 q 251 -26 199 -87 q 401 35 304 35 q 503 6 461 35 q 563 -72 546 -24 q 618 6 576 -25 q 725 36 660 36 q 868 -26 818 36 q 918 -187 918 -89 q 911 -254 918 -219 l 900 -254 z "},"।":{"ha":388,"x_min":203,"x_max":353,"o":"m 203 1029 l 353 1029 l 353 0 l 203 0 l 203 1029 z "},"॥":{"ha":707,"x_min":203,"x_max":674,"o":"m 522 1029 l 674 1029 l 674 0 l 522 0 l 522 1029 m 203 1029 l 353 1029 l 353 0 l 203 0 l 203 1029 z "},"०":{"ha":890,"x_min":83,"x_max":806,"o":"m 269 974 q 306 993 269 974 q 444 1013 342 1013 q 619 974 547 1013 q 731 865 692 936 q 788 708 771 794 q 806 508 806 621 q 788 309 806 396 q 731 151 771 222 q 619 41 692 79 q 444 3 547 3 q 269 41 342 3 q 158 151 197 79 q 101 309 118 222 q 83 508 83 396 q 101 708 83 621 q 158 865 118 794 q 269 974 197 936 m 444 868 q 335 840 378 868 q 272 756 292 811 q 239 508 239 660 q 272 260 239 356 q 444 147 311 147 q 617 260 578 147 q 650 508 650 356 q 617 756 650 660 q 444 868 578 868 z "},"१":{"ha":486,"x_min":63,"x_max":351,"o":"m 192 0 l 192 842 l 63 842 l 63 986 l 351 986 l 351 0 l 192 0 z "},"२":{"ha":801,"x_min":69,"x_max":746,"o":"m 71 14 l 71 129 q 172 217 106 160 q 274 305 239 274 q 363 385 310 336 q 444 470 415 435 q 504 550 474 506 q 561 711 561 631 q 397 883 561 883 q 270 831 315 883 q 222 692 225 779 l 69 692 q 165 934 74 850 q 401 1018 256 1018 q 633 936 547 1018 q 718 719 718 854 q 664 526 718 618 q 608 442 635 479 q 535 358 582 406 q 460 285 488 311 q 378 211 432 258 q 306 146 325 164 l 746 146 l 746 14 l 71 14 z "},"३":{"ha":825,"x_min":67,"x_max":742,"o":"m 81 763 q 180 964 89 892 q 415 1036 271 1036 q 641 962 558 1036 q 724 772 724 888 q 678 625 724 686 q 568 543 632 564 l 568 538 q 696 447 650 513 q 742 267 742 381 q 656 74 742 153 q 419 -6 571 -6 q 170 72 267 -6 q 67 293 74 149 l 219 293 q 276 173 225 219 q 414 126 328 126 q 546 173 500 126 q 592 293 592 219 q 530 431 592 390 q 340 472 468 472 l 304 472 l 304 603 l 342 603 q 572 754 572 606 q 529 860 572 821 q 408 900 486 900 q 286 860 329 900 q 235 763 243 821 l 81 763 z "},"४":{"ha":899,"x_min":64,"x_max":851,"o":"m 574 349 l 574 839 l 246 349 l 574 349 m 567 0 l 567 211 l 64 211 l 64 331 l 531 1000 l 722 1000 l 722 349 l 851 349 l 851 211 l 722 211 l 722 0 l 567 0 z "},"५":{"ha":888,"x_min":103,"x_max":806,"o":"m 125 1015 l 736 1015 l 736 876 l 271 876 l 271 600 q 358 665 300 639 q 492 692 415 692 q 635 661 569 692 q 736 579 701 631 q 806 354 806 479 q 715 98 806 196 q 465 0 625 0 q 213 75 304 0 q 103 274 121 150 l 257 274 q 325 170 272 208 q 467 132 378 132 q 605 192 556 132 q 654 351 654 251 q 604 503 654 450 q 457 557 554 557 q 342 523 389 557 q 275 431 296 489 l 125 431 l 125 1015 z "},"६":{"ha":892,"x_min":103,"x_max":806,"o":"m 654 333 q 654 379 654 333 q 605 481 654 425 q 465 538 556 538 q 316 487 375 538 q 257 340 257 436 q 312 188 257 244 q 460 132 367 132 q 603 186 553 132 q 654 333 654 240 m 460 906 q 296 822 350 906 q 239 543 242 738 q 344 638 275 604 q 494 671 414 671 q 719 582 633 671 q 806 341 806 493 q 718 94 806 189 q 474 0 631 0 q 178 144 258 0 q 119 309 136 217 q 103 529 103 401 q 461 1038 103 1038 q 680 963 600 1038 q 774 778 760 888 l 628 778 q 460 906 597 906 z "},"७":{"ha":778,"x_min":56,"x_max":725,"o":"m 56 1008 l 725 1008 l 725 890 l 339 0 l 165 0 l 569 876 l 56 876 l 56 1008 z "},"८":{"ha":886,"x_min":85,"x_max":803,"o":"m 647 294 q 647 337 647 294 q 592 426 647 379 q 444 474 536 474 q 294 428 351 474 q 236 295 236 382 q 292 158 236 208 q 442 107 347 107 q 592 158 538 107 q 647 294 647 210 m 625 756 q 625 792 625 756 q 576 871 625 829 q 444 913 528 913 q 311 871 360 913 q 263 755 263 829 q 313 637 263 681 q 443 593 364 593 q 574 638 522 593 q 625 756 625 682 m 110 771 q 197 966 110 888 q 443 1044 283 1044 q 690 966 603 1044 q 776 771 776 888 q 737 634 776 693 q 632 543 697 575 q 757 446 711 513 q 803 286 803 379 q 703 60 803 144 q 444 -25 603 -25 q 185 60 285 -25 q 85 286 85 144 q 131 447 85 381 q 254 543 176 514 q 110 771 110 615 z "},"९":{"ha":882,"x_min":107,"x_max":792,"o":"m 258 708 q 258 664 258 708 q 308 566 258 621 q 449 511 357 511 q 588 563 540 511 q 636 706 636 615 q 585 851 636 797 q 447 904 535 904 q 309 849 360 904 q 258 708 258 794 m 464 133 q 608 211 563 133 q 654 476 654 289 q 560 403 621 429 q 429 378 500 378 q 198 463 289 378 q 107 701 107 547 q 197 945 107 854 q 443 1036 286 1036 q 712 910 632 1036 q 792 519 792 785 q 718 128 792 254 q 454 1 644 1 q 225 79 306 1 q 135 275 144 157 l 281 275 q 464 133 308 133 z "},"॰":{"ha":675,"x_min":131,"x_max":576,"o":"m 475 351 q 475 377 475 351 q 443 436 475 403 q 356 469 411 469 q 266 437 301 469 q 231 352 231 404 q 266 267 231 300 q 356 233 301 233 q 442 266 410 233 q 475 351 475 299 m 131 354 q 131 401 131 354 q 193 508 131 447 q 356 568 256 568 q 517 507 457 568 q 576 350 576 446 q 515 194 576 254 q 355 135 453 135 q 194 198 257 135 q 131 354 131 261 z "},"ॲ":{"ha":1168,"x_min":119,"x_max":1261,"o":"m 893 553 l 893 1028 l 1211 1028 l 1211 896 l 1044 896 l 1044 0 l 893 0 l 893 425 l 710 425 q 718 363 718 396 q 636 153 718 229 q 420 78 554 78 q 203 154 286 78 q 119 363 119 231 l 263 363 q 306 250 263 293 q 422 207 350 207 q 535 249 493 207 q 576 363 576 292 q 399 508 576 508 l 351 508 l 351 643 l 396 643 q 514 677 468 643 q 560 774 560 711 q 522 874 560 836 q 418 911 483 911 q 313 874 353 911 q 272 775 274 836 l 131 775 q 213 968 131 894 q 420 1042 294 1042 q 624 972 546 1042 q 703 785 703 901 q 667 658 703 711 q 565 583 631 606 l 565 576 q 617 553 593 568 l 893 553 m 1131 1379 l 1261 1379 q 1191 1190 1261 1261 q 976 1118 1121 1118 q 762 1190 832 1118 q 692 1379 692 1261 l 822 1379 q 860 1276 822 1318 q 976 1235 899 1235 q 1092 1276 1053 1235 q 1131 1379 1131 1318 z "},"​":{"ha":0,"x_min":0,"x_max":0,"o":""},"‌":{"ha":0,"x_min":-32,"x_max":33,"o":"m 33 -319 l -32 -319 l -32 1126 l 33 1126 l 33 -319 z "},"‍":{"ha":0,"x_min":-176,"x_max":179,"o":"m 33 -319 l -32 -319 l -32 882 l -128 781 l -174 826 l -44 956 l -176 1088 l -131 1133 l 1 1001 l 135 1133 l 179 1089 l 46 956 l 179 824 l 133 778 l 33 882 l 33 -319 z "},"–":{"ha":983,"x_min":121,"x_max":864,"o":"m 121 436 l 121 569 l 864 569 l 864 436 l 121 436 z "},"—":{"ha":1283,"x_min":121,"x_max":1163,"o":"m 121 436 l 121 569 l 1163 569 l 1163 436 l 121 436 z "},"‘":{"ha":243,"x_min":40,"x_max":201,"o":"m 201 800 l 58 800 q 40 938 40 874 q 196 1111 40 1111 l 196 1042 q 129 963 129 1042 l 129 933 l 201 933 l 201 800 z "},"’":{"ha":243,"x_min":42,"x_max":203,"o":"m 42 1110 l 185 1110 q 203 972 203 1036 q 47 799 203 799 l 47 868 q 114 947 114 868 l 114 976 l 42 976 l 42 1110 z "},"‚":{"ha":281,"x_min":50,"x_max":254,"o":"m 50 108 l 200 108 q 181 -172 254 -97 q 63 -215 140 -215 l 63 -146 q 113 -129 97 -146 q 129 -74 129 -112 l 129 -44 l 50 -44 l 50 108 z "},"“":{"ha":453,"x_min":40,"x_max":413,"o":"m 413 800 l 269 800 q 251 938 251 874 q 407 1111 251 1111 l 407 1042 q 340 963 340 1042 l 340 933 l 413 933 l 413 800 m 201 800 l 58 800 q 40 938 40 874 q 196 1111 40 1111 l 196 1042 q 129 963 129 1042 l 129 933 l 201 933 l 201 800 z "},"”":{"ha":453,"x_min":42,"x_max":413,"o":"m 42 1110 l 185 1110 q 203 972 203 1036 q 47 799 203 799 l 47 868 q 114 947 114 868 l 114 976 l 42 976 l 42 1110 m 251 1110 l 394 1110 q 413 972 413 1036 q 257 799 413 799 l 257 868 q 324 947 324 868 l 324 976 l 251 976 l 251 1110 z "},"„":{"ha":281,"x_min":50,"x_max":254,"o":"m 50 108 l 200 108 q 181 -172 254 -97 q 63 -215 140 -215 l 63 -146 q 113 -129 97 -146 q 129 -74 129 -112 l 129 -44 l 50 -44 l 50 108 z "},"†":{"ha":811,"x_min":68,"x_max":743,"o":"m 468 751 l 743 765 l 743 642 l 468 656 l 485 -364 l 326 -364 l 343 656 l 68 642 l 68 765 l 343 751 l 326 1088 l 485 1088 l 468 751 z "},"‡":{"ha":813,"x_min":69,"x_max":743,"o":"m 743 765 l 743 642 l 468 656 l 468 69 l 743 83 l 743 -40 l 468 -26 l 485 -364 l 326 -364 l 343 -26 l 69 -40 l 69 83 l 343 69 l 343 656 l 69 642 l 69 765 l 343 751 l 326 1088 l 485 1088 l 468 751 l 743 765 z "},"•":{"ha":642,"x_min":139,"x_max":503,"o":"m 503 463 q 503 424 503 463 q 450 334 503 386 q 321 282 397 282 q 192 334 244 282 q 139 463 139 386 q 192 592 139 539 q 321 644 244 644 q 450 592 397 644 q 503 463 503 539 z "},"…":{"ha":886,"x_min":68,"x_max":818,"o":"m 231 27 q 217 14 231 27 q 163 0 203 0 q 95 28 122 0 q 68 95 68 56 q 95 163 68 135 q 163 190 122 190 q 231 163 203 190 q 258 94 258 135 q 231 27 258 54 m 818 94 q 818 74 818 94 q 790 27 818 54 q 723 0 763 0 q 656 28 683 0 q 628 95 628 56 q 655 163 628 135 q 722 190 682 190 q 790 163 763 190 q 818 94 818 135 m 538 94 q 538 74 538 94 q 510 27 538 54 q 442 0 482 0 q 375 28 403 0 q 347 95 347 56 q 374 163 347 135 q 442 190 401 190 q 510 163 482 190 q 538 94 538 135 z "},"‰":{"ha":1475,"x_min":57,"x_max":1418,"o":"m 1294 200 q 1294 258 1294 200 q 1207 317 1294 317 q 1119 200 1119 317 q 1207 83 1119 83 q 1294 200 1294 83 m 1056 44 q 1026 73 1056 44 q 996 200 996 101 q 1056 356 996 299 q 1208 413 1115 413 q 1359 356 1300 413 q 1418 200 1418 299 q 1359 44 1418 101 q 1208 -14 1300 -14 q 1056 44 1115 -14 m 822 200 q 822 258 822 200 q 735 317 822 317 q 647 200 647 317 q 735 83 647 83 q 822 200 822 83 m 584 44 q 555 73 584 44 q 525 200 525 101 q 584 356 525 299 q 735 413 643 413 q 887 356 828 413 q 946 200 946 299 q 887 44 946 101 q 735 -14 828 -14 q 584 44 643 -14 m 146 0 l 700 967 l 856 967 l 301 0 l 146 0 m 356 767 q 356 826 356 767 q 268 885 356 885 q 181 767 181 885 q 268 650 181 650 q 356 767 356 650 m 116 612 q 86 641 116 612 q 57 768 57 669 q 116 924 57 867 q 268 981 175 981 q 420 924 361 981 q 479 768 479 867 q 420 612 479 669 q 268 554 361 554 q 116 612 175 554 z "},"‹":{"ha":413,"x_min":63,"x_max":343,"o":"m 210 410 l 343 167 l 190 167 l 63 410 l 190 653 l 343 653 l 210 410 z "},"›":{"ha":413,"x_min":69,"x_max":350,"o":"m 221 167 l 69 167 l 201 410 l 69 653 l 221 653 l 350 410 l 221 167 z "},"⁄":{"ha":815,"x_min":71,"x_max":782,"o":"m 71 0 l 625 967 l 782 967 l 228 0 l 71 0 z "},"₨":{"ha":1593,"x_min":104,"x_max":1469,"o":"m 1258 621 q 1240 637 1258 621 q 1158 653 1222 653 q 1058 624 1094 653 q 1022 549 1022 596 q 1068 476 1022 503 q 1180 438 1114 450 q 1312 407 1246 425 q 1424 341 1378 389 q 1469 213 1469 293 q 1385 50 1469 113 q 1169 -12 1301 -12 q 956 51 1038 -12 q 865 233 874 115 l 1029 233 q 1071 144 1033 176 q 1173 113 1108 113 q 1276 141 1238 113 q 1314 217 1314 169 q 1268 290 1314 264 q 1156 330 1222 317 q 1024 360 1090 343 q 913 424 958 378 q 867 546 867 469 q 949 710 867 643 q 1164 778 1031 778 q 1376 712 1297 778 q 1460 532 1454 646 l 1297 532 q 1258 621 1293 589 m 104 965 l 438 965 q 690 884 601 965 q 779 678 779 803 q 720 503 779 581 q 539 401 661 425 l 794 0 l 601 0 l 360 392 l 263 392 l 263 0 l 104 0 l 104 965 m 263 842 l 263 515 l 438 515 q 572 558 528 515 q 617 678 617 601 q 572 799 617 756 q 438 842 528 842 l 263 842 z "},"€":{"ha":1114,"x_min":36,"x_max":1076,"o":"m 629 315 l 333 315 q 451 182 374 229 q 629 135 528 135 q 886 281 808 135 l 1076 281 q 903 67 1022 142 q 625 -8 783 -8 q 340 80 467 -8 q 164 315 214 168 l 36 315 l 36 424 l 139 424 q 136 485 136 463 q 139 546 136 507 l 36 546 l 36 654 l 164 654 q 340 890 214 801 q 624 978 467 978 q 902 902 782 978 q 1076 688 1022 826 l 886 688 q 629 833 808 833 q 451 786 529 833 q 333 654 374 739 l 629 654 l 629 546 l 303 546 q 299 485 299 517 q 303 424 299 453 l 629 424 l 629 315 z "},"₹":{"ha":864,"x_min":64,"x_max":819,"o":"m 658 851 l 658 728 l 819 728 l 819 614 l 650 614 q 542 419 628 476 q 271 363 456 363 l 271 275 q 413 110 271 110 q 556 269 556 110 l 701 269 q 626 58 700 129 q 411 -14 551 -14 q 197 64 271 -14 q 122 282 122 142 l 122 472 q 415 496 343 472 q 503 614 486 519 l 64 614 l 64 728 l 510 728 l 510 851 l 64 851 l 64 967 l 819 967 l 819 851 l 658 851 z "},"₺":{"ha":1181,"x_min":15,"x_max":1011,"o":"m 849 594 l 1011 594 q 890 129 1011 279 q 499 -21 768 -21 q 228 14 382 -21 l 228 335 l 21 288 l 21 400 l 228 447 l 228 565 l 15 517 l 15 625 l 228 674 l 228 974 l 390 974 l 390 711 l 618 764 l 618 653 l 390 601 l 390 483 l 611 533 l 611 422 l 390 372 l 390 138 q 499 128 436 128 q 768 246 688 128 q 849 594 849 364 z "},"₽":{"ha":882,"x_min":36,"x_max":835,"o":"m 493 392 l 318 392 l 318 278 l 594 278 l 594 151 l 318 151 l 318 0 l 160 0 l 160 151 l 36 151 l 36 278 l 160 278 l 160 392 l 36 392 l 36 515 l 160 515 l 160 965 l 493 965 q 746 884 657 965 q 835 681 835 803 q 751 476 835 560 q 493 392 667 392 m 318 842 l 318 515 l 493 515 q 628 558 583 515 q 672 678 672 601 q 628 799 672 756 q 493 842 583 842 l 318 842 z "},"ℓ":{"ha":367,"x_min":104,"x_max":263,"o":"m 104 0 l 104 1028 l 263 1028 l 263 0 l 104 0 z "},"™":{"ha":1126,"x_min":33,"x_max":1042,"o":"m 1042 978 l 1042 489 l 928 489 l 925 819 l 788 489 l 703 489 l 567 826 l 567 489 l 454 489 l 454 978 l 615 978 l 749 635 l 889 978 l 1042 978 m 33 883 l 33 978 l 374 978 l 374 883 l 264 883 l 265 489 l 140 489 l 143 883 l 33 883 z "},"Ω":{"ha":1090,"x_min":53,"x_max":1038,"o":"m 67 124 l 233 124 q 99 274 144 179 q 53 485 53 369 q 194 838 53 699 q 544 978 336 978 q 895 838 753 978 q 1038 485 1038 699 q 992 274 1038 369 q 857 124 946 179 l 1022 124 l 1022 0 l 643 0 l 643 128 q 812 256 747 164 q 876 475 876 347 q 783 736 876 639 q 544 833 690 833 q 306 736 397 833 q 214 475 214 639 q 278 256 214 347 q 447 128 343 164 l 447 0 l 67 0 l 67 124 z "},"℮":{"ha":1051,"x_min":60,"x_max":992,"o":"m 269 538 l 772 538 l 772 779 q 521 879 683 879 q 269 765 358 879 l 269 538 m 951 189 q 547 -10 767 -10 q 194 115 328 -10 q 60 463 60 240 q 184 832 60 686 q 525 978 308 978 q 778 913 669 978 q 939 746 886 847 q 992 525 992 644 l 992 439 l 269 439 l 269 203 q 538 90 375 90 q 720 133 638 90 q 888 260 803 175 l 951 189 z "},"∂":{"ha":813,"x_min":53,"x_max":760,"o":"m 336 -12 q 132 72 211 -12 q 53 332 53 157 q 165 642 53 507 q 433 778 276 778 q 594 704 532 778 q 537 872 586 810 q 399 935 488 935 q 289 918 351 935 l 289 1007 q 422 1028 353 1028 q 671 903 582 1028 q 760 569 760 778 q 637 147 760 307 q 336 -12 514 -12 m 583 446 q 544 593 583 542 q 439 644 506 644 q 278 551 343 644 q 214 321 214 458 q 252 171 214 221 q 354 121 290 121 q 517 217 450 121 q 583 446 583 314 z "},"∆":{"ha":967,"x_min":28,"x_max":939,"o":"m 776 122 l 483 786 l 190 122 l 776 122 m 939 0 l 28 0 l 28 122 l 418 967 l 549 967 l 939 122 l 939 0 z "},"∏":{"ha":1029,"x_min":43,"x_max":986,"o":"m 43 843 l 43 967 l 986 967 l 986 843 l 879 843 l 879 0 l 722 0 l 722 843 l 307 843 l 307 0 l 149 0 l 149 843 l 43 843 z "},"∑":{"ha":667,"x_min":56,"x_max":611,"o":"m 611 967 l 611 844 l 190 844 l 554 510 l 554 388 l 189 44 l 611 44 l 611 -78 l 56 -78 l 56 107 l 408 446 l 56 783 l 56 967 l 611 967 z "},"−":{"ha":813,"x_min":121,"x_max":692,"o":"m 121 436 l 121 569 l 692 569 l 692 436 l 121 436 z "},"∕":{"ha":714,"x_min":85,"x_max":618,"o":"m 85 -243 l 461 1311 l 618 1311 l 240 -243 l 85 -243 z "},"∙":{"ha":339,"x_min":74,"x_max":264,"o":"m 236 401 q 222 387 236 401 q 168 374 208 374 q 101 401 128 374 q 74 468 74 428 q 101 536 74 508 q 168 564 128 564 q 236 536 208 564 q 264 468 264 508 q 236 401 264 428 z "},"√":{"ha":1151,"x_min":29,"x_max":1136,"o":"m 1022 1221 l 1136 1221 l 436 -60 l 356 -60 l 172 264 l 76 207 l 29 286 l 261 424 l 426 131 l 1022 1221 z "},"∞":{"ha":975,"x_min":38,"x_max":938,"o":"m 875 640 q 906 611 875 640 q 938 483 938 582 q 873 326 938 385 q 714 267 808 267 q 483 394 596 267 q 256 267 400 265 q 99 326 161 268 q 38 482 38 383 q 102 640 38 581 q 261 699 167 699 q 489 567 381 699 q 719 699 572 700 q 875 640 813 697 m 269 381 q 418 474 357 381 q 340 557 374 529 q 266 585 307 585 q 197 558 225 585 q 169 482 169 531 q 197 407 169 433 q 269 381 225 381 m 553 486 q 629 407 594 433 q 707 381 664 381 q 778 408 750 381 q 806 483 806 435 q 778 558 806 532 q 706 585 750 585 q 622 558 663 585 q 553 486 581 532 z "},"∫":{"ha":375,"x_min":-58,"x_max":442,"o":"m 411 1285 l 442 1285 l 428 1153 l 406 1153 q 356 1134 372 1153 q 333 1071 339 1115 l 208 -89 q 137 -252 196 -203 q -29 -301 78 -301 l -58 -301 l -46 -171 l -22 -171 q 49 -89 40 -171 l 175 1071 q 246 1235 188 1186 q 411 1285 304 1285 z "},"≈":{"ha":768,"x_min":50,"x_max":718,"o":"m 271 788 q 401 742 329 788 q 508 697 472 697 q 570 720 543 697 q 603 785 597 743 l 718 785 q 496 556 679 556 q 367 601 438 556 q 260 646 297 646 q 197 623 224 646 q 164 558 169 600 l 50 558 q 271 788 89 788 m 271 479 q 401 434 329 479 q 508 389 472 389 q 570 412 543 389 q 603 476 597 435 l 718 476 q 496 247 679 247 q 367 292 438 247 q 260 338 297 338 q 197 315 224 338 q 164 250 169 292 l 50 250 q 271 479 89 479 z "},"≠":{"ha":1044,"x_min":168,"x_max":907,"o":"m 907 729 l 907 589 l 672 589 l 519 414 l 907 414 l 907 274 l 397 274 l 285 146 l 168 146 l 281 274 l 168 274 l 168 414 l 403 414 l 556 589 l 168 589 l 168 729 l 679 729 l 790 857 l 907 857 l 796 729 l 907 729 z "},"≤":{"ha":763,"x_min":118,"x_max":646,"o":"m 646 817 l 328 554 l 646 289 l 438 289 l 118 553 l 438 817 l 646 817 m 126 93 l 126 213 l 639 213 l 639 93 l 126 93 z "},"≥":{"ha":763,"x_min":118,"x_max":646,"o":"m 124 93 l 124 213 l 636 213 l 636 93 l 124 93 m 325 289 l 118 289 l 435 554 l 118 817 l 325 817 l 646 553 l 325 289 z "},"◊":{"ha":774,"x_min":43,"x_max":731,"o":"m 568 488 l 388 668 l 207 488 l 388 306 l 568 488 m 43 488 l 388 831 l 731 488 l 388 143 l 43 488 z "},"◌":{"ha":917,"x_min":61,"x_max":856,"o":"m 374 733 q 366 742 374 733 q 357 778 357 750 q 374 822 357 806 q 418 839 392 839 q 462 822 444 839 q 479 778 479 806 q 462 733 479 750 q 418 717 444 717 q 374 733 392 717 m 594 696 q 581 696 594 696 q 550 714 568 696 q 532 758 532 732 q 549 801 532 783 q 594 819 567 819 q 638 802 621 819 q 654 758 654 785 q 637 714 654 732 q 594 696 619 696 m 681 619 q 673 627 681 619 q 664 663 664 636 q 681 707 664 689 q 725 725 699 725 q 769 708 751 725 q 786 663 786 690 q 769 619 786 636 q 725 601 751 601 q 681 619 699 601 m 750 455 q 742 464 750 455 q 733 499 733 472 q 750 542 733 525 q 794 560 767 560 q 838 542 821 560 q 856 499 856 525 q 838 455 856 472 q 794 438 821 438 q 750 455 767 438 m 738 269 q 728 277 738 269 q 719 313 719 286 q 738 357 719 339 q 781 375 756 375 q 824 357 807 375 q 842 313 842 339 q 824 269 842 286 q 781 251 807 251 q 738 269 756 251 m 635 133 q 627 141 635 133 q 618 176 618 150 q 635 220 618 203 q 679 238 653 238 q 724 220 706 238 q 742 176 742 203 q 724 133 742 150 q 679 115 706 115 q 635 133 653 115 m 467 58 q 458 67 467 58 q 450 103 450 75 q 467 147 450 131 q 511 164 483 164 q 556 147 539 164 q 574 103 574 129 q 556 59 574 76 q 511 42 539 42 q 467 58 483 42 m 336 61 q 323 61 336 61 q 292 79 310 61 q 274 124 274 97 q 292 168 274 150 q 336 186 310 186 q 380 168 363 186 q 397 124 397 150 q 380 79 397 97 q 336 61 363 61 m 150 185 q 142 194 150 185 q 133 229 133 203 q 151 273 133 256 q 194 290 168 290 q 238 273 221 290 q 256 229 256 256 q 238 185 256 203 q 194 168 221 168 q 150 185 167 168 m 78 347 q 70 356 78 347 q 61 390 61 364 q 78 435 61 417 q 122 453 96 453 q 166 435 149 453 q 183 391 183 418 q 166 347 183 364 q 122 331 149 331 q 78 347 96 331 m 97 522 q 88 530 97 522 q 79 565 79 539 q 97 609 79 592 q 142 626 115 626 q 186 609 168 626 q 204 565 204 592 q 186 522 204 539 q 142 504 168 504 q 97 522 115 504 m 254 656 q 241 656 254 656 q 210 673 228 656 q 193 717 193 690 q 210 762 193 744 q 254 779 228 779 q 298 762 281 779 q 315 717 315 744 q 298 673 315 690 q 254 656 281 656 z "},"":{"ha":190,"x_min":15,"x_max":176,"o":"m 15 -64 l 158 -64 q 176 -201 176 -137 q 21 -375 176 -375 l 21 -306 q 88 -226 88 -306 l 88 -197 l 15 -197 l 15 -64 z "},"ﬁ":{"ha":828,"x_min":33,"x_max":746,"o":"m 283 819 l 283 765 l 724 765 l 724 0 l 565 0 l 565 636 l 283 636 l 283 0 l 124 0 l 124 636 l 33 636 l 33 765 l 124 765 l 124 819 q 194 1012 124 951 q 414 1072 264 1072 l 414 940 q 313 913 342 940 q 283 819 283 886 m 746 968 q 746 947 746 968 q 717 896 746 925 q 645 867 688 867 q 574 896 603 867 q 544 968 544 925 q 574 1040 544 1011 q 645 1069 603 1069 q 717 1040 688 1069 q 746 968 746 1011 z "},"ﬂ":{"ha":828,"x_min":33,"x_max":724,"o":"m 565 1028 l 724 1028 l 724 0 l 565 0 l 565 1028 m 283 819 l 283 765 l 425 765 l 425 636 l 283 636 l 283 0 l 124 0 l 124 636 l 33 636 l 33 765 l 124 765 l 124 819 q 194 1012 124 951 q 414 1072 264 1072 l 414 940 q 313 913 342 940 q 283 819 283 886 z "}}}
